<svg><defs><font horiz-adv-x="560"><font-face x-height="500" font-family="Titillium Web" panose-1="0 0 3 0 0 0 0 0 0 0" ascent="800" descent="-200" font-weight="200" cap-height="700" bbox="-224 -267 1072 1062" underline-thickness="30" underline-position="-80" unicode-range="U+0020-F6C3"/><glyph glyph-name=".notdef" horiz-adv-x="235"/><glyph glyph-name=".null" horiz-adv-x="0"/><glyph glyph-name="nonmarkingreturn" horiz-adv-x="333"/><glyph glyph-name="space" horiz-adv-x="220"/><glyph d="M93 0v80h40V0H93zm2 214v486h35V214H95z" glyph-name="exclam" unicode="!" horiz-adv-x="225"/><glyph d="M271 490h-33l-3 210h39zm-161 0H77l-3 210h39z" glyph-name="quotedbl" unicode="&quot;" horiz-adv-x="348"/><glyph d="M530 190H410V0h-36v190H186V0h-36v190H30v32h120v226H30v32h120v190h36V480h188v190h36V480h120v-32H410V222h120v-32zm-156 32v226H186V222h188z" glyph-name="numbersign" unicode="#"/><glyph d="M484 191q0-107-49-152.5T285-7q-15 0-24 1l-14-114q-35 3-35 7L226-5 83 8l4 33q77-10 143-14l39 299q-102 16-145.5 50.5T80 503q0 166 203 166 20 0 31-1l16 122h35l-16-124 121-12-4-33q-65 8-122 12l-36-278q94-16 135-50t41-114zM115 505q0-76 35-103.5T273 360l37 276q-11 1-27 1-168 0-168-132zM284 25q165 0 165 153 0 75-32.5 102T304 321L265 25h19z" glyph-name="dollar" unicode="$"/><glyph d="M175-1l185 670 32-9L206-9zm-34 670q103 0 103-134 0-69-28-103.5T140.5 397t-75 34.5T38 536q0 133 103 133zM73 536q0-107 68-107t68 106q0 52-15.5 77t-52 25T89 612t-16-76zm347-273q103 0 103-134 0-69-28-103.5T419.5-9t-75 34.5T317 130q0 133 103 133zm-68-133q0-107 68-107t68 106q0 52-15.5 77t-52 25-52.5-25-16-76z" glyph-name="percent" unicode="%"/><glyph d="M198 654.5Q237 694 313.5 694t114-39T465 546.5t-38-110T300 367l187-185q11 30 21.5 86.5T522 367h35q-11-130-43-211L654 19 630-7 499 123Q433-9 277-9 151-9 99 46T47 199t38 141.5T210 409q-32 35-41.5 65t-9.5 76q0 65 39 104.5zM279 24q137 0 194 124L236 383q-86-23-120-60T82 201t46-131 151-46zm-85 526q0-78 45-123l36-36q87 30 121 63t34 96q0 112-118 112T194 550z" glyph-name="ampersand" unicode="&" horiz-adv-x="680"/><glyph d="M76 490l-2 210h40l-5-210H76z" glyph-name="quotesingle" unicode="'" horiz-adv-x="187"/><glyph d="M96 301.5q0-83.5 24-190T168-60l23-65h-35q-11 25-27 68T86 99 59 301t24.5 201T132 682l24 68h35q-34-89-64.5-227T96 301.5z" glyph-name="parenleft" unicode="(" horiz-adv-x="234"/><glyph d="M176 301q0-89-24-195.5T104-63l-25-62H44q34 84 64.5 213.5t30.5 213-23.5 196T68 680l-24 70h35q11-28 27-75t43-166 27-208z" glyph-name="parenright" unicode=")" horiz-adv-x="234"/><glyph d="M362 519H225l42-129-32-10-42 130-110-79-19 27 110 80-109 80 20 27 110-81 42 129 32-10-42-130h135v-34z" glyph-name="asterisk" unicode="*" horiz-adv-x="417"/><glyph d="M59 234v34h202v212h36V268h204v-34H297V20h-36v214H59z" glyph-name="plus" unicode="+"/><glyph d="M44-123L86 87h40L75-123H44z" glyph-name="comma" unicode="," horiz-adv-x="197"/><glyph d="M76 264v34h307v-34H76z" glyph-name="hyphen" unicode="-" horiz-adv-x="458"/><glyph d="M75 0v80h40V0H75z" glyph-name="period" unicode="." horiz-adv-x="190"/><glyph d="M33 12l277 690 33-14L66-1z" glyph-name="slash" unicode="/" horiz-adv-x="376"/><glyph d="M182 654.5q40 15.5 98 15.5t98.5-15.5T450 600q60-74 60-284 0-186-62-258-31-36-71.5-51.5T280-9 183.5 6 112 56q-63 71-63 259 0 209 61 285 32 39 72 54.5zM387.5 610q-40.5 26-108 26T172 610q-85-54-85-296 0-171 52-233 26-31 59.5-43.5T288 25t96 22.5 64 88 24 186T450 513t-62.5 97z" glyph-name="zero" unicode="0"/><glyph d="M369 660V0h-36v621L146 495l-17 29 204 136h36z" glyph-name="one" unicode="1"/><glyph d="M490 0H72v31l227 242q49 52 72 79t41.5 67 18.5 81q0 73-41.5 104T263 635q-68 0-152-19l-28-7-5 34q93 26 190.5 26t149-39T469 500q0-67-30-116.5T338 261L121 32h369V0z" glyph-name="two" unicode="2"/><glyph d="M79 648q95 22 198 22t149-39.5T472 505q0-35-11.5-63.5t-27.5-44-33-26.5q-29-18-41-18 65-17 98.5-53T491 174Q491-9 283-9 194-9 96 8l-30 6 6 34q105-23 211-23 170 1 170 154 0 82-43.5 115.5T291 332H157v34h133q49 0 96.5 37T434 508.5t-35.5 98T275 636t-165-16l-25-6z" glyph-name="three" unicode="3"/><glyph d="M387 0v142H40v30l205 488h39L83 176h304v219h36V176h98v-34h-98V0h-36z" glyph-name="four" unicode="4"/><glyph d="M468 660v-36H130l-18-263q34 20 86 35.5t93 15.5q208 0 208-192 0-113-57.5-170T281-7q-89 0-179 18l-30 6 5 34q110-24 198-24t137 50 49 143q0 158-171 158-40 0-84.5-14T136 336l-25-13-34 4 19 333h372z" glyph-name="five" unicode="5"/><glyph d="M472 626q-82 9-173.5 9T153 564.5 98 358l28 12q29 11 77 23.5t87 12.5q218 0 218-198 0-103-57.5-160T284-9Q60-9 60 337q0 168 65 250t181 82q74 0 146-7l24-3zM289 372q-41 0-89-12t-76-24l-27-13q5-298 187-298 91 0 138.5 47T470 204.5 422.5 331 289 372z" glyph-name="six" unicode="6"/><glyph d="M83 626v34h402v-65L217-9 182 5l265 598v23H83z" glyph-name="seven" unicode="7"/><glyph d="M278 670q111 0 174-40.5T515 505q0-65-33-101t-103-56q70-20 108-58.5T525 179q0-104-66.5-146T281-9 102 32.5 34 168q0 76 33.5 114T169 348q-62 22-93 58T45 506q0 164 233 164zm0-645q98 0 153.5 34T487 178q0 77-47 108-25 17-48 25.5T331 330H214q-70-17-105.5-53T73 169Q73 25 278 25zm147 580q-51 31-146.5 31T133 606t-50-95 31.5-97 99.5-51h117q73 17 109 50t36 97-51 95z" glyph-name="eight" unicode="8"/><glyph d="M247 25q107 0 160 66t54 209q-114-44-202-44-209 0-209 195 0 100 60 159t160 59q117 0 173-90.5t56-263T436 67 247-9q-82 0-146 8L77 2l4 33q82-10 166-10zm14 265q35 0 85.5 11t83.5 23l32 11q-7 300-192 300-84 0-133-50T88 451t43-122.5T261 290z" glyph-name="nine" unicode="9"/><glyph d="M75 344v80h40v-80H75zM75 0v80h40V0H75z" glyph-name="colon" unicode=":" horiz-adv-x="191"/><glyph d="M103 87h42L93-123H62zm-3 257v80h40v-80h-40z" glyph-name="semicolon" unicode=";" horiz-adv-x="228"/><glyph d="M481 446L90 251 481 56V15L57 233v36l424 216v-39z" glyph-name="less" unicode="<"/><glyph d="M68 318v34h424v-34H68zm0-169v34h424v-34H68z" glyph-name="equal" unicode="="/><glyph d="M469 251L78 446v39l424-216v-36L78 15v41z" glyph-name="greater" unicode=">"/><glyph d="M407 551q0-61-18.5-93.5t-68-76-65-58.5-31.5-42-16-53v-38h-34q-1 22-1 43t8 42.5 27 44.5q30 33 79 77t67 74 18 80q0 69-40.5 97T207 676q-43 0-131-21l-30-7-5 34q112 27 166 27 99 0 149.5-36.5T407 551zM171 1v80h40V1h-40z" glyph-name="question" unicode="?" horiz-adv-x="453"/><glyph d="M925 305v-17q0-179-35-238-12-22-23.5-33.5T836-1q-30-9-65.5-9T714-3.5 682 12q-22 21-27 41-41-24-98-43T470-9t-48 2.5T378 10t-42 39-28.5 75T295 243q0 136 46 201t164 65q53 0 111-20l21-7v18h35V300q0-200 14-236 5-14 16.5-26.5t26-15T768 20t39.5 3T840 40t27 42q21 64 21 206v18q0 201-88 291t-298.5 90T194 591 97 261q0-124 24-207t76.5-131.5 125.5-69T504-167l143 10 3-33q-98-9-146-9-116 0-195 21.5T172-104Q60-5 60 251.5t108 362T503 719t324.5-99T925 305zM418.5 29.5q19.5-6.5 48-6.5T541 38t77 30l30 15q-11 114-11 217v150q-73 27-132 27-101 0-138-57.5T330 240q0-141 47-184 22-20 41.5-26.5z" glyph-name="at" unicode="@" horiz-adv-x="979"/><glyph d="M28 0l215 700h106L564 0h-36l-65 215H129L64 0H28zm240 666L140 249h312L324 666h-56z" glyph-name="A" unicode="A" horiz-adv-x="592"/><glyph d="M92 700h240q202 0 202-173 0-130-97-166 124-34 124-168 0-108-53.5-150.5T351 0H92v700zm251-359H128V34h223q83 0 128 35.5T524 193q0 148-181 148zm-11 325H128V375h215q81 0 117.5 37T497 524t-40 108.5T332 666z" glyph-name="B" unicode="B" horiz-adv-x="620"/><glyph d="M501 11Q401-9 320.5-9t-130 23.5T114 87 77 197 67 338t5.5 131 21 99 42.5 77q60 64 180 64 88 0 185-19l-3-35q-96 20-166.5 20T222 659t-61.5-41.5-35-70T109 458t-4-111 4-111 17-88 36-68q51-55 154-55 78 0 182 20z" glyph-name="C" unicode="C" horiz-adv-x="545"/><glyph d="M352 0H92v700h260q64 0 110.5-28t73-77.5 38.5-108T586 358t-12.5-131T535 113.5t-73-83T352 0zm186 243.5Q548 298 548 369t-16.5 136.5-62.5 113T352 666H128V34h224q54 0 93.5 29t61 77.5 31.5 103z" glyph-name="D" unicode="D" horiz-adv-x="649"/><glyph d="M92 0v700h409v-34H128V375h313v-34H128V34h373V0H92z" glyph-name="E" unicode="E" horiz-adv-x="552"/><glyph d="M92 0v700h401v-34H128V350h314v-34H128V0H92z" glyph-name="F" unicode="F" horiz-adv-x="523"/><glyph d="M361 313v34h186V16Q418-9 327-9 180-9 122.5 80T65 347q0 87 11.5 149.5T116 609q56 100 211 100 89 0 189-19l31-6-3-35q-126 26-206 26t-125-22-68.5-68T112 483.5t-9-136 9.5-136T146 112q47-87 181-87 74 0 184 20v268H361z" glyph-name="G" unicode="G" horiz-adv-x="619"/><glyph d="M546 0v334H128V0H92v700h36V368h418v332h36V0h-36z" glyph-name="H" unicode="H" horiz-adv-x="674"/><glyph d="M92 0v700h36V0H92z" glyph-name="I" unicode="I" horiz-adv-x="220"/><glyph d="M191 700V81q0-78-19-107-11-17-22-26.5T116-66q-34-7-98-7v34q97 0 113 17 20 22 22 52.5t2 65.5v604h36z" glyph-name="J" unicode="J" horiz-adv-x="280"/><glyph d="M128 329V0H92v700h36V363h129l220 337h43L289 348 536 0h-46L259 329H128z" glyph-name="K" unicode="K" horiz-adv-x="553"/><glyph d="M469 0H92v700h36V34h341V0z" glyph-name="L" unicode="L" horiz-adv-x="483"/><glyph d="M92 0v700h76L414 55l246 645h76V0h-36v666h-14L440 21h-52L142 666h-14V0H92z" glyph-name="M" unicode="M" horiz-adv-x="828"/><glyph d="M92 0v700h85L510 34h27v666h36V0h-85L154 666h-26V0H92z" glyph-name="N" unicode="N" horiz-adv-x="665"/><glyph d="M216 45q46-20 117.5-20t117 18.5 70 61T554 203t9 144q0 168-48.5 248T333 675q-139 0-187-87-24-44-33.5-100.5t-9.5-141 9-139.5 33.5-98.5T216 45zm-98 37q-30 48-41.5 110.5T65 347q0 184 58 273t210 89 210-88.5T601 344 544.5 73.5 331-9 118 82z" glyph-name="O" unicode="O" horiz-adv-x="666"/><glyph d="M347 257H128V0H92v700h255q108 0 157.5-52.5T554 485q0-228-207-228zm-219 34h219q169 0 169 194 0 92-40 136.5T347 666H128V291z" glyph-name="P" unicode="P" horiz-adv-x="595"/><glyph d="M443 5Q395-9 324-9T200 13t-82.5 69.5-41 110T65 347q0 184 58 273t210 89 210-88.5T601 347q0-137-26.5-215T480 19l86-140-36-17zM216 45q46-20 117.5-20t117 18.5 70 61T554 203t9 144q0 168-48.5 248T333 675q-139 0-187-87-24-44-33.5-100.5t-9.5-141 9-139.5 33.5-98.5T216 45z" glyph-name="Q" unicode="Q" horiz-adv-x="666"/><glyph d="M128 290V0H92v700h251q106 0 157-48t51-152q0-177-145-205L564 0h-41L367 290H128zm385 210q0 87-41 126.5T343 666H128V324h215q170 0 170 176z" glyph-name="R" unicode="R" horiz-adv-x="613"/><glyph d="M272 677Q94 677 94 537q0-63 21-91 12-15 25-25.5t38-18.5q41-12 104-22 109-17 156.5-52.5T486 203q0-113-52.5-161.5T274-7Q208-7 97 5L60 9l4 35q138-17 218-17 166 0 166 173 0 73-38 101t-117.5 40-113 21.5-65 29.5-45 54.5T56 535q0 176 216 176 69 0 166-12l33-4-4-35q-137 17-195 17z" glyph-name="S" unicode="S" horiz-adv-x="540"/><glyph d="M13 666v34h500v-34H282V0h-36v666H13z" glyph-name="T" unicode="T" horiz-adv-x="526"/><glyph d="M124 196q0-91 49-131t144.5-40 146 39.5T514 196v504h36V196q0-109-59.5-157t-173-48T146 39 88 196v504h36V196z" glyph-name="U" unicode="U" horiz-adv-x="638"/><glyph d="M502 700h36L342 0H226L30 700h36L252 34h64z" glyph-name="V" unicode="V" horiz-adv-x="568"/><glyph d="M38 700h36L214 34h39l153 656h44L603 34h39l140 666h36L671 0h-96L428 641 281 0h-96z" glyph-name="W" unicode="W" horiz-adv-x="856"/><glyph d="M68 700l208-326 207 326h43L303 347 526 0h-43L277 322 68 0H25l226 347L25 700h43z" glyph-name="X" unicode="X" horiz-adv-x="551"/><glyph d="M281 0h-36v301L17 700h42l204-359 204 359h42L281 301V0z" glyph-name="Y" unicode="Y" horiz-adv-x="526"/><glyph d="M44 666v34h450v-70L81 55V33h413V-1H44v69l413 574v24H44z" glyph-name="Z" unicode="Z" horiz-adv-x="539"/><glyph d="M268 749v-32H121V-91h147v-32H86v872h182z" glyph-name="bracketleft" unicode="[" horiz-adv-x="311"/><glyph d="M365 14L330 0 29 687l35 14z" glyph-name="backslash" unicode="\" horiz-adv-x="395"/><glyph d="M43 717v32h182v-872H43v32h147v808H43z" glyph-name="bracketright" unicode="]" horiz-adv-x="311"/><glyph d="M447 323L280 624 122 323H82l180 337h36l189-337h-40z" glyph-name="asciicircum" unicode="^"/><glyph d="M106-104h428v-34H106v34z" glyph-name="underscore" unicode="_" horiz-adv-x="640"/><glyph d="M26 732l192-96-15-27-193 92z" glyph-name="grave" unicode="`" horiz-adv-x="215"/><glyph d="M411 353V65q4-36 75-42l-2-31q-73 0-103 42Q279-9 179-9q-62 0-96.5 37T48 133.5 81 238t105 43l190 20v52q0 64-27.5 93T265 475q-57 0-158-13l-31-4-3 33q112 18 192 18 146 0 146-156zM109 217q-24-27-24-81t24.5-83.5T178 23t93 10.5T348 54l28 10v205l-186-19q-57-6-81-33z" glyph-name="a" unicode="a" horiz-adv-x="495"/><glyph d="M113 469q83 40 176.5 40T419 451t36-199-47-201T227-9q-70 0-127 7L78 0v730h35V469zm0-440q78-6 126.5-6t87 13T385 81t26.5 71.5T418 258q0 118-27 168.5T285 477q-40 0-83-10t-66-20l-23-10V29z" glyph-name="b" unicode="b" horiz-adv-x="514"/><glyph d="M265 477q-95 0-131.5-48T97 253.5t33-179T265 23l120 9 2-32q-84-9-122-9-122 0-163.5 57.5T60 252.5 106 454t159 55l120-10-2-32q-80 10-118 10z" glyph-name="c" unicode="c" horiz-adv-x="429"/><glyph d="M436 730V0h-35v42q-29-19-81-35T235.5-9t-50 2.5-43.5 16T99.5 48t-29 75T58 242q0 136 46.5 201.5T269 509q57 0 132-12v233h35zM182.5 29.5Q202 23 234 23t75.5 13T377 62l24 13v390q-78 12-132 12-101 0-137.5-57T95 242q0-144 46-186 22-20 41.5-26.5z" glyph-name="d" unicode="d" horiz-adv-x="515"/><glyph d="M399 30l30 2 2-32Q319-9 246-9 140-8 99 55.5T58 250q0 259 202 259 95 0 142.5-57T450 269v-33H95q0-108 34-160.5T242 23t157 7zM95 268h318q0 113-36.5 161T260 477Q95 477 95 268z" glyph-name="e" unicode="e" horiz-adv-x="502"/><glyph d="M133 468V0H98v468H29v32h69v61q0 105 28 141.5t99 36.5l92-3v-31q-64 2-92 2-53 0-72.5-29.5T133 560v-60h162v-32H133z" glyph-name="f" unicode="f" horiz-adv-x="313"/><glyph d="M418.5-202.5Q368-239 251.5-239t-155 33.5T58-80q0 57 38 91 14 13 47 37-22 14-22 65 0 14 23 62l7 16q-86 28-86 152 0 167 171 167 52 0 92-10l14-3 140 3v-35H374q40-37 40-124.5T370.5 216 232 179q-30 0-54 4-23-57-23-72t2-23 8-15 23-9q31-5 117-5t125-27.5T469-81t-50.5-121.5zM94-79q0-74 31.5-101t128-27T391-178.5t41 97T402 7 290 27l-121 3q-45-31-60-52.5T94-79zm38 319q31-29 106.5-29t107 28.5T377 343t-31.5 105-107 30T132 447.5 101 343t31-103z" glyph-name="g" unicode="g" horiz-adv-x="501"/><glyph d="M114 0H79v730h35V470q88 39 181 39t125-50.5T452 260V0h-35v258q0 132-24 175.5T288 477q-40 0-83.5-10T138 447l-24-10V0z" glyph-name="h" unicode="h" horiz-adv-x="526"/><glyph d="M79 0v500h35V0H79zm0 645v55h35v-55H79z" glyph-name="i" unicode="i" horiz-adv-x="193"/><glyph d="M79 6v494h35V5q0-85-31.5-129.5T-45-218l-14 31q87 47 112.5 81.5T79 6zm0 639v55h35v-55H79z" glyph-name="j" unicode="j" horiz-adv-x="192"/><glyph d="M114 0H79v730h35V289h96l172 211h42L240 274 432 0h-42L210 257h-96V0z" glyph-name="k" unicode="k" horiz-adv-x="455"/><glyph d="M85 0v730h35V0H85z" glyph-name="l" unicode="l" horiz-adv-x="205"/><glyph d="M114 0H79v500h35v-40q9 5 24 13.5t58.5 22T286 509q92 0 126-54 36 21 88 37.5t96 16.5q100 0 132-50.5T760 260V0h-35v258q0 132-24 175.5T596 477q-43 0-86-12.5T446 440l-22-12q18-49 18-168V0h-35v258q0 132-24 175.5T278 477q-40 0-81-12.5T135 440l-21-13V0z" glyph-name="m" unicode="m" horiz-adv-x="834"/><glyph d="M114 0H79v500h35v-40q89 49 182 49t125-50.5T453 260V0h-35v258q0 132-24 175.5T289 477q-40 0-83.5-12.5T138 440l-24-13V0z" glyph-name="n" unicode="n" horiz-adv-x="527"/><glyph d="M263 509q111 0 157-56t46-202-41-203T263-9 101 48 60 251t46 202 157 56zm0-486q56 0 88.5 11.5t50 43 22.5 71 5 110.5q0 126-35 172t-131 46-131-46-35-172q0-71 5-110.5t22.5-71 50-43T263 23z" glyph-name="o" unicode="o" horiz-adv-x="526"/><glyph d="M79-230v730h35v-42q29 19 81 35t92 16q90 0 130.5-61T458 252 409.5 54 246-9Q178-9 114 5v-235H79zm208 707q-38 0-81.5-13.5T138 437l-24-13V37q77-14 132-14 96 0 135.5 53.5t39.5 176T387.5 426 287 477z" glyph-name="p" unicode="p" horiz-adv-x="516"/><glyph d="M400 29Q327-9 233-9T98.5 51.5 58 248t50 198.5T286 509l149-9v-730h-35V29zM287 477q-112 0-152-54.5T95 249t31.5-172.5T238 23q40 0 80.5 10T380 53l20 10v408q-78 6-113 6z" glyph-name="q" unicode="q" horiz-adv-x="514"/><glyph d="M79 0v500h35v-78q30 24 89.5 51.5T312 510v-36q-44-9-93.5-30T142 406l-28-17V0H79z" glyph-name="r" unicode="r" horiz-adv-x="328"/><glyph d="M222 477Q88 477 88 377q0-47 28-66.5T240 276t134-40 38-100.5-48-110T222-9Q171-9 86 3L57 7l4 33q108-17 172-17t103 25 39 85-30.5 79-125 33.5-131.5 39T51 367t27 89.5 63 42 75 10.5q81 0 152-11l26-4-2-33q-102 16-170 16z" glyph-name="s" unicode="s" horiz-adv-x="461"/><glyph d="M325 468H143V206q0-115 16.5-149.5T235 22l98 8 3-32q-66-8-101-8-71 0-99 36.5T108 168v300H29v32h79v163h35V500h182v-32z" glyph-name="t" unicode="t" horiz-adv-x="342"/><glyph d="M402 500h35V0h-35v40q-9-5-24-13.5t-58.5-22T238-9Q138-9 106 41.5T74 240v260h35V242q0-132 24-175.5T238 23q40 0 81 12.5T381 60l21 13v427z" glyph-name="u" unicode="u" horiz-adv-x="516"/><glyph d="M31 500h41L213 32h44l145 468h37L284 0h-98z" glyph-name="v" unicode="v" horiz-adv-x="470"/><glyph d="M36 500h37L200 32h11l148 458h38L545 32h11l127 468h37L585 0h-68L378 448 239 0h-68z" glyph-name="w" unicode="w" horiz-adv-x="756"/><glyph d="M28 500h41l149-223 150 223h41L239 250 408 0h-41L218 223 69 0H28l169 250z" glyph-name="x" unicode="x" horiz-adv-x="437"/><glyph d="M31 500h37L215 32h41l148 468h37L212-230h-37L247 0h-61z" glyph-name="y" unicode="y" horiz-adv-x="471"/><glyph d="M42 468v32h371v-32L87 32h326V0H42v32l327 436H42z" glyph-name="z" unicode="z" horiz-adv-x="455"/><glyph d="M168 169q-7-70-7-116 0-71 31-106t112-39l-2-32q-95 4-135.5 45.5T126 53l7 123q0 48-23.5 75T29 294v32q57 14 80.5 42t23.5 78l-7 128q0 90 40.5 131.5T302 751l2-32q-82-4-112.5-38.5T161 574l7-119q0-65-22-95.5T68 311q56-18 78-49t22-93z" glyph-name="braceleft" unicode="{" horiz-adv-x="346"/><glyph d="M85-230v960h35v-960H85z" glyph-name="bar" unicode="|" horiz-adv-x="205"/><glyph d="M185 53q0 46-7 116 0 62 22 93t78 49q-56 18-78 48.5T178 455l7 119q0 72-30.5 106.5T42 719l2 32q95-4 135.5-45.5T220 574l-7-128q0-50 23.5-78t80.5-42v-32q-57-16-80.5-43T213 176l7-123q0-90-40.5-131.5T44-124l-2 32q81 4 112 39t31 106z" glyph-name="braceright" unicode="}" horiz-adv-x="346"/><glyph d="M381 212q-30 0-103.5 36.5T186 285t-43.5-13-42.5-26l-18-13-11 32q62 54 112 54 30 0 103.5-36.5T378 246t43.5 13 42.5 26l18 13 11-31q-62-55-112-55z" glyph-name="asciitilde" unicode="~"/><glyph glyph-name="uni00A0" horiz-adv-x="220"/><glyph d="M121 500v-80H81v80h40zm-2-214v-486H84v486h35z" glyph-name="exclamdown" unicode="¡" horiz-adv-x="204"/><glyph d="M284-85V41q-96 3-135.5 45.5T109 244t41 164.5T283 461v130h35V460q40 0 97-9l19-3-2-33q-80 10-138 10-80 0-112.5-40.5t-32.5-139T180.5 112 304 77q52 0 110 6l20 2 2-35q-74-8-117-9V-85h-35z" glyph-name="cent" unicode="¢"/><glyph d="M312 637q-62 0-82-36t-20-147v-48h182v-32H210V34h174l82 16 7-32-82-18H83v34h92v340h-69v32h69v52q0 126 29.5 168.5T312 669q34 0 98-9l22-3v-32q-87 12-120 12z" glyph-name="sterling" unicode="£"/><glyph d="M280 82q-61 0-107 38l-70-71-26 26 71 70q-38 46-38 107t38 107l-71 70 26 26 70-71q46 38 107 38t107-38l70 71 26-26-71-70q38-46 38-107t-38-107l71-70-26-26-70 71q-46-38-107-38zm0 36q55 0 94.5 39.5T414 252t-39.5 94.5T280 386t-94.5-39.5T146 252t39.5-94.5T280 118z" glyph-name="currency" unicode="¤"/><glyph d="M57 331v34h171L35 660h41l205-309 202 309h42L334 365h168v-34H312l-13-20v-95h204v-34H299V0h-36v182H58v34h205v95l-13 20H57z" glyph-name="yen" unicode="¥"/><glyph d="M87 730h35V354H87v376zm0-584h35v-376H87v376z" glyph-name="brokenbar" unicode="¦" horiz-adv-x="209"/><glyph d="M247 628q-140 0-140-110 0-65 32.5-87.5t117-35.5T381 353t40-98q0-29-9.5-60.5T392 146l-10-18q36-28 36-99.5T373.5-83 245-123q-44 0-139 10l-29 3 3 32q110-14 165-14 138 0 138 126 0 57-31.5 75.5T233 140t-129 42.5T62 283q0 30 13.5 60t26.5 45l14 15q-44 33-44 109 0 148 175 148 63 0 131-10l25-3-2-32q-106 13-154 13zM141 389q-44-53-44-105.5t35-77 114-36T356 144q30 52 30 108.5t-32.5 78T245 364t-104 25z" glyph-name="section" unicode="§" horiz-adv-x="487"/><glyph d="M0 638v62h35v-62H0zm190 0v62h35v-62h-35z" glyph-name="dieresis" unicode="¨" horiz-adv-x="215"/><glyph d="M68 434q0 111 73 188.5T323 700t182.5-77.5T579 434t-73.5-188T323 169t-182 77-73 188zm32 0q0-98 63.5-165.5T323 201t160 67.5T547 434t-64 166-160 68-159.5-68T100 434zm223-153q-62 0-85.5 38.5t-23.5 114T237 548t86 39q39 0 64-5l10-2-1-32q-41 7-73 7-49 0-63-28t-14-92 16-93 61-29l73 8 1-32q-43-8-74-8z" glyph-name="copyright" unicode="©" horiz-adv-x="647"/><glyph d="M270 571V437q11-17 37-23l-2-28q-32 1-54 22-63-22-119-22-31 0-50.5 22T62 466q0 70 75 76l102 7v23q0 31-12.5 44T187 629l-104-7-2 29q69 8 109 8t60-20.5 20-67.5zM95 464q0-47 40-47t88 13l16 5v85l-97-6q-25-1-36-13t-11-37z" glyph-name="ordfeminine" unicode="ª" horiz-adv-x="366"/><glyph d="M215 360L80 254l135-117V96L48 234v36l167 129v-39zm207 0L287 254l135-117V96L255 234v36l167 129v-39z" glyph-name="guillemotleft" unicode="«" horiz-adv-x="497"/><glyph d="M71 332h422V126h-36v172H71v34z" glyph-name="logicalnot" unicode="¬"/><glyph d="M68 434q0 111 73 188.5T323 700t182.5-77.5T579 434t-73.5-188T323 169t-182 77-73 188zm32 0q0-98 63.5-165.5T323 201t160 67.5T547 434t-64 166-160 68-159.5-68T100 434zm153-32V286h-32v295h93q59 0 86-20t27-69q0-72-59-87l65-119h-35l-66 116h-79zm0 148V433h80q34 0 48 13t14 46-19 45.5-61 12.5h-62z" glyph-name="registered" unicode="®" horiz-adv-x="647"/><glyph d="M-20 642v32h267v-32H-20z" glyph-name="macron" unicode="¯" horiz-adv-x="215"/><glyph d="M144 573q0 61 37.5 98.5T280 709t98.5-37.5T416 573t-37.5-98-98.5-37-98.5 37-37.5 98zm34 0q0-47 28-75t74.5-28 75 28.5 28.5 75-29 75-75 28.5-74-28.5-28-75.5z" glyph-name="degree" unicode="°"/><glyph d="M59 308v34h202v138h36V342h204v-34H297V164h-36v144H59zm0-224h442V50H59v34z" glyph-name="plusminus" unicode="±"/><glyph d="M230 478H36v31l98 107q33 35 43.5 57.5t10.5 45-16 35.5-36 13q-35 0-80-7l-15-3-2 29q51 13 93 13 91 0 91-85 0-33-14.5-58.5T159 594l-80-83h151v-33z" glyph-name="twosuperior" unicode="²" horiz-adv-x="280"/><glyph d="M41 788q53 11 100 11t69.5-19 22.5-52.5-11-52.5q-18-29-35-32 29-8 42-24.5t13-56.5q0-93-98-93-48 0-91 8l-16 3 3 31q54-9 95-9t56.5 16 15.5 43q0 62-60 62H82v33h65q18 0 34.5 19t16.5 44q0 47-58 47-46 0-82-6l-14-3z" glyph-name="threesuperior" unicode="³" horiz-adv-x="280"/><glyph d="M40 636l192 96 16-31-193-92z" glyph-name="acute" unicode="´" horiz-adv-x="268"/><glyph d="M426 500h35V0h-35v40q-9-5-24-13.5t-58.5-22T262-9q-96 0-129 45v-266H98v730h35V242q0-132 24-175.5T262 23q40 0 81 12.5T405 60l21 13v427z" glyph-name="mu" unicode="µ"/><glyph d="M421 0v667H269V0h-36v350h-7q-79 0-132.5 48.5T40 524t53.5 126.5T226 700h328v-33h-97V0h-36z" glyph-name="paragraph" unicode="¶" horiz-adv-x="589"/><glyph d="M76 270v80h40v-80H76z" glyph-name="periodcentered" unicode="·" horiz-adv-x="191"/><glyph d="M213-127q0-74-82-74l-81 4 2 28q44-4 78-4 48 0 48 46 0 42-48 42H76V1h33v-58q56 0 80-15t24-55z" glyph-name="cedilla" unicode="¸" horiz-adv-x="263"/><glyph d="M180 790V478h-35v273l-82-56-17 28 99 67h35z" glyph-name="onesuperior" unicode="¹" horiz-adv-x="280"/><glyph d="M177 659q58 0 85.5-32.5T290 524q0-138-113-138-115 0-115 136.5T177 659zm0-241q43 0 61 24.5t18 81.5-18 80-61 23-62-23.5-19-80 19-81 62-24.5z" glyph-name="ordmasculine" unicode="º" horiz-adv-x="353"/><glyph d="M417 254L282 360v39l167-129v-36L282 96v41zm-207 0L75 360v39l167-129v-36L75 96v41z" glyph-name="guillemotright" unicode="»" horiz-adv-x="497"/><glyph d="M183 790V478h-35v273l-82-56-17 28 99 67h35zM39 28l392 631 30-19L69 10zm375-128v57H268v31l89 224h38L308-10h106v88h36v-88h37v-33h-37v-57h-36z" glyph-name="onequarter" unicode="¼" horiz-adv-x="525"/><glyph d="M190 790V478h-35v273l-82-56-17 28 99 67h35zM36 28l392 631 30-19L66 10zm433-128H275v31l98 107q33 35 43.5 57.5t10.5 45-16 35.5-36 13q-35 0-80-7l-15-3-2 29q51 13 93 13 91 0 91-85 0-33-14.5-58.5T398 16l-80-83h151v-33z" glyph-name="onehalf" unicode="½" horiz-adv-x="520"/><glyph d="M58 28l392 631 30-19L88 10zm4 760q53 11 100 11t69.5-19 22.5-52.5-11-52.5q-15-25-35-32 29-8 42-25t13-56q0-93-98-93-48 0-91 8l-16 3 3 31q54-9 95-9t56.5 16 15.5 43q0 62-60 62h-65v33h65q18 0 34.5 19t16.5 44q0 47-58 47-46 0-82-6l-14-3zm371-888v57H287v31l89 224h38L327-10h106v88h36v-88h37v-33h-37v-57h-36z" glyph-name="threequarters" unicode="¾" horiz-adv-x="543"/><glyph d="M43-50q0 61 18.5 93.5t68 76 65 58.5 31.5 42 16 53v38h34q1-22 1-43t-8-42.5-27-43.5q-30-34-79-78T96 30 78-50q0-69 40.5-97T243-175q43 0 131 21l30 7 5-34q-112-27-166-27-99 0-149.5 36.5T43-50zm236 550v-80h-40v80h40z" glyph-name="questiondown" unicode="¿" horiz-adv-x="447"/><glyph d="M28 0l215 700h106L564 0h-36l-65 215H129L64 0H28zm240 666L140 249h312L324 666h-56zm-75 256l192-96-15-27-193 92z" glyph-name="Agrave" unicode="À" horiz-adv-x="592"/><glyph d="M28 0l215 700h106L564 0h-36l-65 215H129L64 0H28zm240 666L140 249h312L324 666h-56zm-66 160l192 96 16-31-193-92z" glyph-name="Aacute" unicode="Á" horiz-adv-x="592"/><glyph d="M28 0l215 700h106L564 0h-36l-65 215H129L64 0H28zm240 666L140 249h312L324 666h-56zM146 809l134 125h30l134-125h-45l-104 96-103-96h-46z" glyph-name="Acircumflex" unicode="Â" horiz-adv-x="592"/><glyph d="M28 0l215 700h106L564 0h-36l-65 215H129L64 0H28zm240 666L140 249h312L324 666h-56zm179 219q-39-52-66-52t-87.5 30-72.5 30q-22 0-58-39l-12-13-10 29q44 54 77 54 23 0 83.5-29.5T374 865q18 0 51 36l11 12z" glyph-name="Atilde" unicode="Ã" horiz-adv-x="592"/><glyph d="M28 0l215 700h106L564 0h-36l-65 215H129L64 0H28zm240 666L140 249h312L324 666h-56zm-88 172v62h35v-62h-35zm196 0v62h35v-62h-35z" glyph-name="Adieresis" unicode="Ä" horiz-adv-x="592"/><glyph d="M364.5 826.5q26.5-24.5 26.5-71T354 683L564 0h-36l-65 215H129L64 0H28l209 681q-40 24-40 72.5t26.5 73T294 851t70.5-24.5zM268 666L140 249h312L324 666h-56zm-38 93q0-48 40-59h47q41 11 41 59 0 30-17 46t-47 16-47-16-17-46z" glyph-name="Aring" unicode="Å" horiz-adv-x="592"/><glyph d="M419 0v215H143L65 0H25l251 700h552v-34H455V378h313v-34H455V34h373V0H419zm0 249v417H304L155 249h264z" glyph-name="AE" unicode="Æ" horiz-adv-x="879"/><glyph d="M431-127q0-74-82-74l-81 4 2 28q44-4 78-4 48 0 48 46 0 42-48 42h-54v77Q186-2 133 59q-48 56-61 169-5 51-5 120.5T72.5 469t21 99 42.5 77q60 64 180 64 88 0 185-19l-3-35q-96 20-166.5 20T222 659t-61.5-41.5-35-70T109 458t-4-111 4-111 17-88 36-68q51-55 154-55 78 0 182 20l3-34Q411-8 327-9v-48q56 0 80-15t24-55z" glyph-name="Ccedilla" unicode="Ç" horiz-adv-x="545"/><glyph d="M92 0v700h409v-34H128V375h313v-34H128V34h373V0H92zm113 922l192-96-15-27-193 92z" glyph-name="Egrave" unicode="È" horiz-adv-x="552"/><glyph d="M92 0v700h409v-34H128V375h313v-34H128V34h373V0H92zm100 826l192 96 16-31-193-92z" glyph-name="Eacute" unicode="É" horiz-adv-x="552"/><glyph d="M92 0v700h409v-34H128V375h313v-34H128V34h373V0H92zm50 809l134 125h30l134-125h-45l-104 96-103-96h-46z" glyph-name="Ecircumflex" unicode="Ê" horiz-adv-x="552"/><glyph d="M92 0v700h409v-34H128V375h313v-34H128V34h373V0H92zm88 838v62h35v-62h-35zm196 0v62h35v-62h-35z" glyph-name="Edieresis" unicode="Ë" horiz-adv-x="552"/><glyph d="M92 0v700h36V0H92zM-2 922l192-96-15-27-193 92z" glyph-name="Igrave" unicode="Ì" horiz-adv-x="220"/><glyph d="M92 0v700h36V0H92zM17 826l192 96 16-31-193-92z" glyph-name="Iacute" unicode="Í" horiz-adv-x="220"/><glyph d="M92 0v700h36V0H92zM-45 809L89 934h30l134-125h-45l-104 96L1 809h-46z" glyph-name="Icircumflex" unicode="Î" horiz-adv-x="220"/><glyph d="M92 0v700h36V0H92zM-6 838v62h35v-62H-6zm196 0v62h35v-62h-35z" glyph-name="Idieresis" unicode="Ï" horiz-adv-x="220"/><glyph d="M17 334v34h77v332h260q64 0 110.5-28t73.5-77q50-93 50-235 0-141-51-245-26-53-73-84T354 0H94v334H17zm533 26q0 60-10 111.5t-31.5 97-61 71.5-93.5 26H130V368h177v-34H130V34h224q54 0 93.5 29t61 78.5 31.5 104T550 360z" glyph-name="Eth" unicode="Ð" horiz-adv-x="651"/><glyph d="M92 0v700h85L510 34h27v666h36V0h-85L154 666h-26V0H92zm393 885q-39-52-66-52t-87.5 30-72.5 30q-22 0-58-39l-12-13-10 29q44 54 77 54 23 0 83.5-29.5T412 865q18 0 51 36l11 12z" glyph-name="Ntilde" unicode="Ñ" horiz-adv-x="665"/><glyph d="M216 45q46-20 117.5-20t117 18.5 70 61T554 203t9 144q0 168-48.5 248T333 675q-139 0-187-87-24-44-33.5-100.5t-9.5-141 9-139.5 33.5-98.5T216 45zm-98 37q-30 48-41.5 110.5T65 347q0 184 58 273t210 89 210-88.5T601 344 544.5 73.5 331-9 118 82zm124 840l192-96-15-27-193 92z" glyph-name="Ograve" unicode="Ò" horiz-adv-x="666"/><glyph d="M216 45q46-20 117.5-20t117 18.5 70 61T554 203t9 144q0 168-48.5 248T333 675q-139 0-187-87-24-44-33.5-100.5t-9.5-141 9-139.5 33.5-98.5T216 45zm-98 37q-30 48-41.5 110.5T65 347q0 184 58 273t210 89 210-88.5T601 344 544.5 73.5 331-9 118 82zm101 744l192 96 16-31-193-92z" glyph-name="Oacute" unicode="Ó" horiz-adv-x="666"/><glyph d="M216 45q46-20 117.5-20t117 18.5 70 61T554 203t9 144q0 168-48.5 248T333 675q-139 0-187-87-24-44-33.5-100.5t-9.5-141 9-139.5 33.5-98.5T216 45zm-98 37q-30 48-41.5 110.5T65 347q0 184 58 273t210 89 210-88.5T601 344 544.5 73.5 331-9 118 82zm66 727l134 125h30l134-125h-45l-104 96-103-96h-46z" glyph-name="Ocircumflex" unicode="Ô" horiz-adv-x="666"/><glyph d="M216 45q46-20 117.5-20t117 18.5 70 61T554 203t9 144q0 168-48.5 248T333 675q-139 0-187-87-24-44-33.5-100.5t-9.5-141 9-139.5 33.5-98.5T216 45zm-98 37q-30 48-41.5 110.5T65 347q0 184 58 273t210 89 210-88.5T601 344 544.5 73.5 331-9 118 82zm364 803q-39-52-66-52t-87.5 30-72.5 30q-22 0-58-39l-12-13-10 29q44 54 77 54 23 0 83.5-29.5T408 865q21 0 52 36l11 12z" glyph-name="Otilde" unicode="Õ" horiz-adv-x="666"/><glyph d="M216 45q46-20 117.5-20t117 18.5 70 61T554 203t9 144q0 168-48.5 248T333 675q-139 0-187-87-24-44-33.5-100.5t-9.5-141 9-139.5 33.5-98.5T216 45zm-98 37q-30 48-41.5 110.5T65 347q0 184 58 273t210 89 210-88.5T601 344 544.5 73.5 331-9 118 82zm100 756v62h35v-62h-35zm196 0v62h35v-62h-35z" glyph-name="Odieresis" unicode="Ö" horiz-adv-x="666"/><glyph d="M105 450l175-176 175 176 24-24-176-175L479 76l-24-24-175 176L105 52 81 76l176 175L81 426z" glyph-name="multiply" unicode="×"/><glyph d="M333-9q-80 0-134 23l-58-123-30 11 59 127q-59 39-82 116T65 347q0 184 58 273t210 89q86 0 142-29l53 112 30-12-55-118q54-41 76-118.5T601 347q0-191-56.5-273.5T333-9zM112.5 487.5q-9.5-56.5-9.5-155T121 166t65-103l274 584q-50 28-123.5 28T217 654t-70.5-65.5-34-101zM214 46q46-21 118.5-21t118 18.5 70 61T554 203t9 144q0 212-77 280z" glyph-name="Oslash" unicode="Ø" horiz-adv-x="666"/><glyph d="M124 196q0-91 49-131t144.5-40 146 39.5T514 196v504h36V196q0-109-59.5-157t-173-48T146 39 88 196v504h36V196zm102 726l192-96-15-27-193 92z" glyph-name="Ugrave" unicode="Ù" horiz-adv-x="638"/><glyph d="M124 196q0-91 49-131t144.5-40 146 39.5T514 196v504h36V196q0-109-59.5-157t-173-48T146 39 88 196v504h36V196zm91 630l192 96 16-31-193-92z" glyph-name="Uacute" unicode="Ú" horiz-adv-x="638"/><glyph d="M124 196q0-91 49-131t144.5-40 146 39.5T514 196v504h36V196q0-109-59.5-157t-173-48T146 39 88 196v504h36V196zm45 613l134 125h30l134-125h-45l-104 96-103-96h-46z" glyph-name="Ucircumflex" unicode="Û" horiz-adv-x="638"/><glyph d="M124 196q0-91 49-131t144.5-40 146 39.5T514 196v504h36V196q0-109-59.5-157t-173-48T146 39 88 196v504h36V196zm80 642v62h35v-62h-35zm196 0v62h35v-62h-35z" glyph-name="Udieresis" unicode="Ü" horiz-adv-x="638"/><glyph d="M281 0h-36v301L17 700h42l204-359 204 359h42L281 301V0zm-91 826l192 96 16-31-193-92z" glyph-name="Yacute" unicode="Ý" horiz-adv-x="526"/><glyph d="M347 169q169 0 169 198 0 92-39.5 134.5T347 544H128V169h219zm0-34H128V0H92v700h36V578h219q108 0 157.5-51T554 367q0-232-207-232z" glyph-name="Thorn" unicode="Þ" horiz-adv-x="601"/><glyph d="M114 0H79v561q0 100 39.5 139T252 739t131.5-32T421 603q0-52-16.5-82t-55-47.5-50-26.5-11.5-25 17-29.5 80.5-46.5 92-66.5T506 186q0-103-46-149T306-9q-35 0-95 7l-20 3 2 33q77-9 113-9 90 0 126 37.5T468 181q0 53-24.5 81t-90 61.5-84 51.5-18.5 46 17.5 43.5 54 32.5 48.5 40 12 73-29 72.5T250.5 705 145 673.5 114 548V0z" glyph-name="germandbls" unicode="ß" horiz-adv-x="549"/><glyph d="M411 353V65q4-36 75-42l-2-31q-73 0-103 42Q279-9 179-9q-62 0-96.5 37T48 133.5 81 238t105 43l190 20v52q0 64-27.5 93T265 475q-57 0-158-13l-31-4-3 33q112 18 192 18 146 0 146-156zM109 217q-24-27-24-81t24.5-83.5T178 23t93 10.5T348 54l28 10v205l-186-19q-57-6-81-33zm40 515l192-96-15-27-193 92z" glyph-name="agrave" unicode="à" horiz-adv-x="495"/><glyph d="M411 353V65q4-36 75-42l-2-31q-73 0-103 42Q279-9 179-9q-62 0-96.5 37T48 133.5 81 238t105 43l190 20v52q0 64-27.5 93T265 475q-57 0-158-13l-31-4-3 33q112 18 192 18 146 0 146-156zM109 217q-24-27-24-81t24.5-83.5T178 23t93 10.5T348 54l28 10v205l-186-19q-57-6-81-33zm23 419l192 96 16-31-193-92z" glyph-name="aacute" unicode="á" horiz-adv-x="495"/><glyph d="M411 353V65q4-36 75-42l-2-31q-73 0-103 42Q279-9 179-9q-62 0-96.5 37T48 133.5 81 238t105 43l190 20v52q0 64-27.5 93T265 475q-57 0-158-13l-31-4-3 33q112 18 192 18 146 0 146-156zM109 217q-24-27-24-81t24.5-83.5T178 23t93 10.5T348 54l28 10v205l-186-19q-57-6-81-33zm-6 383l121 132h28l122-132h-43l-92 100-93-100h-43z" glyph-name="acircumflex" unicode="â" horiz-adv-x="495"/><glyph d="M411 353V65q4-36 75-42l-2-31q-73 0-103 42Q279-9 179-9q-62 0-96.5 37T48 133.5 81 238t105 43l190 20v52q0 64-27.5 93T265 475q-57 0-158-13l-31-4-3 33q112 18 192 18 146 0 146-156zM109 217q-24-27-24-81t24.5-83.5T178 23t93 10.5T348 54l28 10v205l-186-19q-57-6-81-33zm283 456q-42-43-68-43t-81.5 27-67.5 27q-22 0-60-34l-13-11-10 29q49 47 82 47 21 0 76.5-26.5T318 662q20 0 54 30l11 11z" glyph-name="atilde" unicode="ã" horiz-adv-x="495"/><glyph d="M411 353V65q4-36 75-42l-2-31q-73 0-103 42Q279-9 179-9q-62 0-96.5 37T48 133.5 81 238t105 43l190 20v52q0 64-27.5 93T265 475q-57 0-158-13l-31-4-3 33q112 18 192 18 146 0 146-156zM109 217q-24-27-24-81t24.5-83.5T178 23t93 10.5T348 54l28 10v205l-186-19q-57-6-81-33zm23 421v62h35v-62h-35zm190 0v62h35v-62h-35z" glyph-name="adieresis" unicode="ä" horiz-adv-x="495"/><glyph d="M411 353V65q4-36 75-42l-2-31q-73 0-103 42Q279-9 179-9q-62 0-96.5 37T48 133.5 81 238t105 43l190 20v52q0 64-27.5 93T265 475q-57 0-158-13l-31-4-3 33q112 18 192 18 146 0 146-156zM109 217q-24-27-24-81t24.5-83.5T178 23t93 10.5T348 54l28 10v205l-186-19q-57-6-81-33zm44 433q0 40 28 67.5t68 27.5 67-27.5 27-67.5-27-67.5-67.5-27.5-68 27.5T153 650zm34 0q0-26 18-45t43.5-19 43.5 19 18 45-18 44.5-43.5 18.5-43.5-18.5-18-44.5z" glyph-name="aring" unicode="å" horiz-adv-x="495"/><glyph d="M715 30l30 2 2-32Q635-9 562-9q-98 0-143 58l-38-16Q288-9 175-9 48-9 48 137q0 80 39 107.5T233 286l143 15v52q0 64-27.5 93T265 475q-51 0-157-7l-31-2-2 33q110 10 190 10 115 0 139-96 49 96 172 96 95 0 142.5-57T766 269v-33H411q0-108 34-160.5T558 23t157 7zM109 52.5Q133 23 175.5 23T273 35q77 17 131 39-30 59-30 194l-184-18q-55-5-80-32t-25-81.5 24-84zM411 268h318q0 113-36.5 161T576 477q-165 0-165-209z" glyph-name="ae" unicode="æ" horiz-adv-x="818"/><glyph d="M348-127q0-74-82-74l-81 4 2 28q44-4 78-4 48 0 48 46 0 42-48 42h-54v79Q122 5 91 64T60 261t46 193 159 55l120-10-2-32q-80 10-118 10-95 0-131.5-48T97 253.5t33-179T265 23l120 9 2-32q-84-9-110-9t-33 1v-49q56 0 80-15t24-55z" glyph-name="ccedilla" unicode="ç" horiz-adv-x="429"/><glyph d="M399 30l30 2 2-32Q319-9 246-9 140-8 99 55.5T58 250q0 259 202 259 95 0 142.5-57T450 269v-33H95q0-108 34-160.5T242 23t157 7zM95 268h318q0 113-36.5 161T260 477Q95 477 95 268zm49 465l192-96-15-27-193 92z" glyph-name="egrave" unicode="è" horiz-adv-x="502"/><glyph d="M399 30l30 2 2-32Q319-9 246-9 140-8 99 55.5T58 250q0 259 202 259 95 0 142.5-57T450 269v-33H95q0-108 34-160.5T242 23t157 7zM95 268h318q0 113-36.5 161T260 477Q95 477 95 268zm76 368l192 96 16-31-193-92z" glyph-name="eacute" unicode="é" horiz-adv-x="502"/><glyph d="M399 30l30 2 2-32Q319-9 246-9 140-8 99 55.5T58 250q0 259 202 259 95 0 142.5-57T450 269v-33H95q0-108 34-160.5T242 23t157 7zM95 268h318q0 113-36.5 161T260 477Q95 477 95 268zm33 332l121 132h28l122-132h-43l-92 100-93-100h-43z" glyph-name="ecircumflex" unicode="ê" horiz-adv-x="502"/><glyph d="M399 30l30 2 2-32Q319-9 246-9 140-8 99 55.5T58 250q0 259 202 259 95 0 142.5-57T450 269v-33H95q0-108 34-160.5T242 23t157 7zM95 268h318q0 113-36.5 161T260 477Q95 477 95 268zm49 370v62h35v-62h-35zm190 0v62h35v-62h-35z" glyph-name="edieresis" unicode="ë" horiz-adv-x="502"/><glyph d="M79 0v500h35V0H79zM-44 732l192-96-15-27-193 92z" glyph-name="igrave" unicode="ì" horiz-adv-x="193"/><glyph d="M43 636l192 96 16-31-193-92zm36-136h35V0H79v500z" glyph-name="iacute" unicode="í" horiz-adv-x="193"/><glyph d="M79 500h35V0H79v500zM-39 600L82 732h28l122-132h-43L97 700 4 600h-43z" glyph-name="icircumflex" unicode="î" horiz-adv-x="193"/><glyph d="M79 500h35V0H79v500zm-98 138v62h35v-62h-35zm190 0v62h35v-62h-35z" glyph-name="idieresis" unicode="ï" horiz-adv-x="193"/><glyph d="M303 657q172-111 172-307T425.5 72.5 260-9Q159-9 102 49.5t-57 159T100 367t149 58q35 0 82-11t77-22l30-11q-5 156-167 255l-119-80-20 27 106 72q-60 31-133 53l13 31q87-26 152-63l102 69 20-27zm136-311q-116 45-191.5 45t-121-49T81 208t46.5-134 139-49 132 69T439 346z" glyph-name="eth" unicode="ð" horiz-adv-x="535"/><glyph d="M79 0v500h35v-40l24 12q25 12 69 24.5t82 12.5q100 0 132-50.5T453 260V0h-35v258q0 132-24 175.5T289 477q-40 0-92.5-16T114 427V0H79zm346 673q-42-43-68-43t-81.5 27-67.5 27q-22 0-60-34l-13-11-10 29q49 47 82 47 21 0 76.5-26.5T350 662q21 0 54 30l12 11z" glyph-name="ntilde" unicode="ñ" horiz-adv-x="527"/><glyph d="M263 509q111 0 157-56t46-202-41-203T263-9 101 48 60 251t46 202 157 56zm0-486q56 0 88.5 11.5t50 43 22.5 71 5 110.5q0 126-35 172t-131 46-131-46-35-172q0-71 5-110.5t22.5-71 50-43T263 23zm-93 709l192-96-15-27-193 92z" glyph-name="ograve" unicode="ò" horiz-adv-x="526"/><glyph d="M263 509q111 0 157-56t46-202-41-203T263-9 101 48 60 251t46 202 157 56zm0-486q56 0 88.5 11.5t50 43 22.5 71 5 110.5q0 126-35 172t-131 46-131-46-35-172q0-71 5-110.5t22.5-71 50-43T263 23zm-84 613l192 96 16-31-193-92z" glyph-name="oacute" unicode="ó" horiz-adv-x="526"/><glyph d="M263 509q111 0 157-56t46-202-41-203T263-9 101 48 60 251t46 202 157 56zm0-486q56 0 88.5 11.5t50 43 22.5 71 5 110.5q0 126-35 172t-131 46-131-46-35-172q0-71 5-110.5t22.5-71 50-43T263 23zM128 600l121 132h28l122-132h-43l-92 100-93-100h-43z" glyph-name="ocircumflex" unicode="ô" horiz-adv-x="526"/><glyph d="M263 509q111 0 157-56t46-202-41-203T263-9 101 48 60 251t46 202 157 56zm0-486q56 0 88.5 11.5t50 43 22.5 71 5 110.5q0 126-35 172t-131 46-131-46-35-172q0-71 5-110.5t22.5-71 50-43T263 23zm151 650q-42-43-68-43t-81.5 27-67.5 27q-22 0-60-34l-13-11-10 29q49 47 82 47 21 0 76.5-26.5T340 662q20 0 54 30l11 11z" glyph-name="otilde" unicode="õ" horiz-adv-x="526"/><glyph d="M263 509q111 0 157-56t46-202-41-203T263-9 101 48 60 251t46 202 157 56zm0-486q56 0 88.5 11.5t50 43 22.5 71 5 110.5q0 126-35 172t-131 46-131-46-35-172q0-71 5-110.5t22.5-71 50-43T263 23zM146 638v62h35v-62h-35zm190 0v62h35v-62h-35z" glyph-name="odieresis" unicode="ö" horiz-adv-x="526"/><glyph d="M58 234v34h444v-34H58zm203 149v80h38v-80h-38zm0-344v80h38V39h-38z" glyph-name="divide" unicode="÷"/><glyph d="M263 509q53 0 86-11l44 107 30-11-45-107q46-25 67-79.5T466 259q0-154-41-211T263-9q-49 0-84 9l-46-114-30 10L149 9Q98 32 79 89.5T60 272t46 181 157 56zm0-32q-96 0-131-46T97 272t13-162.5T163 40l174 428q-30 9-74 9zM191 30q27-7 77.5-7t83 11.5 50 43 22.5 71 5 117T415 389t-49 67z" glyph-name="oslash" unicode="ø" horiz-adv-x="526"/><glyph d="M402 500h35V0h-35v40q-9-5-24-13.5t-58.5-22T238-9Q138-9 106 41.5T74 240v260h35V242q0-132 24-175.5T238 23q40 0 81 12.5T381 60l21 13v427zM141 732l192-96-15-27-193 92z" glyph-name="ugrave" unicode="ù" horiz-adv-x="516"/><glyph d="M437 500V0h-35v40l-22-12q-22-13-63-25T238-9Q138-9 106 41.5T74 240v260h35V242q0-132 24-175.5T238 23q40 0 90.5 16.5T402 73v427h35zM172 636l192 96 16-31-193-92z" glyph-name="uacute" unicode="ú" horiz-adv-x="516"/><glyph d="M437 500V0h-35v40l-22-12q-22-13-63-25T238-9Q138-9 106 41.5T74 240v260h35V242q0-132 24-175.5T238 23q40 0 90.5 16.5T402 73v427h35zM121 600l121 132h28l122-132h-43l-92 100-93-100h-43z" glyph-name="ucircumflex" unicode="û" horiz-adv-x="516"/><glyph d="M437 500V0h-35v40l-22-12q-22-13-63-25T238-9Q138-9 106 41.5T74 240v260h35V242q0-132 24-175.5T238 23q40 0 90.5 16.5T402 73v427h35zM149 638v62h35v-62h-35zm190 0v62h35v-62h-35z" glyph-name="udieresis" unicode="ü" horiz-adv-x="516"/><glyph d="M31 500h37L215 32h41l148 468h37L212-230h-37L247 0h-61zm144 136l192 96 16-31-193-92z" glyph-name="yacute" unicode="ý" horiz-adv-x="471"/><glyph d="M114 29q78-6 126.5-6t87 13.5T386 82t26.5 72 6.5 105q0 119-26.5 168.5T286 477q-40 0-83-10t-66-20l-23-10V29zm0 440q83 40 177 40t129.5-56.5T456 255 409 52.5 228-9L114-3v-227H79v960h35V469z" glyph-name="thorn" unicode="þ" horiz-adv-x="515"/><glyph d="M31 500h37L215 32h41l148 468h37L212-230h-37L247 0h-61zm90 138v62h35v-62h-35zm190 0v62h35v-62h-35z" glyph-name="ydieresis" unicode="ÿ" horiz-adv-x="471"/><glyph d="M28 0l215 700h106L564 0h-36l-65 215H129L64 0H28zm240 666L140 249h312L324 666h-56zM153 832v32h287v-32H153z" glyph-name="Amacron" unicode="Ā" horiz-adv-x="592"/><glyph d="M411 353V65q4-36 75-42l-2-31q-73 0-103 42Q279-9 179-9q-62 0-96.5 37T48 133.5 81 238t105 43l190 20v52q0 64-27.5 93T265 475q-57 0-158-13l-31-4-3 33q112 18 192 18 146 0 146-156zM109 217q-24-27-24-81t24.5-83.5T178 23t93 10.5T348 54l28 10v205l-186-19q-57-6-81-33zm6 425v32h267v-32H115z" glyph-name="amacron" unicode="ā" horiz-adv-x="495"/><glyph d="M28 0l215 700h106L564 0h-36l-65 215H129L64 0H28zm240 666L140 249h312L324 666h-56zM157 924h35q0-40 30-63.5t73-23.5 73 23.5 30 63.5h35q0-54-40-86.5T295 805t-98 32.5-40 86.5z" glyph-name="Abreve" unicode="Ă" horiz-adv-x="592"/><glyph d="M411 353V66q4-36 75-42l-2-32q-75 0-103 40l-27-10q-26-10-77.5-20.5T170-9 81.5 28.5 48 134t32.5 104T186 281l190 20v52q0 64-27.5 93t-92 29T76 458l-3 33 30 5q90 13 162 13 146 0 146-156zM176 23q99 0 200 40v205l-186-18Q85 239 85 137q0-54 24.5-84T176 23zm-62 700h35q0-42 27.5-69t75.5-27 75.5 27 27.5 69h35q0-56-38-92t-100-36-100 36-38 92z" glyph-name="abreve" unicode="ă" horiz-adv-x="497"/><glyph d="M516.5-52.5Q482-96 482-116.5t13-35 34-14.5l56 7 4-33q-36-8-67.5-8t-54 22-22.5 61.5T526 4l-63 211H129L64 0H28l215 700h106L564 0h-2q-11-9-45.5-52.5zM268 666L140 249h312L324 666h-56z" glyph-name="Aogonek" unicode="Ą" horiz-adv-x="592"/><glyph d="M411 353V65q4-36 75-42l-2-31q-11 0-31 2-74-83-74-107t13-38.5 34-14.5l56 7 4-33q-36-8-67.5-8t-54 22-22.5 54.5T372-53t49 55q-26 12-40 32Q279-9 179-9q-62 0-96.5 37T48 133.5 81 238t105 43l190 20v52q0 64-27.5 93T265 475q-57 0-158-13l-31-4-3 33q112 18 192 18 146 0 146-156zM109 217q-24-27-24-81t24.5-83.5T178 23t93 10.5T348 54l28 10v205l-186-19q-57-6-81-33z" glyph-name="aogonek" unicode="ą" horiz-adv-x="494"/><glyph d="M501 11Q401-9 320.5-9t-130 23.5T114 87 77 197 67 338t5.5 131 21 99 42.5 77q60 64 180 64 88 0 185-19l-3-35q-96 20-166.5 20T222 659t-61.5-41.5-35-70T109 458t-4-111 4-111 17-88 36-68q51-55 154-55 78 0 182 20zM205 826l192 96 16-31-193-92z" glyph-name="Cacute" unicode="Ć" horiz-adv-x="545"/><glyph d="M265 477q-95 0-131.5-48T97 253.5t33-179T265 23l120 9 2-32q-84-9-122-9-122 0-163.5 57.5T60 252.5 106 454t159 55l120-10-2-32q-80 10-118 10zM146 636l192 96 16-31-193-92z" glyph-name="cacute" unicode="ć" horiz-adv-x="429"/><glyph d="M501 11Q401-9 320.5-9t-130 23.5T114 87 77 197 67 338t5.5 131 21 99 42.5 77q60 64 180 64 88 0 185-19l-3-35q-96 20-166.5 20T222 659t-61.5-41.5-35-70T109 458t-4-111 4-111 17-88 36-68q51-55 154-55 78 0 182 20zM169 809l134 125h30l134-125h-45l-104 96-103-96h-46z" glyph-name="Ccircumflex" unicode="Ĉ" horiz-adv-x="545"/><glyph d="M265 477q-95 0-131.5-48T97 253.5t33-179T265 23l120 9 2-32q-84-9-122-9-122 0-163.5 57.5T60 252.5 106 454t159 55l120-10-2-32q-80 10-118 10zM103 600l121 132h28l122-132h-43l-92 100-93-100h-43z" glyph-name="ccircumflex" unicode="ĉ" horiz-adv-x="429"/><glyph d="M501 11Q401-9 320.5-9t-130 23.5T114 87 77 197 67 338t5.5 131 21 99 42.5 77q60 64 180 64 88 0 185-19l-3-35q-96 20-166.5 20T222 659t-61.5-41.5-35-70T109 458t-4-111 4-111 17-88 36-68q51-55 154-55 78 0 182 20zM279 823v55h35v-55h-35z" glyph-name="Cdotaccent" unicode="Ċ" horiz-adv-x="545"/><glyph d="M265 477q-95 0-131.5-48T97 253.5t33-179T265 23l120 9 2-32q-84-9-122-9-122 0-163.5 57.5T60 252.5 106 454t159 55l120-10-2-32q-80 10-118 10zm-35 168v55h35v-55h-35z" glyph-name="cdotaccent" unicode="ċ" horiz-adv-x="429"/><glyph d="M501 11Q401-9 320.5-9t-130 23.5T114 87 77 197 67 338t5.5 131 21 99 42.5 77q60 64 180 64 88 0 185-19l-3-35q-96 20-166.5 20T222 659t-61.5-41.5-35-70T109 458t-4-111 4-111 17-88 36-68q51-55 154-55 78 0 182 20zM285 809L151 934h45l104-96 103 96h46L315 809h-30z" glyph-name="Ccaron" unicode="Č" horiz-adv-x="545"/><glyph d="M265 477q-95 0-131.5-48T97 253.5t33-179T265 23l120 9 2-32q-84-9-122-9-122 0-163.5 57.5T60 252.5 106 454t159 55l120-10-2-32q-80 10-118 10zm-41 123L103 732h42l94-99 93 99h42L252 600h-28z" glyph-name="ccaron" unicode="č" horiz-adv-x="429"/><glyph d="M352 0H92v700h260q64 0 110.5-28t73-77.5 38.5-108T586 358t-12.5-131T535 113.5t-73-83T352 0zm186 243.5Q548 298 548 369t-16.5 136.5-62.5 113T352 666H128V34h224q54 0 93.5 29t61 77.5 31.5 103zM273 809L139 934h45l104-96 103 96h46L303 809h-30z" glyph-name="Dcaron" unicode="Ď" horiz-adv-x="649"/><glyph d="M537 687h37l-46-189h-28zm-101 43V0h-35v42q-29-19-81-35T235.5-9t-50 2.5-43.5 16T99.5 48t-29 75T58 242q0 136 46.5 201.5T269 509q57 0 132-12v233h35zM182.5 29.5Q202 23 234 23t75.5 13T377 62l24 13v390q-78 12-132 12-101 0-137.5-57T95 242q0-144 46-186 22-20 41.5-26.5z" glyph-name="dcaron" unicode="ď" horiz-adv-x="515"/><glyph d="M17 334v34h77v332h260q64 0 110.5-28t73.5-77q50-93 50-235 0-141-51-245-26-53-73-84T354 0H94v334H17zm533 26q0 60-10 111.5t-31.5 97-61 71.5-93.5 26H130V368h177v-34H130V34h224q54 0 93.5 29t61 78.5 31.5 104T550 360z" glyph-name="Dcroat" unicode="Đ" horiz-adv-x="651"/><glyph d="M436 730v-76h59v-32h-59V0h-35v42q-29-19-81-35T235.5-9t-50 2.5-43.5 16T99.5 48t-29 75T58 242q0 136 46.5 201.5T269 509q57 0 132-12v125H228v32h173v76h35zM182.5 29.5Q202 23 234 23t75.5 13T377 62l24 13v390q-78 12-132 12-101 0-137.5-57T95 242q0-144 46-186 22-20 41.5-26.5z" glyph-name="dcroat" unicode="đ" horiz-adv-x="515"/><glyph d="M92 0v700h409v-34H128V375h313v-34H128V34h373V0H92zm60 832v32h287v-32H152z" glyph-name="Emacron" unicode="Ē" horiz-adv-x="552"/><glyph d="M399 30l30 2 2-32Q319-9 246-9 140-8 99 55.5T58 250q0 259 202 259 95 0 142.5-57T450 269v-33H95q0-108 34-160.5T242 23t157 7zM95 268h318q0 113-36.5 161T260 477Q95 477 95 268zm35 374v32h267v-32H130z" glyph-name="emacron" unicode="ē" horiz-adv-x="502"/><glyph d="M92 0v700h409v-34H128V375h313v-34H128V34h373V0H92zm77 924h35q0-40 30-63.5t73-23.5 73 23.5 30 63.5h35q0-54-40-86.5T307 805t-98 32.5-40 86.5z" glyph-name="Ebreve" unicode="Ĕ" horiz-adv-x="552"/><glyph d="M399 30l30 2 2-32Q319-9 246-9 140-8 99 55.5T58 250q0 259 202 259 95 0 142.5-57T450 269v-33H95q0-108 34-160.5T242 23t157 7zM95 268h318q0 113-36.5 161T260 477Q95 477 95 268zm22 455h35q0-42 27.5-69t75.5-27 75.5 27 27.5 69h35q0-56-38-92t-100-36-100 36-38 92z" glyph-name="ebreve" unicode="ĕ" horiz-adv-x="502"/><glyph d="M92 0v700h409v-34H128V375h313v-34H128V34h373V0H92zm185 823v55h35v-55h-35z" glyph-name="Edotaccent" unicode="Ė" horiz-adv-x="552"/><glyph d="M399 30l30 2 2-32Q319-9 246-9 140-8 99 55.5T58 250q0 259 202 259 95 0 142.5-57T450 269v-33H95q0-108 34-160.5T242 23t157 7zM95 268h318q0 113-36.5 161T260 477Q95 477 95 268zm139 377v55h35v-55h-35z" glyph-name="edotaccent" unicode="ė" horiz-adv-x="502"/><glyph d="M92 0v700h409v-34H128V375h313v-34H128V34h373V0h-30q-11-9-45.5-52.5t-34.5-64 13-35 34-14.5l56 7 4-33q-36-8-67.5-8t-54 22-22.5 61.5T431 0H92z" glyph-name="Eogonek" unicode="Ę" horiz-adv-x="552"/><glyph d="M399 30l30 2 2-32q-7 0-14-1-19-19-49-57.5T338-117t13-34.5 34-14.5l56 7 4-33q-36-8-67.5-8t-54 22-22.5 61.5T374-4q-98-5-128-5Q140-8 99 55.5T58 250q0 259 202 259 95 0 142.5-57T450 269v-33H95q0-108 34-160.5T242 23t157 7zM95 268h318q0 113-36.5 161T260 477Q95 477 95 268z" glyph-name="eogonek" unicode="ę" horiz-adv-x="502"/><glyph d="M92 0v700h409v-34H128V375h313v-34H128V34h373V0H92zm191 809L149 934h45l104-96 103 96h46L313 809h-30z" glyph-name="Ecaron" unicode="Ě" horiz-adv-x="552"/><glyph d="M399 30l30 2 2-32Q319-9 246-9 140-8 99 55.5T58 250q0 259 202 259 95 0 142.5-57T450 269v-33H95q0-108 34-160.5T242 23t157 7zM95 268h318q0 113-36.5 161T260 477Q95 477 95 268zm142 332L116 732h42l94-99 93 99h42L265 600h-28z" glyph-name="ecaron" unicode="ě" horiz-adv-x="502"/><glyph d="M361 317v34h186V20Q418-5 327-5 180-5 122.5 84T65 351q0 87 11.5 149.5T116 613q56 100 211 100 89 0 189-19l31-6-3-35q-126 26-206 26t-125-22-68.5-68T112 487.5t-9-136 9.5-136T146 116q47-87 181-87 74 0 184 20v268H361zM169 804l134 125h30l134-125h-45l-104 96-103-96h-46z" glyph-name="Gcircumflex" unicode="Ĝ" horiz-adv-x="619"/><glyph d="M418.5-202.5Q368-239 251.5-239t-155 33.5T58-80q0 57 38 91 14 13 47 37-22 14-22 65 0 14 23 62l7 16q-86 28-86 152 0 167 171 167 52 0 92-10l14-3 140 3v-35H374q40-37 40-124.5T370.5 216 232 179q-30 0-54 4-23-57-23-72t2-23 8-15 23-9q31-5 117-5t125-27.5T469-81t-50.5-121.5zM94-79q0-74 31.5-101t128-27T391-178.5t41 97T402 7 290 27l-121 3q-45-31-60-52.5T94-79zm38 319q31-29 106.5-29t107 28.5T377 343t-31.5 105-107 30T132 447.5 101 343t31-103zm-12 360l121 132h28l122-132h-43l-92 100-93-100h-43z" glyph-name="gcircumflex" unicode="ĝ" horiz-adv-x="501"/><glyph d="M361 313v34h186V16Q418-9 327-9 180-9 122.5 80T65 347q0 87 11.5 149.5T116 609q56 100 211 100 89 0 189-19l31-6-3-35q-126 26-206 26t-125-22-68.5-68T112 483.5t-9-136 9.5-136T146 112q47-87 181-87 74 0 184 20v268H361zM195 924h35q0-40 30-63.5t73-23.5 73 23.5 30 63.5h35q0-54-40-86.5T333 805t-98 32.5-40 86.5z" glyph-name="Gbreve" unicode="Ğ" horiz-adv-x="619"/><glyph d="M418.5-202.5Q368-239 251.5-239t-155 33.5T58-80q0 57 38 91 14 13 47 37-22 14-22 65 0 14 23 62l7 16q-86 28-86 152 0 167 171 167 52 0 92-10l14-3 140 3v-35H374q40-37 40-124.5T370.5 216 232 179q-30 0-54 4-23-57-23-72t2-23 8-15 23-9q31-5 117-5t125-27.5T469-81t-50.5-121.5zM94-79q0-74 31.5-101t128-27T391-178.5t41 97T402 7 290 27l-121 3q-45-31-60-52.5T94-79zm38 319q31-29 106.5-29t107 28.5T377 343t-31.5 105-107 30T132 447.5 101 343t31-103zm-15 483h35q0-42 27.5-69t75.5-27 75.5 27 27.5 69h35q0-56-38-92t-100-36-100 36-38 92z" glyph-name="gbreve" unicode="ğ" horiz-adv-x="501"/><glyph d="M361 313v34h186V16Q418-9 327-9 180-9 122.5 80T65 347q0 87 11.5 149.5T116 609q56 100 211 100 89 0 189-19l31-6-3-35q-126 26-206 26t-125-22-68.5-68T112 483.5t-9-136 9.5-136T146 112q47-87 181-87 74 0 184 20v268H361zm-65 510v55h35v-55h-35z" glyph-name="Gdotaccent" unicode="Ġ" horiz-adv-x="619"/><glyph d="M418.5-202.5Q368-239 251.5-239t-155 33.5T58-80q0 57 38 91 14 13 47 37-22 14-22 65 0 14 23 62l7 16q-86 28-86 152 0 167 171 167 52 0 92-10l14-3 140 3v-35H374q40-37 40-124.5T370.5 216 232 179q-30 0-54 4-23-57-23-72t2-23 8-15 23-9q31-5 117-5t125-27.5T469-81t-50.5-121.5zM94-79q0-74 31.5-101t128-27T391-178.5t41 97T402 7 290 27l-121 3q-45-31-60-52.5T94-79zm38 319q31-29 106.5-29t107 28.5T377 343t-31.5 105-107 30T132 447.5 101 343t31-103zm105 405v55h35v-55h-35z" glyph-name="gdotaccent" unicode="ġ" horiz-adv-x="501"/><glyph d="M361 313v34h186V16Q418-9 327-9 180-9 122.5 80T65 347q0 87 11.5 149.5T116 609q56 100 211 100 89 0 189-19l31-6-3-35q-126 26-206 26t-125-22-68.5-68T112 483.5t-9-136 9.5-136T146 112q47-87 181-87 74 0 184 20v268H361zM324-78h37l-46-189h-28z" glyph-name="Gcommaaccent" unicode="Ģ" horiz-adv-x="619"/><glyph d="M281 782l-37-189h-37l46 189h28zm137.5-984.5Q368-239 251.5-239t-155 33.5T58-80q0 57 38 91 14 13 47 37-22 14-22 65 0 14 23 62l7 16q-86 28-86 152 0 167 171 167 52 0 92-10l14-3 140 3v-35H374q40-37 40-124.5T370.5 216 232 179q-30 0-54 4-23-57-23-72t2-23 8-15 23-9q31-5 117-5t125-27.5T469-81t-50.5-121.5zM94-79q0-74 31.5-101t128-27T391-178.5t41 97T402 7 290 27l-121 3q-45-31-60-52.5T94-79zm38 319q31-29 106.5-29t107 28.5T377 343t-31.5 105-107 30T132 447.5 101 343t31-103z" glyph-name="gcommaaccent" unicode="ģ" horiz-adv-x="501"/><glyph d="M546 0v334H128V0H92v700h36V368h418v332h36V0h-36zM189 809l134 125h30l134-125h-45l-104 96-103-96h-46z" glyph-name="Hcircumflex" unicode="Ĥ" horiz-adv-x="674"/><glyph d="M114 0H79v730h35V470q88 39 181 39t125-50.5T452 260V0h-35v258q0 132-24 175.5T288 477q-40 0-83.5-10T138 447l-24-10V0zm12 790l121 132h28l122-132h-43l-92 100-93-100h-43z" glyph-name="hcircumflex" unicode="ĥ" horiz-adv-x="526"/><glyph d="M12 522v32h84v146h36V554h418v146h36V554h93v-32h-93V0h-36v334H132V0H96v522H12zm120-154h418v154H132V368z" glyph-name="Hbar" unicode="Ħ" horiz-adv-x="686"/><glyph d="M8 612v32h71v86h35v-86h161v-32H114V470q88 39 181 39t125-50.5T452 260V0h-35v258q0 132-24 175.5T288 477q-40 0-83.5-10T138 447l-24-10V0H79v612H8z" glyph-name="hbar" unicode="ħ" horiz-adv-x="526"/><glyph d="M92 0v700h36V0H92zm164 885q-39-52-66-52t-87.5 30T30 893q-22 0-58-39l-12-13-10 29q44 54 77 54 23 0 83.5-29.5T182 865q21 0 52 36l11 12z" glyph-name="Itilde" unicode="Ĩ" horiz-adv-x="220"/><glyph d="M79 500h35V0H79v500zm168 173q-42-43-68-43t-81.5 27T30 684q-22 0-60-34l-13-11-10 29q49 47 82 47 21 0 76.5-26.5T172 662q21 0 54 30l12 11z" glyph-name="itilde" unicode="ĩ" horiz-adv-x="193"/><glyph d="M92 0v700h36V0H92zM-32 832v32h287v-32H-32z" glyph-name="Imacron" unicode="Ī" horiz-adv-x="220"/><glyph d="M79 500h35V0H79v500zM-37 642v32h267v-32H-37z" glyph-name="imacron" unicode="ī" horiz-adv-x="193"/><glyph d="M92 0v700h36V0H92zM-26 924H9q0-40 30-63.5t73-23.5 73 23.5 30 63.5h35q0-54-40-86.5T112 805t-98 32.5-40 86.5z" glyph-name="Ibreve" unicode="Ĭ" horiz-adv-x="220"/><glyph d="M79 500h35V0H79v500zM-41 723h35q0-42 27.5-69T97 627t75.5 27 27.5 69h35q0-56-38-92T97 595-3 631t-38 92z" glyph-name="ibreve" unicode="ĭ" horiz-adv-x="193"/><glyph d="M47-116q0-21 13-35.5T94-166l56 7 4-33q-36-8-67.5-8t-54 22T10-116.5 92 5v695h36V0Q47-84 47-116z" glyph-name="Iogonek" unicode="Į" horiz-adv-x="220"/><glyph d="M114 500V0Q33-84 33-116q0-21 13-35.5T80-166l56 7 4-33q-36-8-67.5-8t-54 22T-4-118q0 18 20 48Q44-29 79 3v497h35zM79 645v55h35v-55H79z" glyph-name="iogonek" unicode="į" horiz-adv-x="193"/><glyph d="M92 0v700h36V0H92zm1 823v55h35v-55H93z" glyph-name="Idotaccent" unicode="İ" horiz-adv-x="220"/><glyph d="M79 0v500h35V0H79z" glyph-name="dotlessi" unicode="ı" horiz-adv-x="193"/><glyph d="M191 700V81q0-78-19-107-11-17-22-26.5T116-66q-34-7-98-7v34q97 0 113 17 20 22 22 52.5t2 65.5v604h36zM23 804l134 125h30l134-125h-45l-104 96-103-96H23z" glyph-name="Jcircumflex" unicode="Ĵ" horiz-adv-x="280"/><glyph d="M79 6v494h35V5q0-85-31.5-129.5T-45-218l-14 31q86 47 112 83.5T79 6zM-43 600L78 732h28l122-132h-43L93 700 0 600h-43z" glyph-name="jcircumflex" unicode="ĵ" horiz-adv-x="193"/><glyph d="M128 329V0H92v700h36V363h129l220 337h43L289 348 536 0h-46L259 329H128zM277-78h37l-46-189h-28z" glyph-name="Kcommaaccent" unicode="Ķ" horiz-adv-x="553"/><glyph d="M173-267l37 189h37l-46-189h-28zM114 0H79v730h35V289h96l172 211h42L240 274 432 0h-42L210 257h-96V0z" glyph-name="kcommaaccent" unicode="ķ" horiz-adv-x="455"/><glyph d="M469 0H92v700h36V34h341V0zM150 826l192 96 16-31-193-92z" glyph-name="Lacute" unicode="Ĺ" horiz-adv-x="483"/><glyph d="M85 0v730h35V0H85zM59 836l192 96 16-31-193-92z" glyph-name="lacute" unicode="ĺ" horiz-adv-x="205"/><glyph d="M265-78h37l-46-189h-28zM469 0H92v700h36V34h341V0z" glyph-name="Lcommaaccent" unicode="Ļ" horiz-adv-x="483"/><glyph d="M85 0v730h35V0H85zm-6-78h37L70-267H42z" glyph-name="lcommaaccent" unicode="ļ" horiz-adv-x="205"/><glyph d="M424 700V483h-34v217h34zM469 0H92v700h36V34h341V0z" glyph-name="Lcaron" unicode="Ľ" horiz-adv-x="492"/><glyph d="M223 687h37l-46-189h-28zM85 0v730h35V0H85z" glyph-name="lcaron" unicode="ľ" horiz-adv-x="199"/><glyph d="M471 0H94v308l-66-46-19 26 85 59v353h36V373l171 120 19-26-190-134V34h341V0z" glyph-name="Lslash" unicode="Ł" horiz-adv-x="485"/><glyph d="M111 0v319l-78-54-19 27 97 68v370h35V384l81 57 19-27-100-70V0h-35z" glyph-name="lslash" unicode="ł" horiz-adv-x="263"/><glyph d="M92 0v700h85L510 34h27v666h36V0h-85L154 666h-26V0H92zm140 826l192 96 16-31-193-92z" glyph-name="Nacute" unicode="Ń" horiz-adv-x="665"/><glyph d="M79 0v500h35v-40l24 12q25 12 69 24.5t82 12.5q100 0 132-50.5T453 260V0h-35v258q0 132-24 175.5T289 477q-40 0-92.5-16T114 427V0H79zm91 636l192 96 16-31-193-92z" glyph-name="nacute" unicode="ń" horiz-adv-x="527"/><glyph d="M340-78h37l-46-189h-28zM92 0v700h85L510 34h27v666h36V0h-85L154 666h-26V0H92z" glyph-name="Ncommaaccent" unicode="Ņ" horiz-adv-x="665"/><glyph d="M219-267l37 189h37l-46-189h-28zM114 0H79v500h35v-40q89 49 182 49t125-50.5T453 260V0h-35v258q0 132-24 175.5T289 477q-40 0-83.5-12.5T138 440l-24-13V0z" glyph-name="ncommaaccent" unicode="ņ" horiz-adv-x="527"/><glyph d="M92 0v700h85L510 34h27v666h36V0h-85L154 666h-26V0H92zm226 804L184 929h45l104-96 103 96h46L348 804h-30z" glyph-name="Ncaron" unicode="Ň" horiz-adv-x="665"/><glyph d="M114 0H79v500h35v-40q89 49 182 49t125-50.5T453 260V0h-35v258q0 132-24 175.5T289 477q-40 0-83.5-12.5T138 440l-24-13V0zm136 600L129 732h42l94-99 93 99h42L278 600h-28z" glyph-name="ncaron" unicode="ň" horiz-adv-x="527"/><glyph d="M92 0v700h85L510 34h27v666h36V-19q0-78-19-107-11-17-22-26.5T498-166q-34-7-98-7v34q97 0 113 17 20 22 22 52.5T537-4v4h-49L154 666h-26V0H92z" glyph-name="Eng" unicode="Ŋ" horiz-adv-x="665"/><glyph d="M114 0H79v500h35v-40q90 49 182.5 49t125-53T454 260V-7q0-85-29-127.5T305-230l-14 31q79 47 103.5 83.5T419-6v264q0 126-24.5 172.5T290 477q-40 0-84-12.5T138 440l-24-13V0z" glyph-name="eng" unicode="ŋ" horiz-adv-x="528"/><glyph d="M216 45q46-20 117.5-20t117 18.5 70 61T554 203t9 144q0 168-48.5 248T333 675q-139 0-187-87-24-44-33.5-100.5t-9.5-141 9-139.5 33.5-98.5T216 45zm-98 37q-30 48-41.5 110.5T65 347q0 184 58 273t210 89 210-88.5T601 344 544.5 73.5 331-9 118 82zm72 750v32h287v-32H190z" glyph-name="Omacron" unicode="Ō" horiz-adv-x="666"/><glyph d="M263 509q111 0 157-56t46-202-41-203T263-9 101 48 60 251t46 202 157 56zm0-486q56 0 88.5 11.5t50 43 22.5 71 5 110.5q0 126-35 172t-131 46-131-46-35-172q0-71 5-110.5t22.5-71 50-43T263 23zM130 662v32h267v-32H130z" glyph-name="omacron" unicode="ō" horiz-adv-x="526"/><glyph d="M216 45q46-20 117.5-20t117 18.5 70 61T554 203t9 144q0 168-48.5 248T333 675q-139 0-187-87-24-44-33.5-100.5t-9.5-141 9-139.5 33.5-98.5T216 45zm-98 37q-30 48-41.5 110.5T65 347q0 184 58 273t210 89 210-88.5T601 344 544.5 73.5 331-9 118 82zm78 842h35q0-40 30-63.5t73-23.5 73 23.5 30 63.5h35q0-54-40-86.5T334 805t-98 32.5-40 86.5z" glyph-name="Obreve" unicode="Ŏ" horiz-adv-x="666"/><glyph d="M263 509q111 0 157-56t46-202-41-203T263-9 101 48 60 251t46 202 157 56zm0-486q56 0 88.5 11.5t50 43 22.5 71 5 110.5q0 126-35 172t-131 46-131-46-35-172q0-71 5-110.5t22.5-71 50-43T263 23zM128 723h35q0-42 27.5-69t75.5-27 75.5 27 27.5 69h35q0-56-38-92t-100-36-100 36-38 92z" glyph-name="obreve" unicode="ŏ" horiz-adv-x="526"/><glyph d="M216 45q46-20 117.5-20t117 18.5 70 61T554 203t9 144q0 168-48.5 248T333 675q-139 0-187-87-24-44-33.5-100.5t-9.5-141 9-139.5 33.5-98.5T216 45zm-98 37q-30 48-41.5 110.5T65 347q0 184 58 273t210 89 210-88.5T601 344 544.5 73.5 331-9 118 82zm219 709l191 87 15-29-192-88zm-191 0l192 88 14-30-191-87z" glyph-name="Ohungarumlaut" unicode="Ő" horiz-adv-x="666"/><glyph d="M263 509q111 0 157-56t46-202-41-203T263-9 101 48 60 251t46 202 157 56zm0-486q56 0 88.5 11.5t50 43 22.5 71 5 110.5q0 126-35 172t-131 46-131-46-35-172q0-71 5-110.5t22.5-71 50-43T263 23zm42 599l163 104 18-27-163-104zm-185 0l163 104 18-27-163-104z" glyph-name="ohungarumlaut" unicode="ő" horiz-adv-x="526"/><glyph d="M889-1H491q-84-8-161-8T200 13t-82.5 69.5-41 109.5T65 345t12 154.5T118 612q58 97 215 97 101 0 157-9h399v-36H526V378h303v-36H526V36h363V-1zM216 45q46-20 107.5-20T490 34v629q-140 12-157 12-139 0-187-87-24-44-33.5-100.5t-9.5-141 9-139.5 33.5-98.5T216 45z" glyph-name="OE" unicode="Œ" horiz-adv-x="940"/><glyph d="M770 30l30 2 2-32Q690-9 617-9 487-9 448 98q-18-56-61-81.5T265-9Q143-9 101.5 49T60 253t46.5 201T265 509q146 0 184-120 44 120 182 120 95 0 142.5-57T821 269v-33H466q0-108 34-160.5T613 23t157 7zm-593 5q33-12 87.5-12t88 13.5 50 46T424 154t5 105q0 118-39.5 168T259 477t-126.5-45.5T97 261q0-70 5.5-110.5t23.5-72T177 35zm289 233h318q0 113-36.5 161T631 477q-165 0-165-209z" glyph-name="oe" unicode="œ" horiz-adv-x="873"/><glyph d="M128 290V0H92v700h251q106 0 157-48t51-152q0-177-145-205L564 0h-41L367 290H128zm385 210q0 87-41 126.5T343 666H128V324h215q170 0 170 176zM199 826l192 96 16-31-193-92z" glyph-name="Racute" unicode="Ŕ" horiz-adv-x="613"/><glyph d="M79 0v500h35v-78q30 24 89.5 51.5T312 510v-36q-44-9-93.5-30T142 406l-28-17V0H79zm0 636l192 96 16-31-193-92z" glyph-name="racute" unicode="ŕ" horiz-adv-x="328"/><glyph d="M268-267l37 189h37l-46-189h-28zM128 290V0H92v700h251q106 0 157-48t51-152q0-177-145-205L564 0h-41L367 290H128zm385 210q0 87-41 126.5T343 666H128V324h215q170 0 170 176z" glyph-name="Rcommaaccent" unicode="Ŗ" horiz-adv-x="613"/><glyph d="M79-78h37L70-267H42zm0 78v500h35v-78q30 24 89.5 51.5T312 510v-36q-44-9-93.5-30T142 406l-28-17V0H79z" glyph-name="rcommaaccent" unicode="ŗ" horiz-adv-x="328"/><glyph d="M128 290V0H92v700h251q106 0 157-48t51-152q0-177-145-205L564 0h-41L367 290H128zm385 210q0 87-41 126.5T343 666H128V324h215q170 0 170 176zM286 809L152 934h45l104-96 103 96h46L316 809h-30z" glyph-name="Rcaron" unicode="Ř" horiz-adv-x="613"/><glyph d="M79 0v500h35v-78q30 24 89.5 51.5T312 510v-36q-44-9-93.5-30T142 406l-28-17V0H79zm82 600L40 732h42l94-99 93 99h42L189 600h-28z" glyph-name="rcaron" unicode="ř" horiz-adv-x="328"/><glyph d="M272 677Q94 677 94 537q0-63 21-91 12-15 25-25.5t38-18.5q41-12 104-22 109-17 156.5-52.5T486 203q0-113-52.5-161.5T274-7Q208-7 97 5L60 9l4 35q138-17 218-17 166 0 166 173 0 73-38 101t-117.5 40-113 21.5-65 29.5-45 54.5T56 535q0 176 216 176 69 0 166-12l33-4-4-35q-137 17-195 17zm-95 149l192 96 16-31-193-92z" glyph-name="Sacute" unicode="Ś" horiz-adv-x="540"/><glyph d="M222 477Q88 477 88 377q0-47 28-66.5T240 276t134-40 38-100.5-48-110T222-9Q171-9 86 3L57 7l4 33q108-17 172-17t103 25 39 85-30.5 79-125 33.5-131.5 39T51 367t27 89.5 63 42 75 10.5q81 0 152-11l26-4-2-33q-102 16-170 16zm-93 159l192 96 16-31-193-92z" glyph-name="sacute" unicode="ś" horiz-adv-x="461"/><glyph d="M272 677Q94 677 94 537q0-63 21-91 12-15 25-25.5t38-18.5q41-12 104-22 109-17 156.5-52.5T486 203q0-113-52.5-161.5T274-7Q208-7 97 5L60 9l4 35q138-17 218-17 166 0 166 173 0 73-38 101t-117.5 40-113 21.5-65 29.5-45 54.5T56 535q0 176 216 176 69 0 166-12l33-4-4-35q-137 17-195 17zM124 804l134 125h30l134-125h-45l-104 96-103-96h-46z" glyph-name="Scircumflex" unicode="Ŝ" horiz-adv-x="540"/><glyph d="M222 477Q88 477 88 377q0-47 28-66.5T240 276t134-40 38-100.5-48-110T222-9Q171-9 86 3L57 7l4 33q108-17 172-17t103 25 39 85-30.5 79-125 33.5-131.5 39T51 367t27 89.5 63 42 75 10.5q81 0 152-11l26-4-2-33q-102 16-170 16zM97 600l121 132h28l122-132h-43l-92 100-93-100H97z" glyph-name="scircumflex" unicode="ŝ" horiz-adv-x="461"/><glyph d="M395-127q0-74-82-74l-81 4 2 28q44-4 78-4 48 0 48 46 0 42-48 42h-54v78Q190-5 92 6L60 9l4 35q138-17 218-17 166 0 166 173 0 73-38 101t-117.5 40-113 21.5-65 29.5-45 54.5T56 535q0 176 216 176 69 0 166-12l33-4-4-35q-137 17-195 17-178 0-178-140 0-63 21-91 12-15 25-25.5t38-18.5q41-12 104-22 109-17 156.5-52.5T486 193 438 45.5 291-6v-51q56 0 80-15t24-55z" glyph-name="Scedilla" unicode="Ş" horiz-adv-x="540"/><glyph d="M342-127q0-74-82-74l-81 4 2 28q44-4 78-4 48 0 48 46 0 42-48 42h-54v77Q144-6 81 4L57 7l4 33q108-17 172-17t103 25 39 85-30.5 79-125 33.5-131.5 39T51 367t27 89.5 63 42 75 10.5q81 0 152-11l26-4-2-33q-102 16-170 16-134 0-134-100 0-47 28-66.5T240 276t134-40 38-98.5-44-109T238-9v-48q56 0 80-15t24-55z" glyph-name="scedilla" unicode="ş" horiz-adv-x="461"/><glyph d="M272 677Q94 677 94 537q0-63 21-91 12-15 25-25.5t38-18.5q41-12 104-22 109-17 156.5-52.5T486 203q0-113-52.5-161.5T274-7Q208-7 97 5L60 9l4 35q138-17 218-17 166 0 166 173 0 73-38 101t-117.5 40-113 21.5-65 29.5-45 54.5T56 535q0 176 216 176 69 0 166-12l33-4-4-35q-137 17-195 17zm-12 132L126 934h45l104-96 103 96h46L290 809h-30z" glyph-name="Scaron" unicode="Š" horiz-adv-x="540"/><glyph d="M222 477Q88 477 88 377q0-47 28-66.5T240 276t134-40 38-100.5-48-110T222-9Q171-9 86 3L57 7l4 33q108-17 172-17t103 25 39 85-30.5 79-125 33.5-131.5 39T51 367t27 89.5 63 42 75 10.5q81 0 152-11l26-4-2-33q-102 16-170 16zm3 123L104 732h42l94-99 93 99h42L253 600h-28z" glyph-name="scaron" unicode="š" horiz-adv-x="461"/><glyph glyph-name="Tcedilla" unicode="Ţ" horiz-adv-x="0"/><glyph d="M325 468H143V206q0-115 16.5-149.5T235 22l98 8 3-32q-66-8-101-8-71 0-99 36.5T108 168v300H29v32h79v163h35V500h182v-32zm-73-595q0-74-82-74l-81 4 2 28q44-4 78-4 48 0 48 46 0 42-48 42h-54V1h33v-58q56 0 80-15t24-55z" glyph-name="tcedilla" unicode="ţ" horiz-adv-x="342"/><glyph d="M13 666v34h500v-34H282V0h-36v666H13zm236 143L115 934h45l104-96 103 96h46L279 809h-30z" glyph-name="Tcaron" unicode="Ť" horiz-adv-x="526"/><glyph d="M325 468H143V206q0-115 16.5-149.5T235 22l98 8 3-32q-66-8-101-8-71 0-99 36.5T108 168v300H29v32h79v163h35V500h182v-32zm75 232V483h-34v217h34z" glyph-name="tcaron" unicode="ť" horiz-adv-x="395"/><glyph d="M15 666v34h500v-34H284V364h181v-32H284V0h-36v332H65v32h183v302H15z" glyph-name="Tbar" unicode="Ŧ" horiz-adv-x="530"/><glyph d="M329 468H147V314h161v-32H147v-76q0-115 16.5-149.5T239 22l98 8 3-32q-66-8-101-8-71 0-99 36.5T112 168v114H41v32h71v154H33v32h79v163h35V500h182v-32z" glyph-name="tbar" unicode="ŧ" horiz-adv-x="347"/><glyph d="M124 196q0-91 49-131t144.5-40 146 39.5T514 196v504h36V196q0-109-59.5-157t-173-48T146 39 88 196v504h36V196zm351 689q-39-52-66-52t-87.5 30-72.5 30q-22 0-58-39l-12-13-10 29q44 54 77 54 23 0 83.5-29.5T402 865q18 0 51 36l11 12z" glyph-name="Utilde" unicode="Ũ" horiz-adv-x="638"/><glyph d="M437 500V0h-35v40l-22-12q-22-13-63-25T238-9Q138-9 106 41.5T74 240v260h35V242q0-132 24-175.5T238 23q40 0 90.5 16.5T402 73v427h35zm-27 173q-42-43-68-43t-81.5 27-67.5 27q-22 0-60-34l-13-11-10 29q49 47 82 47 21 0 76.5-26.5T336 662q20 0 54 30l11 11z" glyph-name="utilde" unicode="ũ" horiz-adv-x="516"/><glyph d="M124 196q0-91 49-131t144.5-40 146 39.5T514 196v504h36V196q0-109-59.5-157t-173-48T146 39 88 196v504h36V196zm52 636v32h287v-32H176z" glyph-name="Umacron" unicode="Ū" horiz-adv-x="638"/><glyph d="M437 500V0h-35v40l-22-12q-22-13-63-25T238-9Q138-9 106 41.5T74 240v260h35V242q0-132 24-175.5T238 23q40 0 90.5 16.5T402 73v427h35zM122 642v32h267v-32H122z" glyph-name="umacron" unicode="ū" horiz-adv-x="516"/><glyph d="M124 196q0-91 49-131t144.5-40 146 39.5T514 196v504h36V196q0-109-59.5-157t-173-48T146 39 88 196v504h36V196zm57 728h35q0-40 30-63.5t73-23.5 73 23.5 30 63.5h35q0-54-40-86.5T319 805t-98 32.5-40 86.5z" glyph-name="Ubreve" unicode="Ŭ" horiz-adv-x="638"/><glyph d="M437 500V0h-35v40l-22-12q-22-13-63-25T238-9Q138-9 106 41.5T74 240v260h35V242q0-132 24-175.5T238 23q40 0 90.5 16.5T402 73v427h35zM111 723h35q0-42 27.5-69t75.5-27 75.5 27 27.5 69h35q0-56-38-92t-100-36-100 36-38 92z" glyph-name="ubreve" unicode="ŭ" horiz-adv-x="516"/><glyph d="M124 196q0-91 49-131t144.5-40 146 39.5T514 196v504h36V196q0-109-59.5-157t-173-48T146 39 88 196v504h36V196zm292 654q0-43-26.5-67.5T319 758t-70.5 24.5T222 850t26.5 67.5T319 942t70.5-24.5T416 850zm-161 0q0-30 17-46t47-16 47 16 17 46-17 46-47 16-47-16-17-46z" glyph-name="Uring" unicode="Ů" horiz-adv-x="638"/><glyph d="M437 500V0h-35v40l-22-12q-22-13-63-25T238-9Q138-9 106 41.5T74 240v260h35V242q0-132 24-175.5T238 23q40 0 90.5 16.5T402 73v427h35zM162 650q0 40 28 67.5t68 27.5 67-27.5 27-67.5-27-67.5-67.5-27.5-68 27.5T162 650zm34 0q0-26 18-45t43.5-19 43.5 19 18 45-18 44.5-43.5 18.5-43.5-18.5-18-44.5z" glyph-name="uring" unicode="ů" horiz-adv-x="516"/><glyph d="M124 196q0-91 49-131t144.5-40 146 39.5T514 196v504h36V196q0-109-59.5-157t-173-48T146 39 88 196v504h36V196zm223 595l191 87 15-29-192-88zm-191 0l192 88 14-30-191-87z" glyph-name="Uhungarumlaut" unicode="Ű" horiz-adv-x="638"/><glyph d="M437 500V0h-35v40l-22-12q-22-13-63-25T238-9Q138-9 106 41.5T74 240v260h35V242q0-132 24-175.5T238 23q40 0 90.5 16.5T402 73v427h35zM302 622l163 104 18-27-163-104zm-185 0l163 104 18-27-163-104z" glyph-name="uhungarumlaut" unicode="ű" horiz-adv-x="516"/><glyph d="M123 196q0-91 49-131t144.5-40 146 39.5T513 196v504h36V196Q549 34 409 1q-81-85-81-117 0-21 13-35.5t34-14.5l56 7 4-33q-36-8-67.5-8t-54 22-22.5 61.5T361-7q-30-2-48-2-110 0-168 48T87 196v504h36V196z" glyph-name="Uogonek" unicode="Ų" horiz-adv-x="637"/><glyph d="M402 500h35V0q-80-84-80-116 0-21 13-35.5t34-14.5l56 7 4-33q-36-8-67.5-8t-54 22-22.5 60.5T402 3v37q-9-5-24-13.5t-58.5-22T238-9Q138-9 106 41.5T74 240v260h35V242q0-132 24-175.5T238 23q40 0 81 12.5T381 60l21 13v427z" glyph-name="uogonek" unicode="ų" horiz-adv-x="516"/><glyph d="M38 700h36L214 34h39l153 656h44L603 34h39l140 666h36L671 0h-96L428 641 281 0h-96zm241 104l134 125h30l134-125h-45l-104 96-103-96h-46z" glyph-name="Wcircumflex" unicode="Ŵ" horiz-adv-x="856"/><glyph d="M36 500h37L200 32h11l148 458h38L545 32h11l127 468h37L585 0h-68L378 448 239 0h-68zm207 100l121 132h28l122-132h-43l-92 100-93-100h-43z" glyph-name="wcircumflex" unicode="ŵ" horiz-adv-x="756"/><glyph d="M281 0h-36v301L17 700h42l204-359 204 359h42L281 301V0zM114 809l134 125h30l134-125h-45l-104 96-103-96h-46z" glyph-name="Ycircumflex" unicode="Ŷ" horiz-adv-x="526"/><glyph d="M31 500h37L215 32h41l148 468h37L212-230h-37L247 0h-61zm74 100l121 132h28l122-132h-43l-92 100-93-100h-43z" glyph-name="ycircumflex" unicode="ŷ" horiz-adv-x="471"/><glyph d="M281 0h-36v301L17 700h42l204-359 204 359h42L281 301V0zM147 838v62h35v-62h-35zm196 0v62h35v-62h-35z" glyph-name="Ydieresis" unicode="Ÿ" horiz-adv-x="526"/><glyph d="M44 666v34h450v-70L81 55V33h413V-1H44v69l413 574v24H44zm131 160l192 96 16-31-193-92z" glyph-name="Zacute" unicode="Ź" horiz-adv-x="539"/><glyph d="M42 500h371v-32L87 32h326V0H42v32l327 436H42v32zm92 136l192 96 16-31-193-92z" glyph-name="zacute" unicode="ź" horiz-adv-x="455"/><glyph d="M44 666v34h450v-70L81 55V33h413V-1H44v69l413 574v24H44zm207 157v55h35v-55h-35z" glyph-name="Zdotaccent" unicode="Ż" horiz-adv-x="539"/><glyph d="M42 500h371v-32L87 32h326V0H42v32l327 436H42v32zm168 145v55h35v-55h-35z" glyph-name="zdotaccent" unicode="ż" horiz-adv-x="455"/><glyph d="M44 666v34h450v-70L81 55V33h413V-1H44v69l413 574v24H44zm222 143L132 934h45l104-96 103 96h46L296 809h-30z" glyph-name="Zcaron" unicode="Ž" horiz-adv-x="539"/><glyph d="M42 468v32h371v-32L87 32h326V0H42v32l327 436H42zm170 132L91 732h42l94-99 93 99h42L240 600h-28z" glyph-name="zcaron" unicode="ž" horiz-adv-x="455"/><glyph d="M254-60q0-99-29-139t-98-40l-92 5 2 33q58-5 90-5 51 0 71.5 32T219-60v412h-69v32h69v74q0 119 29 166 13 20 38 34.5t60 14.5l93-6-2-32q-46 5-91 5-92 0-92-146V384h162v-32H254V-60z" glyph-name="florin" unicode="ƒ"/><glyph d="M366.5 829.5q26.5-24.5 26.5-73T353 684L564 0h-36l-65 215H129L64 0H28l210 684q-39 24-39 72.5t26.5 73T296 854t70.5-24.5zM268 666L140 249h312L324 666h-56zm-36 96q0-30 17-46t47-16h6q27 2 42.5 18t15.5 45-17 45-47 16-47-16-17-46zm-42 153l192 96 16-31-193-92z" glyph-name="Aringacute" unicode="Ǻ" horiz-adv-x="592"/><glyph d="M411 353V65q4-36 75-42l-2-31q-73 0-103 42Q279-9 179-9q-62 0-96.5 37T48 133.5 81 238t105 43l190 20v52q0 64-27.5 93T265 475q-57 0-158-13l-31-4-3 33q112 18 192 18 146 0 146-156zM109 217q-24-27-24-81t24.5-83.5T178 23t93 10.5T348 54l28 10v205l-186-19q-57-6-81-33zm37 433q0 40 28 67.5t68 27.5 67-27.5 27-67.5-27-67.5-67.5-27.5-68 27.5T146 650zm34 0q0-26 18-45t43.5-19 43.5 19 18 45-18 44.5-43.5 18.5-43.5-18.5-18-44.5zm-32 156l192 96 16-31-193-92z" glyph-name="aringacute" unicode="ǻ" horiz-adv-x="495"/><glyph d="M419 0v215H143L65 0H25l251 700h552v-34H455V378h313v-34H455V34h373V0H419zm0 249v417H304L155 249h264zm27 577l192 96 16-31-193-92z" glyph-name="AEacute" unicode="Ǽ" horiz-adv-x="879"/><glyph d="M715 30l30 2 2-32Q635-9 562-9q-98 0-143 58l-38-16Q288-9 175-9 48-9 48 137q0 80 39 107.5T233 286l143 15v52q0 64-27.5 93T265 475q-51 0-157-7l-31-2-2 33q110 10 190 10 115 0 139-96 49 96 172 96 95 0 142.5-57T766 269v-33H411q0-108 34-160.5T558 23t157 7zM109 52.5Q133 23 175.5 23T273 35q77 17 131 39-30 59-30 194l-184-18q-55-5-80-32t-25-81.5 24-84zM411 268h318q0 113-36.5 161T576 477q-165 0-165-209zm-98 368l192 96 16-31-193-92z" glyph-name="aeacute" unicode="ǽ" horiz-adv-x="818"/><glyph d="M334-9q-80 0-134 23l-58-123-30 11 59 127q-59 39-82 116T66 347q0 184 58 273t210 89q86 0 142-29l53 112 30-12-55-118q54-41 76-118.5T602 347q0-191-56.5-273.5T334-9zM113.5 487.5q-9.5-56.5-9.5-155T122 166t65-103l274 584q-50 28-123.5 28T218 654t-70.5-65.5-34-101zM334 25q72 0 117.5 18.5t70 61T555 203t9 144q0 212-77 280L215 46q47-21 119-21zm-98 801l192 96 16-31-193-92z" glyph-name="Oslashacute" unicode="Ǿ" horiz-adv-x="668"/><glyph d="M263 509q53 0 86-11l44 107 30-11-45-107q46-25 67-79.5T466 259q0-154-41-211T263-9q-49 0-84 9l-46-114-30 10L149 9Q98 32 79 89.5T60 272t46 181 157 56zm0-32q-96 0-131-46T97 272t13-162.5T163 40l174 428q-30 9-74 9zm88.5-442.5q32.5 11.5 50 43t22.5 71 5 117T415 389t-49 67L191 30q27-7 77.5-7t83 11.5zM159 636l192 96 16-31-193-92z" glyph-name="oslashacute" unicode="ǿ" horiz-adv-x="526"/><glyph d="M272-78h37l-46-189h-28zm0 755Q94 677 94 537q0-63 21-91 12-15 25-25.5t38-18.5q41-12 104-22 109-17 156.5-52.5T486 203q0-113-52.5-161.5T274-7Q208-7 97 5L60 9l4 35q138-17 218-17 166 0 166 173 0 73-38 101t-117.5 40-113 21.5-65 29.5-45 54.5T56 535q0 176 216 176 69 0 166-12l33-4-4-35q-137 17-195 17z" glyph-name="Scommaaccent" unicode="Ș" horiz-adv-x="540"/><glyph d="M233-78h37l-46-189h-28zm-11 555Q88 477 88 377q0-47 28-66.5T240 276t134-40 38-100.5-48-110T222-9Q171-9 86 3L57 7l4 33q108-17 172-17t103 25 39 85-30.5 79-125 33.5-131.5 39T51 367t27 89.5 63 42 75 10.5q81 0 152-11l26-4-2-33q-102 16-170 16z" glyph-name="scommaaccent" unicode="ș" horiz-adv-x="461"/><glyph d="M262-78h37l-46-189h-28zM13 666v34h500v-34H282V0h-36v666H13z" glyph-name="Tcommaaccent" unicode="Ț" horiz-adv-x="526"/><glyph d="M203-78h37l-46-189h-28zm122 546H143V206q0-115 16.5-149.5T235 22l98 8 3-32q-66-8-101-8-71 0-99 36.5T108 168v300H29v32h79v163h35V500h182v-32z" glyph-name="tcommaaccent" unicode="ț" horiz-adv-x="342"/><glyph d="M-15 600l121 132h28l122-132h-43l-92 100-93-100h-43z" glyph-name="circumflex" unicode="ˆ" horiz-adv-x="215"/><glyph d="M106 600L-15 732h42l94-99 93 99h42L134 600h-28z" glyph-name="caron" unicode="ˇ" horiz-adv-x="215"/><glyph d="M-15 723h35q0-42 27.5-69t75.5-27 75.5 27 27.5 69h35q0-56-38-92t-100-36-100 36-38 92z" glyph-name="breve" unicode="˘" horiz-adv-x="215"/><glyph d="M90 645v55h35v-55H90z" glyph-name="dotaccent" unicode="˙" horiz-adv-x="215"/><glyph d="M16 650q0 40 28 67.5t68 27.5 67-27.5 27-67.5-27-67.5-67.5-27.5-68 27.5T16 650zm34 0q0-26 18-45t43.5-19 43.5 19 18 45-18 44.5-43.5 18.5T68 694.5 50 650z" glyph-name="ring" unicode="˚" horiz-adv-x="215"/><glyph d="M205-116q0-21 13-35.5t34-14.5l56 7 4-33q-36-8-67.5-8t-54 22-22.5 60q0 20 21 51t41 52l21 21 35-5q-81-85-81-117z" glyph-name="ogonek" unicode="˛" horiz-adv-x="434"/><glyph d="M265 673q-42-43-68-43t-81.5 27T48 684q-22 0-60-34l-13-11-10 29q49 47 82 47 21 0 76.5-26.5T190 662q21 0 54 30l12 11z" glyph-name="tilde" unicode="˜" horiz-adv-x="215"/><glyph d="M134 622l163 104 18-27-163-104zm-185 0l163 104 18-27-163-104z" glyph-name="hungarumlaut" unicode="˝" horiz-adv-x="215"/><glyph d="M385 154v314H181L152 0h-36l30 467q-77 0-110-9l-11-3v32q56 13 137 13h224q73 0 127 12l18 4v-32q-31-13-111-15V154q0-76 20-99t79-23V0q-77 0-105.5 31.5T385 154z" glyph-name="pi" unicode="π"/><glyph d="M38 700h36L214 34h39l153 656h44L603 34h39l140 666h36L671 0h-96L428 641 281 0h-96zm292 222l192-96-15-27-193 92z" glyph-name="Wgrave" unicode="Ẁ" horiz-adv-x="856"/><glyph d="M36 500h37L200 32h11l148 458h38L545 32h11l127 468h37L585 0h-68L378 448 239 0h-68zm230 232l192-96-15-27-193 92z" glyph-name="wgrave" unicode="ẁ" horiz-adv-x="756"/><glyph d="M38 700h36L214 34h39l153 656h44L603 34h39l140 666h36L671 0h-96L428 641 281 0h-96zm296 126l192 96 16-31-193-92z" glyph-name="Wacute" unicode="Ẃ" horiz-adv-x="856"/><glyph d="M36 500h37L200 32h11l148 458h38L545 32h11l127 468h37L585 0h-68L378 448 239 0h-68zm259 136l192 96 16-31-193-92z" glyph-name="wacute" unicode="ẃ" horiz-adv-x="756"/><glyph d="M38 700h36L214 34h39l153 656h44L603 34h39l140 666h36L671 0h-96L428 641 281 0h-96zm275 138v62h35v-62h-35zm196 0v62h35v-62h-35z" glyph-name="Wdieresis" unicode="Ẅ" horiz-adv-x="856"/><glyph d="M36 500h37L200 32h11l148 458h38L545 32h11l127 468h37L585 0h-68L378 448 239 0h-68zm230 138v62h35v-62h-35zm190 0v62h35v-62h-35z" glyph-name="wdieresis" unicode="ẅ" horiz-adv-x="756"/><glyph d="M411 353V65q4-36 75-42l-2-31q-73 0-103 42Q279-9 179-9q-62 0-96.5 37T48 133.5 81 238t105 43l190 20v52q0 64-27.5 93T265 475q-57 0-158-13l-31-4-3 33q112 18 192 18 146 0 146-156zM109 217q-24-27-24-81t24.5-83.5T178 23t93 10.5T348 54l28 10v205l-186-19q-57-6-81-33zm-8 353l121 132h28l122-132h-43l-92 100-93-100h-43zm273 203q-42-43-68-43t-81.5 27-67.5 27q-22 0-60-34l-13-11-10 29q49 47 82 47 21 0 76.5-26.5T300 762q20 0 54 30l11 11z" glyph-name="uni1EAB" unicode="ẫ" horiz-adv-x="495"/><glyph d="M28 0l215 700h106L562 2h-36l-67 213H131L64 0H28zm240 666L141 249h308L322 666h-54zM153 894h35q0-40 30-63.5t73-23.5 73 23.5 30 63.5h35q0-54-40-86.5T291 775t-98 32.5-40 86.5zm-6 168l192-96-15-27-193 92z" glyph-name="uni1EB0" unicode="Ằ" horiz-adv-x="590"/><glyph d="M399 30l30 2 2-32Q319-9 246-9 140-8 99 55.5T58 250q0 259 202 259 95 0 142.5-57T450 269v-33H95q0-108 34-160.5T242 23t157 7zM95 268h318q0 113-36.5 161T260 477Q95 477 95 268zm23 302l121 132h28l122-132h-43l-92 100-93-100h-43zm282 203q-42-43-68-43t-81.5 27-67.5 27q-22 0-60-34l-13-11-10 29q49 47 82 47 21 0 76.5-26.5T326 762q20 0 54 30l11 11z" glyph-name="uni1EC5" unicode="ễ" horiz-adv-x="502"/><glyph d="M263 509q111 0 157-56t46-202-41-203T263-9 101 48 60 251t46 202 157 56zm0-486q56 0 88.5 11.5t50 43 22.5 71 5 110.5q0 126-35 172t-131 46-131-46-35-172q0-71 5-110.5t22.5-71 50-43T263 23zM118 570l121 132h28l122-132h-43l-92 100-93-100h-43zm273 203q-42-43-68-43t-81.5 27-67.5 27q-22 0-60-34l-13-11-10 29q49 47 82 47 21 0 76.5-26.5T316 762q21 0 54 30l12 11z" glyph-name="uni1ED7" unicode="ỗ" horiz-adv-x="526"/><glyph d="M281 0h-36v301L17 700h42l204-359 204 359h42L281 301V0zM154 922l192-96-15-27-193 92z" glyph-name="Ygrave" unicode="Ỳ" horiz-adv-x="526"/><glyph d="M31 500h37L215 32h41l148 468h37L212-230h-37L247 0h-61zm106 232l192-96-15-27-193 92z" glyph-name="ygrave" unicode="ỳ" horiz-adv-x="471"/><glyph d="M281 0h-36v301L17 700h41l205-359 202 359h42L281 301V0zm125 873q-42-43-68-43t-81.5 27-67.5 27q-22 0-60-34l-13-11-10 29q49 47 82 47 21 0 76.5-26.5T332 862q20 0 54 30l11 11z" glyph-name="uni1EF8" unicode="Ỹ" horiz-adv-x="524"/><glyph d="M31 500h37L215 32h41l148 468h37L212-230h-37L247 0h-61zm348 173q-42-43-68-43t-81.5 27-67.5 27q-22 0-60-34l-13-11-10 29q49 47 82 47 21 0 76.5-26.5T304 662q21 0 54 30l12 11z" glyph-name="uni1EF9" unicode="ỹ" horiz-adv-x="471"/><glyph d="M72 286h500v-34H72v34z" glyph-name="endash" unicode="–" horiz-adv-x="643"/><glyph d="M72 286h1000v-34H72v34z" glyph-name="emdash" unicode="—" horiz-adv-x="1143"/><glyph d="M140 727l-40-200H62l49 200h29z" glyph-name="quoteleft" unicode="‘" horiz-adv-x="193"/><glyph d="M63 527l40 200h38L92 527H63z" glyph-name="quoteright" unicode="’" horiz-adv-x="191"/><glyph d="M121 115L81-85H43l49 200h29z" glyph-name="quotesinglbase" unicode="‚" horiz-adv-x="192"/><glyph d="M273 727l-40-200h-38l49 200h29zm-133 0l-40-200H62l49 200h29z" glyph-name="quotedblleft" unicode="“" horiz-adv-x="326"/><glyph d="M63 527l40 200h38L92 527H63zm144 0l40 200h38l-49-200h-29z" glyph-name="quotedblright" unicode="”" horiz-adv-x="335"/><glyph d="M119 109L79-91H41l49 200h29zm128 0L207-91h-38l49 200h29z" glyph-name="quotedblbase" unicode="„" horiz-adv-x="317"/><glyph d="M38 466v34h183v200h35V500h183v-34H256l-1-545h-33l-1 545H38z" glyph-name="dagger" unicode="†" horiz-adv-x="477"/><glyph d="M246-79v200H63v32h183v313H63v34h183v200h35V500h183v-34H281V153h183v-32H281V-79h-35z" glyph-name="daggerdbl" unicode="‡" horiz-adv-x="527"/><glyph d="M119 110v290h250V110H119z" glyph-name="bullet" unicode="•" horiz-adv-x="488"/><glyph d="M75 0v80h40V0H75zm254 0v80h40V0h-40zm254 0v80h40V0h-40z" glyph-name="ellipsis" unicode="…" horiz-adv-x="698"/><glyph d="M95 612q-16-25-16-76 0-107 68-107t68 106q0 52-15.5 77t-52 25T95 612zM181-1l185 670 32-9L212-9zM44 536q0 133 103 133t103-134q0-69-28-103.5T146.5 397t-75 34.5T44 536zm279-406q0 133 103 133t103-134q0-69-28-103.5T425.5-9t-75 34.5T323 130zm35 0q0-107 68-107t68 106q0 52-15.5 77t-52 25-52.5-25-16-76zm223 0q0 133 103 133t103-134q0-69-28-103.5T683.5-9t-75 34.5T581 130zm35 0q0-107 68-107t68 106q0 52-15.5 77t-52 25-52.5-25-16-76z" glyph-name="perthousand" unicode="‰" horiz-adv-x="828"/><glyph d="M215 360L80 254l135-117V96L48 234v36l167 129v-39z" glyph-name="guilsinglleft" unicode="‹" horiz-adv-x="290"/><glyph d="M210 254L75 360v39l167-129v-36L75 96v41z" glyph-name="guilsinglright" unicode="›" horiz-adv-x="290"/><glyph d="M-224 28l392 631 30-19-392-630z" glyph-name="fraction" unicode="⁄" horiz-adv-x="0"/><glyph d="M56.5 761.5Q85 799 139.5 799t83-37.5T251 635q0-166-111.5-166T28 636q0 88 28.5 125.5zM216 636q0 130-76.5 130T63 634t77-132q38 0 57 31t19 103z" glyph-name="zerosuperior" unicode="⁰" horiz-adv-x="280"/><glyph d="M177 478v57H31v31l89 224h38L71 568h106v88h36v-88h37v-33h-37v-57h-36z" glyph-name="foursuperior" unicode="⁴" horiz-adv-x="280"/><glyph d="M234 790v-33H91l-7-105q31 21 68 21 92 0 92-97 0-107-97-107-40 0-85 9l-15 3 3 30q54-9 97-9 62 0 62 74 0 64-57 64-36 0-62-16l-8-6-31 2 9 170h174z" glyph-name="fivesuperior" unicode="⁵" horiz-adv-x="280"/><glyph d="M230 759q-40 7-78.5 7t-58-25T73 660l11 4q38 16 63 16 100 0 100-101 0-51-27-80.5T144 469Q37 469 37 633q0 89 28.5 127.5T152 799q26 0 68-7l12-2zm-86-257q68 0 68 73t-57 73q-41 0-73-16-10-6-10-7 2-63 18.5-93t53.5-30z" glyph-name="sixsuperior" unicode="⁶" horiz-adv-x="280"/><glyph d="M32 756v34h192v-61L113 470l-34 9 109 252v25H32z" glyph-name="sevensuperior" unicode="⁷" horiz-adv-x="280"/><glyph d="M140 799q106 0 106-82 0-33-11-48t-43-25q31-9 45-27.5t14-53.5q0-94-111-94T29 557q0 38 13.5 56T88 644q-30 11-42 26.5T34 717q0 82 106 82zm0-297q76 0 76 60 0 29-13.5 43.5T158 628h-36q-30-8-44-23t-14-46q0-57 76-57zm0 264q-71 0-71-49 0-25 11.5-36.5T122 660h36q30 8 41.5 20t11.5 36q0 50-71 50z" glyph-name="eightsuperior" unicode="⁸" horiz-adv-x="280"/><glyph d="M128 502q82 0 84 105-43-17-84-17t-68 28-27 77 29 76.5 75 27.5q110 0 110-168 0-84-29.5-123T128 469q-32 0-70 7l-12 3 3 30q42-7 79-7zm72 134l12 4q-2 65-18.5 95.5T141 766q-73 0-73-71 0-32 17.5-52.5t48-20.5 66.5 14z" glyph-name="ninesuperior" unicode="⁹" horiz-adv-x="280"/><glyph d="M56.5 183.5Q85 221 139.5 221t83-37.5T251 57q0-166-111.5-166T28 58q0 88 28.5 125.5zM216 58q0 130-76.5 130T63 56t77-132q38 0 57 31t19 103z" glyph-name="zeroinferior" unicode="₀" horiz-adv-x="280"/><glyph d="M194 212v-312h-35v273l-82-56-17 28 99 67h35z" glyph-name="oneinferior" unicode="₁" horiz-adv-x="280"/><glyph d="M241-100H47v31l98 107q33 35 43.5 57.5t10.5 45-16 35.5-36 13q-35 0-80-7l-15-3-2 29q51 13 93 13 91 0 91-85 0-33-14.5-58.5T170 16L90-67h151v-33z" glyph-name="twoinferior" unicode="₂" horiz-adv-x="280"/><glyph d="M42 210q53 11 100 11t69.5-19 22.5-52.5T223 97q-15-25-35-32 29-8 42-25t13-56q0-93-98-93-48 0-91 8l-16 3 3 31q54-9 95-9t56.5 16T208-17q0 62-60 62H83v33h65q18 0 34.5 19t16.5 44q0 47-58 47-46 0-82-6l-14-3z" glyph-name="threeinferior" unicode="₃" horiz-adv-x="280"/><glyph d="M186-100v57H40v31l89 224h38L80-10h106v88h36v-88h37v-33h-37v-57h-36z" glyph-name="fourinferior" unicode="₄" horiz-adv-x="280"/><glyph d="M225 212v-33H82L75 74q31 21 68 21 92 0 92-97 0-107-97-107-40 0-85 9l-15 3 3 30q54-9 97-9 62 0 62 74 0 64-57 64-36 0-61-16l-9-6-31 2 9 170h174z" glyph-name="fiveinferior" unicode="₅" horiz-adv-x="280"/><glyph d="M227 181q-40 7-78.5 7t-58-25T70 82l11 4q38 16 63 16 100 0 100-101 0-51-27-80.5T141-109Q34-109 34 55q0 89 28.5 127.5T149 221q26 0 68-7l12-2zM141-76q68 0 68 73t-57 73q-41 0-72-16-11-6-11-7 2-63 18.5-93T141-76z" glyph-name="sixinferior" unicode="₆" horiz-adv-x="280"/><glyph d="M45 178v34h192v-61L126-108l-34 9 109 252v25H45z" glyph-name="seveninferior" unicode="₇" horiz-adv-x="280"/><glyph d="M139 221q106 0 106-82 0-33-11-48t-43-25q31-9 45-27.5T250-15q0-94-111-94T28-21q0 38 13.5 56T87 66Q57 77 45 92.5T33 139q0 82 106 82zm0-297q76 0 76 60 0 29-13.5 43.5T157 50h-36q-30-8-44-23T63-19q0-57 76-57zm0 264q-71 0-71-49 0-25 11.5-36.5T121 82h36q30 8 41.5 20t11.5 36q0 50-71 50z" glyph-name="eightinferior" unicode="₈" horiz-adv-x="280"/><glyph d="M126-76q82 0 84 105-43-17-84-17T58 40t-27 77 29 76.5 75 27.5q110 0 110-168 0-84-29.5-123T126-109q-32 0-70 7l-12 3 3 30q42-7 79-7zm72 134l12 4q-2 65-18.5 95.5T139 188q-73 0-73-71 0-32 17.5-52.5t48-20.5T198 58z" glyph-name="nineinferior" unicode="₉" horiz-adv-x="280"/><glyph d="M32 393v34h66q11 120 62.5 181T330 669q89 0 175-18l-3-33q-84 19-179 19t-138-52.5T134 427h320v-34H132q-1-21-1-60t1-54h322v-34H133q8-112 50.5-166.5T330 24q74 0 172 18l3-32Q411-8 330-8 211-8 159 54.5T97 245H32v34h63v49q0 44 1 65H32z" glyph-name="Euro" unicode="€"/><glyph d="M99 590v31h200v-31h-83V332h-33v258H99zm235-259v290h50l84-242 87 242h50V331h-32v258l-88-247h-35l-84 247V331h-32z" glyph-name="trademark" unicode="™" horiz-adv-x="689"/><glyph d="M41 25h151Q116 161 84 284q-13 50-13 86 0 157 43 228.5T280 670t166-71.5T489 370q0-57-30.5-143T398 83l-31-58h152V-9H330v29q44 82 82.5 187T451 365.5t-3.5 93-14 76T404 592q-40 44-124 44-85 0-126-44-45-51-45-232 0-48 30.5-133T200 81l30-61V-9H41v34z" glyph-name="Omega" unicode="Ω"/><glyph d="M268 739q112 0 166-86t54-281-51-288T279-9 115 49.5t-57 159T113 367t149 58q39 0 86.5-8.5T424 400l27-9q-2 165-46 239.5T262 705q-32 0-72-13t-64-26l-24-13-4 32q10 6 26 15t61 24 83 15zm184-383q-107 35-187 35t-125.5-49T94 208t46.5-134T277 25t131.5 81.5T452 356z" glyph-name="partialdiff" unicode="∂"/><glyph d="M59 0v26l182 634h76L499 26l1-26H59zm232 626h-25L99 34h359z" glyph-name="Delta" unicode="∆"/><glyph d="M414-151v867H146v-867h-36v867H30v34h500v-34h-80v-867h-36z" glyph-name="product" unicode="∏"/><glyph d="M53 749h450v-34H90v-27l284-360v-30L90-85v-32h413v-34H53v75l286 390L53 676v73z" glyph-name="summation" unicode="∑"/><glyph d="M69 234v34h422v-34H69z" glyph-name="minus" unicode="−"/><glyph d="M6 416v34h93l152-558h8l269 876h37L284-140h-60L67 416H6z" glyph-name="radical" unicode="√"/><glyph d="M148 121Q32 121 32 292q0 81 28.5 126t82.5 45 83.5-31.5T280 336q24 64 53 95.5t83.5 31.5 83-45T528 292q0-171-116-171-51 0-79.5 31.5T280 247q-25-75-51-100.5T148 121zm-1 307q-77 0-77-136t77-136q48 0 67 25 19 23 48 103 2 4 3 8-36 96-61 116t-57 20zm266-272q77 0 77 136t-77 136q-51 0-77-45-19-32-41-91 36-96 61-116t57-20z" glyph-name="infinity" unicode="∞"/><glyph d="M297 0q0-99-29-139t-98-40l-82 5 2 33q48-5 80-5 51 0 71.5 32T262 0v564q0 117 32 166t95 49l83-6-2-32q-41 5-84 5t-66-41-23-141V0z" glyph-name="integral" unicode="∫"/><glyph d="M380 274q-30 0-104 36.5T184 347q-33 0-87-39l-18-13-11 32q63 54 113 54 30 0 104-36.5t92-36.5 43.5 13 43.5 26l17 13 11-31q-62-55-112-55zm0-162q-30 0-104 36.5T184 185q-33 0-87-39l-18-13-11 32q63 54 113 54 30 0 104-36.5t92-36.5 43.5 13 43.5 26l17 13 11-31q-62-55-112-55z" glyph-name="approxequal" unicode="≈"/><glyph d="M68 318v34h248l68 157 32-13-63-144h139v-34H338l-59-135h213v-34H264L196-9 164 4l63 145H68v34h174l59 135H68z" glyph-name="notequal" unicode="≠"/><glyph d="M489 446L111 309l378-148v-39L65 290v36l424 159v-39zM65 24v34h424V24H65z" glyph-name="lessequal" unicode="≤"/><glyph d="M448 309L70 446v39l424-159v-36L70 122v39zm46-251V24H70v34h424z" glyph-name="greaterequal" unicode="≥"/><glyph d="M60 332l182 328h76l182-328L318 0h-76zm398 0L293 626h-27L102 332 266 34h27z" glyph-name="lozenge" unicode="◊"/><glyph d="M79 6v494h35V5q0-85-31.5-129.5T-45-218l-14 31q86 47 112 83.5T79 6z" glyph-name="dotlessj" unicode="" horiz-adv-x="192"/><glyph d="M42-267L79-78h37L70-267H42z" glyph-name="commaaccent" unicode="" horiz-adv-x="170"/><glyph glyph-name="CR" horiz-adv-x="235"/><glyph glyph-name="DLE" horiz-adv-x="0"/><glyph d="M113.5 448.5Q166 509 267 509t150.5-57.5T467 249 414 47.5 264-9Q61-9 61 243q0 145 52.5 205.5zM96 252q0-132 44-180.5T266.5 23t124 47.5T432 248t-41 179.5T269 477t-127-46.5T96 252z" glyph-name="zero.pnum" horiz-adv-x="529"/><glyph d="M243 500V0h-35v462L52 363l-17 28 173 109h35z" glyph-name="one.pnum" horiz-adv-x="326"/><glyph d="M409 0H58v32l201 175q52 46 75.5 81.5t23.5 87-31 76.5-101 25q-45 0-105-9.5T61 457l-3 31q98 21 169 21 166 0 166-139 0-56-24.5-94T293 195L98 32h311V0z" glyph-name="two.pnum" horiz-adv-x="463"/><glyph d="M66 492q96 18 176.5 18T366 480.5t43-96.5q0-71-63-103-27-14-34-14 35-10 56-20.5t38.5-38.5 17.5-71q0-73-46.5-109.5T245-9Q171-9 87 4L59 9l5 32q100-18 181-18 144 2 144 112 0 107-138 115H129v32h121q52 3 88 27.5t36 76-32.5 72T239 478q-67 0-143-14l-26-4z" glyph-name="three.pnum" horiz-adv-x="484"/><glyph d="M331-33v134H40v31l176 368h36L79 133h252v147h35V133h61v-32h-61V-33h-35z" glyph-name="four.pnum" horiz-adv-x="465"/><glyph d="M405 501v-32H114l-14-196q84 40 156 40 169 0 169-149 0-85-46-129T254-9Q186-9 96 4L66 9l4 32q114-18 181-18t103 35 36 106q0 117-135 117-30 0-71-10.5T117 249l-26-11-24 6 16 257h322z" glyph-name="five.pnum" horiz-adv-x="480"/><glyph d="M397 463q-74 14-146 14t-114-47.5T95 269q94 44 162 44 171 0 171-156 0-82-46.5-124.5T243-10Q61-10 61 254q0 137 50.5 196T259 509q62 0 120-11l21-4zM255 281q-31 0-71-11t-64-22l-25-11Q98 21 243 21q150 0 150 136 0 65-31.5 94.5T255 281z" glyph-name="six.pnum" horiz-adv-x="481"/><glyph d="M41 469v32h327v-53L143-9 111 1l222 450v18H41z" glyph-name="seven.pnum" horiz-adv-x="404"/><glyph d="M254 509q189 0 189-126 0-49-26-76.5T337 263q55-16 84-44.5t29-85.5q0-81-49-112T256.5-10t-145 31T62 126q0 64 30 92 27 25 75 45-48 16-72.5 44T70 384q0 66 46.5 95.5T254 509zM137 44.5Q177 22 256 22t119 23 40 88q0 59-34 82-28 19-81 31h-99q-53-13-78.5-39T97 124t40-79.5zM369.5 456q-38.5 21-115 21t-113-20.5T105 387t22-71.5 74-37.5h99q56 13 82 36t26 72-38.5 70z" glyph-name="eight.pnum" horiz-adv-x="512"/><glyph d="M76 38q83-15 155-15t114.5 48T388 234q0-1-25-11.5T298 201t-70-11q-84 0-129 40T54 346t48 120 133 44q190 0 190-259 0-139-52-199.5T223-9Q160-9 97 2L74 6zm153 184q31 0 71 11t64 22l25 11q-2 108-38.5 160T235 478Q89 478 89 344q0-122 140-122z" glyph-name="nine.pnum" horiz-adv-x="486"/><glyph d="M43 150q0 61 18.5 93.5t68 76 65 58.5 31.5 42 16 53v38h34q1-22 1-43t-8-42.5-27-43.5q-30-34-79-78t-67-74-18-80q0-69 40.5-97T243 25q43 0 131 21l30 7 5-34Q297-8 243-8 144-8 93.5 28.5T43 150zm236 550v-80h-40v80h40z" glyph-name="questiondown.cap" horiz-adv-x="447"/><glyph d="M72 316h500v-34H72v34z" glyph-name="endash.cap" horiz-adv-x="643"/><glyph d="M72 316h1000v-34H72v34z" glyph-name="emdash.cap" horiz-adv-x="1143"/><glyph d="M75 300v80h40v-80H75z" glyph-name="periodcentered.cap" horiz-adv-x="190"/><glyph d="M132 699v-80H92v80h40zm-2-214V-1H95v486h35z" glyph-name="exclamdown.cap" horiz-adv-x="225"/><glyph d="M96 331.5q0-83.5 24-190T168-30l23-65h-35q-11 25-27 68T86 129 59 331t24.5 201T132 712l24 68h35q-34-89-64.5-227T96 331.5z" glyph-name="parenleft.cap" horiz-adv-x="234"/><glyph d="M139 358.5q0 83.5-23.5 190T68 720l-24 65h35q11-25 27-68t43-156 27-202-24-201-48-180L79-90H44q34 89 64.5 227T139 358.5z" glyph-name="parenright.cap" horiz-adv-x="234"/><glyph d="M268 779v-32H121V-61h147v-32H86v872h182z" glyph-name="bracketleft.cap" horiz-adv-x="311"/><glyph d="M43 747v32h182V-93H43v32h147v808H43z" glyph-name="bracketright.cap" horiz-adv-x="311"/><glyph d="M169 199q-7-70-7-116 0-71 31-106t112-39l-2-32q-95 4-135.5 45.5T127 83l7 123q0 48-23.5 75T30 324v32q57 14 80.5 42t23.5 78l-7 128q0 90 40.5 131.5T303 781l2-32q-82-4-112.5-38.5T162 604l7-119q0-65-22-95.5T69 341q56-18 78-49t22-93z" glyph-name="braceleft.cap" horiz-adv-x="346"/><glyph d="M177 488q7 70 7 116 0 71-31 106T41 749l2 32q95-4 135.5-45.5T219 604l-7-123q0-48 23.5-75t80.5-43v-32q-57-14-80.5-42T212 211l7-128q0-90-40.5-131.5T43-94l-2 32q82 4 112.5 38.5T184 83l-7 119q0 65 22 95.5t78 48.5q-56 18-78 49t-22 93z" glyph-name="braceright.cap" horiz-adv-x="345"/><glyph d="M26 922l192-96-15-27-193 92z" glyph-name="grave.cap" horiz-adv-x="215"/><glyph d="M20 826l192 96 16-31-193-92z" glyph-name="acute.cap" horiz-adv-x="215"/><glyph d="M74 809l134 125h30l134-125h-45l-104 96-103-96H74z" glyph-name="circumflex.cap" horiz-adv-x="446"/><glyph d="M107 809L-27 934h45l104-96 103 96h46L137 809h-30z" glyph-name="caron.cap" horiz-adv-x="215"/><glyph d="M284 885q-39-52-66-52t-87.5 30T58 893q-22 0-58-39l-12-13-10 29q44 54 77 54 23 0 83.5-29.5T210 865q21 0 52 36l11 12z" glyph-name="tilde.cap" horiz-adv-x="215"/><glyph d="M-8 838v62h35v-62H-8zm196 0v62h35v-62h-35z" glyph-name="dieresis.cap" horiz-adv-x="215"/><glyph d="M-20 832v32h287v-32H-20z" glyph-name="macron.cap" horiz-adv-x="215"/><glyph d="M-15 924h35q0-40 30-63.5t73-23.5 73 23.5 30 63.5h35q0-54-40-86.5T123 805t-98 32.5-40 86.5z" glyph-name="breve.cap" horiz-adv-x="215"/><glyph d="M217 822q0-43-26.5-67.5T120 730t-70.5 24.5T23 822t26.5 67.5T120 914t70.5-24.5T217 822zm-161 0q0-30 17-46t47-16 47 16 17 46-17 46-47 16-47-16-17-46z" glyph-name="ring.cap" horiz-adv-x="215"/><glyph d="M139 791l191 87 15-29-192-88zm-191 0l192 88 14-30-191-87z" glyph-name="hungarumlaut.cap" horiz-adv-x="215"/><glyph d="M90 823v55h35v-55H90z" glyph-name="dotaccent.cap" horiz-adv-x="215"/><glyph d="M56.5 661.5Q85 699 139.5 699t83-37.5T251 535q0-166-111.5-166T28 536q0 88 28.5 125.5zM216 536q0 130-76.5 130T63 534t77-132q38 0 57 31t19 103z" glyph-name="zero.numr" horiz-adv-x="280"/><glyph d="M188 690V378h-35v273l-82-56-17 28 99 67h35z" glyph-name="one.numr" horiz-adv-x="280"/><glyph d="M235 378H41v31l98 107q33 35 43.5 57.5t10.5 45-16 35.5-36 13q-35 0-80-7l-15-3-2 29q51 13 93 13 91 0 91-85 0-33-14.5-58.5T164 494l-80-83h151v-33z" glyph-name="two.numr" horiz-adv-x="280"/><glyph d="M44 688q53 11 100 11t69.5-19 22.5-52.5-11-52.5q-15-25-35-32 29-8 42-25t13-56q0-93-98-93-48 0-91 8l-16 3 3 31q54-9 95-9t56.5 16 15.5 43q0 62-60 62H85v33h65q18 0 34.5 19t16.5 44q0 47-58 47-46 0-82-6l-14-3z" glyph-name="three.numr" horiz-adv-x="280"/><glyph d="M177 378v57H31v31l89 224h38L71 468h106v88h36v-88h37v-33h-37v-57h-36z" glyph-name="four.numr" horiz-adv-x="280"/><glyph d="M233 690v-33H90l-7-105q31 21 68 21 92 0 92-97 0-107-97-107-40 0-85 9l-15 3 3 30q54-9 97-9 62 0 62 74 0 64-57 64-36 0-61-16l-9-6-31 2 9 170h174z" glyph-name="five.numr" horiz-adv-x="280"/><glyph d="M229 659q-40 7-78.5 7t-58-25T72 560l11 4q38 16 63 16 100 0 100-101 0-51-27-80.5T143 369Q36 369 36 533q0 89 28.5 127.5T151 699q26 0 68-7l12-2zm-86-257q68 0 68 73t-57 73q-41 0-72-16-11-6-11-7 2-63 18.5-93t53.5-30z" glyph-name="six.numr" horiz-adv-x="280"/><glyph d="M45 656v34h192v-61L126 370l-34 9 109 252v25H45z" glyph-name="seven.numr" horiz-adv-x="280"/><glyph d="M140 699q106 0 106-82 0-33-11-48t-43-25q31-9 45-27.5t14-53.5q0-94-111-94T29 457q0 38 13.5 56T88 544q-30 11-42 26.5T34 617q0 82 106 82zm0-297q76 0 76 60 0 29-13.5 43.5T158 528h-36q-30-8-44-23t-14-46q0-57 76-57zm0 264q-71 0-71-49 0-25 11.5-36.5T122 560h36q30 8 41.5 20t11.5 36q0 50-71 50z" glyph-name="eight.numr" horiz-adv-x="280"/><glyph d="M130 402q82 0 84 105-43-17-84-17t-68 28-27 77 29 76.5 75 27.5q110 0 110-168 0-84-29.5-123T130 369q-32 0-70 7l-12 3 3 30q42-7 79-7zm72 134l12 4q-2 65-18.5 95.5T143 666q-73 0-73-71 0-32 17.5-52.5t48-20.5 66.5 14z" glyph-name="nine.numr" horiz-adv-x="280"/><glyph d="M259 283v80h40v-80h-40zm-77 371.5q40 15.5 98 15.5t98.5-15.5T450 600q60-74 60-284 0-186-62-258-31-36-71.5-51.5T280-9 183.5 6 112 56q-63 71-63 259 0 209 61 285 32 39 72 54.5zM387.5 610q-40.5 26-108 26T172 610q-85-54-85-296 0-171 52-233 26-31 59.5-43.5T288 25t96 22.5 64 88 24 186T450 513t-62.5 97z" glyph-name="zero.slash"/><glyph d="M923 397v-17q0-179-35-238-12-22-23.5-33.5T834 91q-30-9-65.5-9T712 88.5 680 104q-22 21-27 41-41-24-98-43t-87-19-48 2.5-44 16.5-42 39-28.5 75T293 335q0 136 46 201t164 65q53 0 111-20l21-7v18h35V392q0-200 14-236 5-14 16.5-26.5t26-15T766 112t39.5 3 32.5 17 27 42q21 64 21 206v18q0 201-88 291t-298.5 90T192 683 95 353q0-124 24-207t76.5-131.5 125.5-69T502-75l143 10 3-33q-98-9-146-9-116 0-195 21.5T170-12Q58 87 58 343.5t108 362T501 811t324.5-99T923 397zM416.5 121.5q19.5-6.5 48-6.5t74.5 15 77 30l30 15q-11 114-11 217v150q-73 27-132 27-101 0-138-57.5T328 332q0-141 47-184 22-20 41.5-26.5z" glyph-name="at.cap" horiz-adv-x="974"/><glyph d="M56.5 283.5Q85 321 139.5 321t83-37.5T251 157Q251-9 139.5-9T28 158q0 88 28.5 125.5zM216 158q0 130-76.5 130T63 156t77-132q38 0 57 31t19 103z" glyph-name="zero.dnom" horiz-adv-x="280"/><glyph d="M191 312V0h-35v273l-82-56-17 28 99 67h35z" glyph-name="one.dnom" horiz-adv-x="280"/><glyph d="M240 0H46v31l98 107q33 35 43.5 57.5t10.5 45-16 35.5-36 13q-35 0-80-7l-15-3-2 29q51 13 93 13 91 0 91-85 0-33-14.5-58.5T169 116L89 33h151V0z" glyph-name="two.dnom" horiz-adv-x="280"/><glyph d="M44 310q53 11 100 11t69.5-19 22.5-52.5-11-52.5q-15-25-35-32 29-8 42-25t13-56q0-93-98-93-48 0-91 8L40 2l3 31q54-9 95-9t56.5 16T210 83q0 62-60 62H85v33h65q18 0 34.5 19t16.5 44q0 47-58 47-46 0-82-6l-14-3z" glyph-name="three.dnom" horiz-adv-x="280"/><glyph d="M177 0v57H31v31l89 224h38L71 90h106v88h36V90h37V57h-37V0h-36z" glyph-name="four.dnom" horiz-adv-x="280"/><glyph d="M228 312v-33H85l-7-105q31 21 68 21 92 0 92-97Q238-9 141-9q-40 0-85 9L41 3l3 30q54-9 97-9 62 0 62 74 0 64-57 64-36 0-62-16l-8-6-31 2 9 170h174z" glyph-name="five.dnom" horiz-adv-x="280"/><glyph d="M225 281q-40 7-78.5 7t-58-25T68 182l11 4q38 16 63 16 100 0 100-101 0-51-27-80.5T139-9Q32-9 32 155q0 89 28.5 127.5T147 321q26 0 68-7l12-2zM139 24q68 0 68 73t-57 73q-41 0-72-16-11-6-11-7 2-63 18.5-93T139 24z" glyph-name="six.dnom" horiz-adv-x="280"/><glyph d="M46 278v34h192v-61L127-8 93 1l109 252v25H46z" glyph-name="seven.dnom" horiz-adv-x="280"/><glyph d="M140 321q106 0 106-82 0-33-11-48t-43-25q31-9 45-27.5T251 85q0-94-111-94T29 79q0 38 13.5 56T88 166q-30 11-42 26.5T34 239q0 82 106 82zm0-297q76 0 76 60 0 29-13.5 43.5T158 150h-36q-30-8-44-23T64 81q0-57 76-57zm0 264q-71 0-71-49 0-25 11.5-36.5T122 182h36q30 8 41.5 20t11.5 36q0 50-71 50z" glyph-name="eight.dnom" horiz-adv-x="280"/><glyph d="M127 24q82 0 84 105-43-17-84-17t-68 28-27 77 29 76.5 75 27.5q110 0 110-168 0-84-29.5-123T127-9Q95-9 58-2L45 1l3 30q42-7 79-7zm72 134l12 4q-2 65-18.5 95.5T140 288q-73 0-73-71 0-32 17.5-52.5t48-20.5 66.5 14z" glyph-name="nine.dnom" horiz-adv-x="280"/><glyph d="M76 294v34h307v-34H76z" glyph-name="hyphen.cap" horiz-adv-x="458"/></font>
</defs>
</svg>
