<?xml version="1.0" standalone="no"?>
<!DOCTYPE svg PUBLIC "-//W3C//DTD SVG 1.1//EN" "http://www.w3.org/Graphics/SVG/1.1/DTD/svg11.dtd" >
<svg xmlns="http://www.w3.org/2000/svg">
<metadata>Generated by IcoMoon</metadata>
<defs>
<font id="icomoon" horiz-adv-x="1024">
<font-face units-per-em="1024" ascent="960" descent="-64" />
<missing-glyph horiz-adv-x="1024" />
<glyph unicode="&#x20;" horiz-adv-x="512" d="" />
<glyph unicode="&#xe900;" glyph-name="wiz" d="M883.874 598.905v-528.168c0-70.063-53.895-123.958-123.958-123.958h-619.789c-70.063 0-123.958 53.895-123.958 123.958v625.179c0 70.063 53.895 123.958 123.958 123.958h528.168l-129.347-123.958h-398.821v-625.179h625.179v404.211l118.568 123.958zM792.253 857.6l-43.116-43.116 134.737-134.737 43.116 43.116-134.737 134.737zM878.484 943.832l-43.116-43.116 134.737-134.737 43.116 43.116-134.737 134.737zM307.2 372.547l134.737-134.737 393.432 398.821-134.737 134.737-393.432-398.821zM264.084 200.084h123.958l-123.958 123.958v-123.958z" />
<glyph unicode="&#xe901;" glyph-name="q-b" d="M512 951.808c-278.528 0-503.808-225.28-503.808-503.808s225.28-503.808 503.808-503.808c278.528 0 503.808 225.28 503.808 503.808s-225.28 503.808-503.808 503.808zM512 91.648c-53.248 0-94.208 40.96-94.208 94.208s40.96 94.208 94.208 94.208c53.248 0 94.208-40.96 94.208-94.208 0-49.152-40.96-94.208-94.208-94.208zM622.592 415.232c-4.096 0-8.192-4.096-16.384-8.192s-20.48-8.192-24.576-12.288c-4.096-8.192-4.096-20.48-4.096-40.96 0-24.576-8.192-36.864-61.44-36.864h-20.48c-49.152 0-45.056 16.384-45.056 73.728v-4.096c0 73.728 20.48 106.496 69.632 118.784l8.192 4.096c45.056 12.288 94.208 16.384 94.208 77.824 0 57.344-73.728 61.44-86.016 61.44-69.632 0-81.92-28.672-86.016-49.152-4.096-32.768-16.384-49.152-69.632-49.152-20.48 0-40.96 0-57.344 20.48-8.192 16.384-12.288 20.48-12.288 45.056 0 106.496 135.168 151.552 204.8 151.552h8.192c131.072 0 225.28-73.728 225.28-192.512 0-69.632-45.056-118.784-126.976-159.744z" />
<glyph unicode="&#xe902;" glyph-name="alpha" horiz-adv-x="1218" d="M949.276 428.627v0c2.768 5.535 2.768 11.070 5.535 16.605l127.308 478.789h-207.568l-35.978-130.076-44.281-163.286-52.584-199.265-5.535-22.141-27.676-105.168c-58.119-196.497-143.914-296.13-254.616-296.13-143.914 0-215.87 141.146-215.87 420.67 0 296.13 74.724 442.811 224.173 442.811 66.422 0 121.773-30.443 171.589-94.097 22.141-27.676 41.514-63.654 63.654-102.4l27.676 107.935c-22.141 38.746-47.049 69.189-71.957 91.33-52.584 49.816-121.773 74.724-207.568 74.724-119.005 0-221.405-44.281-307.2-132.843-83.027-85.795-124.541-210.335-124.541-368.086 0-160.519 38.746-285.059 116.238-370.854s182.659-130.076 312.735-130.076c149.449 0 265.686 44.281 351.481 135.611v0c0 0 16.605 13.838 38.746 47.049 19.373 30.443 47.049 77.492 71.957 146.681 16.605 41.514 30.443 91.33 44.281 152.216zM1159.611 212.757c-2.768-85.795-41.514-127.308-113.47-127.308-33.211 0-60.886 16.605-85.795 52.584-22.141-41.514-41.514-71.957-58.119-94.097 8.303-22.141 19.373-38.746 27.676-52.584 22.141-30.443 52.584-44.281 96.865-44.281 52.584 0 94.097 24.908 127.308 74.724s49.816 113.47 52.584 193.73h-47.049z" />
<glyph unicode="&#xe903;" glyph-name="b-arr" horiz-adv-x="768" d="M729.6 448l-499.2 512-192-192 320-320-320-320 192-192 499.2 512z" />
<glyph unicode="&#xe904;" glyph-name="search" d="M938.667 146.489l-142.222 142.222c-17.067 17.067-34.133 22.756-56.889 22.756 39.822 56.889 62.578 130.844 62.578 204.8 0 204.8-164.978 369.778-369.778 369.778-204.8 5.689-369.778-159.289-369.778-364.089s164.978-369.778 369.778-369.778c79.644 0 159.289 28.444 216.178 73.956 0-17.067 11.378-39.822 22.756-51.2l142.222-142.222c28.444-22.756 79.644-34.133 119.467 0 39.822 28.444 34.133 79.644 5.689 113.778zM432.356 265.956c-142.222 0-256 113.778-256 256s113.778 256 256 256c142.222 0 256-113.778 256-256s-113.778-256-256-256z" />
<glyph unicode="&#xe905;" glyph-name="s-m" d="M944.356 584.533h-864.711c-22.756 0-34.133-22.756-34.133-34.133v-204.8c0-22.756 11.378-22.756 34.133-22.756h864.711c22.756 0 34.133 11.378 34.133 22.756v193.422c0 22.756-11.378 45.511-34.133 45.511z" />
<glyph unicode="&#xe906;" glyph-name="upload" d="M489.244 891.733l-295.822-250.311c-11.378-11.378-11.378-17.067 5.689-17.067h199.111v-284.444c0-28.444 22.756-56.889 56.889-56.889h113.778c28.444 0 56.889 28.444 56.889 56.889v284.444h199.111c17.067 0 17.067 5.689 5.689 17.067l-295.822 250.311c-11.378 5.689-34.133 5.689-45.511 0zM967.111 396.8v-227.556c0-96.711-73.956-170.667-170.667-170.667h-568.889c-96.711 0-170.667 73.956-170.667 170.667v227.556c0 34.133 22.756 56.889 56.889 56.889s56.889-22.756 56.889-56.889v-227.556c0-34.133 22.756-56.889 56.889-56.889h568.889c34.133 0 56.889 22.756 56.889 56.889v227.556c0 34.133 22.756 56.889 56.889 56.889s56.889-28.444 56.889-56.889z" />
<glyph unicode="&#xe907;" glyph-name="s-p" d="M944.356 584.533h-295.822v284.444c0 22.756-11.378 34.133-34.133 34.133h-204.8c-22.756 0-34.133-22.756-34.133-34.133v-295.822h-295.822c-22.756 0-34.133-22.756-34.133-34.133v-204.8c0-22.756 11.378-22.756 34.133-22.756h295.822v-307.2c0-22.756 11.378-22.756 34.133-22.756h193.422c22.756 0 34.133 11.378 34.133 22.756v307.2h295.822c22.756 0 34.133 11.378 34.133 22.756v204.8c11.378 22.756 0 45.511-22.756 45.511z" />
<glyph unicode="&#xe908;" glyph-name="url" d="M950.044 533.333l-261.689-261.689c-73.956-73.956-193.422-73.956-261.689 0l-85.333 85.333 85.333 91.022 85.333-85.333c22.756-22.756 62.578-22.756 85.333 0l261.689 261.689c22.756 22.756 22.756 62.578 0 85.333l-85.333 85.333c-22.756 22.756-62.578 22.756-85.333 0l-96.711-96.711c-39.822 34.133-91.022 45.511-142.222 39.822l147.911 147.911c73.956 73.956 193.422 73.956 261.689 0l85.333-85.333c79.644-73.956 79.644-193.422 5.689-267.378zM432.356 192l-96.711-96.711c-22.756-22.756-62.578-22.756-85.333 0l-85.333 85.333c-22.756 22.756-22.756 62.578 0 85.333l261.689 261.689c22.756 34.133 62.578 34.133 85.333 5.689l85.333-85.333 85.333 85.333-85.333 85.333c-73.956 73.956-193.422 73.956-261.689 0l-261.689-261.689c-73.956-73.956-73.956-193.422 0-261.689l85.333-85.333c73.956-73.956 193.422-73.956 261.689 0l147.911 147.911c-45.511-5.689-96.711 5.689-136.533 34.133z" />
<glyph unicode="&#xe909;" glyph-name="c-x" d="M151.374 87.374c-195.896 200.348-195.896 520.904 0 721.252s520.904 200.348 721.252 0 200.348-520.904 0-721.252c-200.348-195.896-520.904-195.896-721.252 0zM832.557 768.557c-173.635 173.635-463.026 173.635-636.661 0s-173.635-463.026 0-636.661c173.635-173.635 463.026-173.635 636.661 0s173.635 458.574 0 636.661zM632.209 287.722l-280.487 280.487c-13.357 13.357-13.357 31.165 0 40.070 13.357 13.357 31.165 13.357 40.070 0l284.939-284.939c13.357-13.357 13.357-31.165 0-40.070s-31.165-8.904-44.522 4.452zM351.722 287.722c-13.357 13.357-13.357 31.165 0 40.070l284.939 284.939c13.357 13.357 31.165 13.357 40.070 0 13.357-13.357 13.357-31.165 0-40.070l-284.939-284.939c-13.357-13.357-31.165-13.357-40.070 0z" />
<glyph unicode="&#xe90a;" glyph-name="donut" d="M937.726 807.609h-333.002c-11.288 31.446-37.090 55.635-69.342 64.504s-66.923 0.806-92.724-20.964l-91.918 91.918c-20.157 19.351-51.603 19.351-70.954 0-18.545-17.739-20.157-47.572-3.225-66.923 7.257-21.77 8.063-45.959 2.419-68.535h-192.706c-46.765 0-85.468-37.896-85.468-85.468v-561.991c0-46.765 37.896-85.468 85.468-85.468h272.529v-33.865h-119.332c-9.676 0-16.932-7.257-16.932-16.932v-67.729c0-9.676 7.257-16.932 16.932-16.932h545.058c9.676 0 16.932 7.257 16.932 16.932v67.729c0 9.676-7.257 16.932-16.932 16.932h-119.332v33.865h272.529c46.765 0 85.468 37.896 85.468 85.468v561.991c0 46.765-38.702 85.468-85.468 85.468zM532.157 837.443c21.77-8.063 38.702-27.414 42.734-50.797v0c0.806-4.031 1.613-8.869 1.613-13.707 0-15.32-4.838-29.833-14.513-41.928l-95.143 95.95c18.545 14.513 43.54 18.545 65.31 10.482zM303.975 918.879c3.225 3.225 7.257 4.838 11.288 4.838s8.869-1.613 11.288-4.838l102.4-102.4c0.806-0.806 0.806-0.806 1.613-1.613l226.57-226.57c3.225-3.225 4.838-7.257 4.838-11.288s-1.613-8.063-4.838-11.288v0c-3.225-3.225-7.257-4.838-11.288-4.838v0c-4.031 0-8.869 1.613-11.288 4.838l-330.583 329.776c-3.225 3.225-4.838 7.257-4.838 11.288 0 4.838 1.613 8.869 4.838 12.094zM316.876 835.024l256.403-256.403c-104.013-3.225-229.795-99.175-268.498-131.427l-119.332 119.332c32.252 38.702 128.202 163.679 131.427 268.498zM80.63 435.099c-6.45 6.45-6.45 17.739 0 24.189l81.436 81.436 117.72-117.72-81.436-81.436c-6.45-6.45-17.739-6.45-24.189 0l-93.531 93.531zM137.877 329.474l-22.576-22.576c-13.707-12.901-34.671-12.901-48.378 0l-21.77 21.77c-6.45 6.45-9.676 15.32-9.676 24.189s3.225 17.739 9.676 24.189l22.576 22.576 70.148-70.148zM274.142 370.595l29.027 29.027 117.72-116.913-33.058-33.058-150.778 83.855 37.090 37.090zM35.477 722.142c0 28.22 22.576 50.797 50.797 50.797h183.836c-26.608-77.405-88.693-160.454-120.139-196.737l-93.531-92.724c-15.32-15.32-19.351-37.896-10.482-57.247l-10.482-10.482v306.394zM35.477 290.772l8.063-8.063c26.608-26.608 69.342-26.608 95.95 0l24.995 24.995c14.513-7.257 31.446-6.45 45.959 1.613l115.301-63.698h-290.268v45.153zM767.597 6.954v-33.865h-511.194v33.865h511.194zM392.668 40.819v33.865h238.665v-33.865h-238.665zM988.523 160.151c0-28.22-22.576-50.797-50.797-50.797h-851.452c-28.22 0-50.797 22.576-50.797 50.797v50.797h953.852l-0.806-50.797zM988.523 245.619h-556.346l24.995 24.995c3.225 3.225 4.838 7.257 4.838 12.094s-1.613 8.869-4.838 12.094l-128.202 128.202c62.891 51.603 203.187 145.94 285.43 115.301 8.869-7.257 20.157-11.288 31.446-11.288v0c20.157 0 38.702 12.094 46.765 31.446 8.063 18.545 3.225 40.315-11.288 54.828l-95.143 94.337c15.32 18.545 24.189 41.928 24.189 66.117h327.357c28.22 0 50.797-22.576 50.797-50.797v-477.329zM648.265 415.748h153.197c9.676 0 16.932 7.257 16.932 16.932s-7.257 16.932-16.932 16.932h-153.197c-9.676 0-16.932-7.257-16.932-16.932s7.257-16.932 16.932-16.932zM767.597 484.283h50.797c9.676 0 16.932 7.257 16.932 16.932s-7.257 16.932-16.932 16.932h-50.797c-9.676 0-16.932-7.257-16.932-16.932s7.257-16.932 16.932-16.932zM937.726 518.148h-50.797c-9.676 0-16.932-7.257-16.932-16.932s7.257-16.932 16.932-16.932h50.797c9.676 0 16.932 7.257 16.932 16.932s-7.257 16.932-16.932 16.932zM937.726 449.613h-67.729c-9.676 0-16.932-7.257-16.932-16.932s7.257-16.932 16.932-16.932h67.729c9.676 0 16.932 7.257 16.932 16.932s-7.257 16.932-16.932 16.932zM903.861 381.883h-221.732c-28.22 0-50.797-22.576-50.797-50.797s22.576-50.797 50.797-50.797h221.732c28.22 0 50.797 22.576 50.797 50.797s-22.576 50.797-50.797 50.797zM903.861 313.348h-221.732c-9.676 0-16.932 7.257-16.932 16.932s7.257 16.932 16.932 16.932h221.732c9.676 0 16.932-7.257 16.932-16.932 0-8.869-8.063-16.932-16.932-16.932z" />
<glyph unicode="&#xe90b;" glyph-name="drop" horiz-adv-x="1536" d="M1450.667 669.867l-238.933 238.933-443.733-443.733-443.733 443.733-238.933-238.933 682.667-682.667z" />
<glyph unicode="&#xe90c;" glyph-name="arr-green" horiz-adv-x="832" d="M492.8 6.4v0 659.2l211.2-204.8c6.4-12.8 25.6-12.8 38.4-12.8s25.6 0 38.4 12.8l32 32c12.8 12.8 12.8 25.6 12.8 38.4s-6.4 25.6-12.8 38.4l-358.4 358.4c-12.8 12.8-25.6 19.2-38.4 19.2s-25.6-6.4-38.4-12.8l-358.4-364.8c-6.4-6.4-12.8-25.6-12.8-38.4s6.4-25.6 12.8-38.4l32-32c12.8-12.8 25.6-12.8 38.4-12.8s25.6 0 38.4 12.8l211.2 211.2v-665.6c0-32 25.6-57.6 57.6-57.6h44.8c25.6 0 51.2 32 51.2 57.6z" />
<glyph unicode="&#xe90d;" glyph-name="arr-down" horiz-adv-x="832" d="M339.2 889.6v0-659.2l-211.2 204.8c-6.4 12.8-25.6 12.8-38.4 12.8s-25.6 0-38.4-12.8l-32-32c-6.4-12.8-12.8-25.6-12.8-38.4s6.4-25.6 12.8-38.4l358.4-358.4c12.8-12.8 25.6-12.8 38.4-12.8s25.6 6.4 38.4 12.8l358.4 358.4c12.8 12.8 12.8 25.6 12.8 38.4s-6.4 25.6-12.8 38.4l-32 32c-12.8 12.8-25.6 12.8-38.4 12.8s-25.6 0-38.4-12.8l-211.2-211.2v665.6c0 32-25.6 57.6-57.6 57.6h-44.8c-25.6 0-51.2-32-51.2-57.6z" />
<glyph unicode="&#xe90e;" glyph-name="i4" horiz-adv-x="1096" d="M473.449 913.016l18.071-27.708c65.054 40.96 146.974 40.96 212.028 0l18.071 27.708c-75.896 48.188-172.273 48.188-248.169 0zM399.962 719.059h-32.527c0-30.118 6.024-60.235 18.071-89.148l30.118 13.252c-10.842 24.094-15.661 50.598-15.661 75.896zM673.431 537.148c-24.094-9.638-49.393-15.661-75.896-15.661v-32.527c30.118 0 60.235 6.024 89.148 18.071l-13.252 30.118zM795.106 719.059c0-26.504-4.819-51.802-15.661-75.896l30.118-13.252c12.047 27.708 18.071 57.826 18.071 89.148h-32.527zM597.534 884.104c-90.353 0-165.045-73.487-165.045-165.045s73.487-165.045 165.045-165.045c90.353 0 163.84 73.487 165.045 165.045-1.205 91.558-74.692 165.045-165.045 165.045zM597.534 587.746c-72.282 0-131.313 59.031-131.313 131.313s59.031 131.313 131.313 131.313 131.313-57.826 131.313-131.313c0-72.282-59.031-131.313-131.313-131.313zM633.675 725.082l-19.275 6.024v42.165c9.638-3.614 15.661-12.047 16.866-21.685h32.527c-1.205 27.708-21.685 50.598-49.393 55.416v10.842h-32.527v-10.842c-27.708-4.819-48.188-27.708-49.393-55.416 1.205-18.071 12.047-32.527 30.118-38.551l19.275-6.024v-42.165c-9.638 3.614-15.661 12.047-16.866 21.685h-32.527c1.205-27.708 21.685-50.598 49.393-55.416v-10.842h32.527v10.842c27.708 4.819 48.188 27.708 49.393 55.416-1.205 18.071-13.252 32.527-30.118 38.551zM580.668 741.948l-9.638 3.614c-3.614 1.205-7.228 4.819-7.228 7.228 1.205 9.638 7.228 18.071 16.866 21.685v-32.527zM614.4 664.847v31.322l9.638-3.614c3.614-1.205 7.228-4.819 7.228-7.228-1.205-8.433-8.433-16.866-16.866-20.48zM1037.252 270.908l-54.212 54.212 54.212 54.212c6.024 6.024 6.024 16.866 0 22.889l-214.438 213.233c-6.024 6.024-16.866 6.024-22.889 0l-210.824-209.619-226.485 226.485c-6.024 6.024-16.866 6.024-22.889 0l-214.438-213.233c-6.024-6.024-6.024-16.866 0-22.889l120.471-120.471h-191.548v-32.527h213.233c2.409 0 4.819 0 6.024 1.205l112.038 48.188h243.351v-66.259h-180.706c-9.638 0-16.866-7.228-16.866-16.866 0-6.024 3.614-12.047 9.638-14.456l213.233-98.786c4.819-2.409 12.047-2.409 16.866 1.205l284.311 206.005 43.369-43.369-325.271-280.696h-89.148l-309.609 114.447c-2.409 1.205-3.614 1.205-6.024 1.205h-214.438v-32.527h210.824l310.814-114.447c2.409-1.205 3.614-1.205 6.024-1.205h98.786c3.614 0 7.228 1.205 10.842 3.614l344.546 296.358c6.024 6.024 7.228 15.661 1.205 24.094 0-1.205 0-1.205 0 0zM383.096 325.12c-2.409 0-4.819 0-6.024-1.205l-3.614-2.409c15.661 42.165 63.849 62.645 106.014 46.984 20.48-8.433 37.346-24.094 45.779-43.369h-142.155zM560.188 325.12c-14.456 49.393-59.031 81.92-110.833 81.92-57.826 0-107.219-43.369-114.447-101.195l-51.802-21.685-122.88 122.88 190.344 190.344 272.264-272.264h-62.645zM661.384 129.958l-137.336 63.849h122.88c9.638 0 16.866 7.228 16.866 16.866v74.692l89.148-89.148-91.558-66.259zM664.998 329.939c6.024 34.936 37.346 60.235 72.282 60.235 40.96 0 73.487-32.527 73.487-73.487 0-36.141-25.299-66.259-60.235-72.282l-85.534 85.534zM777.035 217.901c6.024 2.409 13.252 6.024 19.275 9.638l-16.866-12.047-2.409 2.409zM948.104 337.167l-144.565-104.809c45.779 37.346 54.212 103.605 16.866 150.588-37.346 45.779-103.605 54.212-150.588 16.866-14.456-10.842-25.299-26.504-32.527-43.369l-25.299 25.299 198.776 198.776 190.344-190.344-53.007-53.007z" />
<glyph unicode="&#xe90f;" glyph-name="i5" horiz-adv-x="1096" d="M963.765 487.755c-37.346 18.071-106.014 19.275-109.628 19.275-8.433 0-15.661-7.228-15.661-15.661s7.228-15.661 15.661-15.661c18.071 0 69.873-2.409 95.172-15.661 2.409-1.205 4.819-1.205 7.228-1.205 6.024 0 12.047 3.614 14.456 8.433 3.614 7.228 1.205 16.866-7.228 20.48zM1043.275 261.271l-66.259 19.275c-2.409 1.205-4.819 3.614-4.819 6.024v21.685c4.819 3.614 10.842 8.433 15.661 12.047 22.889 22.889 36.141 53.007 36.141 84.329v30.118l6.024 13.252c7.228 14.456 10.842 30.118 10.842 45.779v81.92c0 8.433-7.228 15.661-15.661 15.661h-152.998c-55.416 0-101.195-45.779-101.195-101.195v0c0-13.252 3.614-26.504 8.433-37.346l8.433-16.866v-26.504c0-40.96 20.48-78.306 50.598-99.991v-22.889c0-3.614 0-4.819-13.252-8.433l-32.527-9.638-92.762 33.732c0 4.819-1.205 8.433-4.819 12.047l-28.913 31.322v51.802c3.614 2.409 6.024 4.819 9.638 8.433 37.346 34.936 59.031 84.329 59.031 136.132v42.165c10.842 24.094 16.866 50.598 16.866 77.101v169.864c0 8.433-7.228 15.661-15.661 15.661h-238.532c-84.329 0-151.793-68.668-151.793-151.793v-33.732c0-26.504 6.024-53.007 16.866-77.101v-36.141c0-59.031 26.504-113.242 68.668-148.179v-54.212l-30.118-31.322c-3.614-3.614-4.819-7.228-4.819-12.047l-97.581-36.141c-7.228-2.409-13.252-6.024-19.275-10.842l-15.661 7.228c45.779 20.48 60.235 48.188 61.44 49.393 2.409 4.819 2.409 9.638 0 14.456-12.047 22.889-13.252 65.054-14.456 98.786 0 10.842-1.205 21.685-1.205 31.322-6.024 75.896-63.849 133.722-134.927 133.722s-131.313-56.621-136.132-132.518c-1.205-9.638-1.205-20.48-1.205-31.322-1.205-33.732-2.409-75.896-14.456-98.786-2.409-4.819-2.409-9.638 0-14.456 1.205-1.205 15.661-28.913 61.44-49.393l-43.369-21.685c-22.889-10.842-37.346-34.936-37.346-60.235v-118.061c0-8.433 7.228-15.661 15.661-15.661s16.866 7.228 16.866 16.866v118.061c0 13.252 7.228 25.299 19.275 31.322l53.007 26.504 18.071-18.071c13.252-12.047 30.118-18.071 45.779-18.071 16.866 0 33.732 6.024 45.779 18.071l18.071 18.071 16.866-8.433c-8.433-13.252-13.252-28.913-13.252-44.574v-122.88c0-8.433 7.228-15.661 15.661-15.661s15.661 7.228 15.661 15.661v122.88c0 21.685 13.252 42.165 34.936 49.393l103.605 37.346 43.369-65.054c6.024-8.433 14.456-13.252 24.094-14.456 1.205 0 2.409 0 3.614 0 8.433 0 16.866 3.614 22.889 9.638l26.504 26.504v-166.249c0-8.433 7.228-15.661 15.661-15.661s15.661 7.228 15.661 15.661v166.249l26.504-26.504c6.024-6.024 14.456-9.638 22.889-9.638 1.205 0 2.409 0 3.614 0 9.638 1.205 19.275 6.024 24.094 14.456l43.369 65.054 103.605-37.346c20.48-7.228 34.936-27.708 34.936-49.393v-122.88c0-8.433 7.228-15.661 15.661-15.661s15.661 7.228 15.661 15.661v122.88c0 21.685-8.433 43.369-24.094 57.826l3.614 1.205c3.614 1.205 9.638 2.409 14.456 4.819l40.96-40.96v-146.974c0-8.433 7.228-15.661 15.661-15.661s15.661 7.228 15.661 15.661v148.179l40.96 40.96c2.409-1.205 4.819-2.409 7.228-2.409l66.259-19.275c14.456-4.819 25.299-18.071 25.299-33.732v-131.313c0-8.433 7.228-15.661 15.661-15.661s15.661 7.228 15.661 15.661v130.108c3.614 30.118-16.866 56.621-45.779 65.054zM106.014 288.979c-30.118 10.842-44.574 25.299-50.598 32.527 4.819 10.842 7.228 24.094 9.638 38.551 8.433-20.48 24.094-38.551 42.165-51.802v-19.275zM197.572 245.609c-13.252-13.252-34.936-13.252-48.188 0l-14.456 14.456c2.409 4.819 3.614 9.638 3.614 15.661v16.866c10.842-3.614 22.889-4.819 34.936-4.819s24.094 2.409 34.936 4.819v-16.866c0-6.024 1.205-10.842 3.614-15.661l-14.456-14.456zM173.478 319.096c-48.188 0-86.739 38.551-86.739 86.739 0 8.433-7.228 15.661-15.661 15.661-1.205 0-1.205 0-2.409 0 0 1.205 0 2.409 0 3.614 0 10.842 1.205 21.685 1.205 30.118 2.409 28.913 13.252 55.416 32.527 74.692s44.574 30.118 71.078 30.118 51.802-10.842 71.078-30.118c19.275-19.275 30.118-45.779 32.527-74.692 1.205-8.433 1.205-19.275 1.205-30.118 0-1.205 0-2.409 0-2.409-16.866 26.504-44.574 46.984-78.306 57.826-32.527 10.842-59.031 9.638-60.235 9.638-3.614 0-8.433-2.409-10.842-4.819l-28.913-30.118c-6.024-6.024-6.024-16.866 0-22.889s16.866-6.024 22.889 0l24.094 25.299c20.48-1.205 86.739-8.433 113.242-65.054-8.433-42.165-43.369-73.487-86.739-73.487zM240.941 288.979v19.275c18.071 13.252 33.732 30.118 42.165 51.802 2.409-13.252 4.819-26.504 9.638-38.551-7.228-7.228-22.889-21.685-51.802-32.527zM393.939 547.991v38.551c0 2.409 0 4.819-1.205 7.228-10.842 21.685-15.661 43.369-15.661 67.464v33.732c0 66.259 54.212 120.471 120.471 120.471h222.871v-154.202c0-22.889-4.819-45.779-15.661-67.464-1.205-2.409-1.205-4.819-1.205-7.228v-45.779c0-43.369-16.866-83.125-49.393-113.242-3.614-3.614-8.433-7.228-12.047-10.842 0 0 0 0 0 0-28.913-22.889-66.259-33.732-103.605-31.322-80.715 7.228-144.565 78.306-144.565 162.635zM483.087 226.334c0 0 0 0 0 0-1.205 0-1.205 0-1.205 0l-49.393 74.692 15.661 16.866 74.692-51.802-39.755-39.755zM548.141 288.979l-86.739 59.031v30.118c22.889-12.047 46.984-19.275 73.487-21.685 3.614 0 8.433 0 12.047 0 30.118 0 60.235 7.228 86.739 21.685v-28.913l-85.534-60.235zM614.4 227.539c0-1.205 0-1.205 0 0-1.205 0-1.205 0-1.205 0l-39.755 39.755 74.692 51.802 15.661-16.866-49.393-74.692zM905.939 240.791l-36.141 36.141c1.205 2.409 1.205 6.024 1.205 9.638v7.228c9.638-3.614 20.48-4.819 31.322-6.024 1.205 0 2.409 0 3.614 0 12.047 0 24.094 2.409 34.936 4.819v-6.024c0-3.614 0-6.024 1.205-9.638l-36.141-36.141zM966.174 343.191c-16.866-16.866-39.755-25.299-62.645-24.094-45.779 1.205-83.125 42.165-83.125 90.353v30.118c0 2.409 0 4.819-1.205 7.228l-10.842 19.275c-3.614 7.228-6.024 15.661-6.024 22.889v1.205c0 38.551 31.322 68.668 68.668 68.668h137.336v-66.259c0-10.842-2.409-21.685-7.228-31.322l-8.433-15.661c-1.205-2.409-1.205-4.819-1.205-7.228v-32.527c1.205-24.094-8.433-45.779-25.299-62.645zM1008.339 182.965c-8.433 0-15.661-7.228-15.661-15.661v-102.4c0-8.433 7.228-15.661 15.661-15.661s15.661 7.228 15.661 15.661v102.4c0 8.433-7.228 15.661-15.661 15.661zM87.944 161.28c-8.433 0-15.661-7.228-15.661-15.661v-80.715c0-8.433 7.228-15.661 15.661-15.661s15.661 7.228 15.661 15.661v80.715c0 8.433-6.024 15.661-15.661 15.661zM679.454 655.209c-60.235 60.235-186.729 48.188-237.327 40.96-15.661-2.409-27.708-15.661-27.708-32.527v-36.141c0-8.433 7.228-15.661 15.661-15.661s15.661 7.228 15.661 15.661v36.141c0 0 0 1.205 1.205 1.205 20.48 3.614 61.44 8.433 103.605 4.819 49.393-3.614 85.534-15.661 107.219-37.346 6.024-6.024 16.866-6.024 22.889 0 4.819 6.024 4.819 16.866-1.205 22.889zM361.412 149.233c-8.433 0-15.661-7.228-15.661-15.661v-68.668c0-8.433 7.228-15.661 15.661-15.661s15.661 7.228 15.661 15.661v68.668c0 8.433-7.228 15.661-15.661 15.661zM736.075 149.233c-8.433 0-15.661-7.228-15.661-15.661v-68.668c0-8.433 7.228-15.661 15.661-15.661s15.661 7.228 15.661 15.661v68.668c0 8.433-7.228 15.661-15.661 15.661z" />
<glyph unicode="&#xe910;" glyph-name="i6" horiz-adv-x="1096" d="M443.332 441.976c-7.228 7.228-20.48 7.228-27.708 0s-7.228-20.48 0-27.708c7.228-7.228 20.48-7.228 27.708 0s7.228 20.48 0 27.708zM548.141 408.245c-32.527 0-59.031-26.504-59.031-59.031s26.504-59.031 59.031-59.031 59.031 26.504 59.031 59.031c0 32.527-26.504 59.031-59.031 59.031zM548.141 328.734c-10.842 0-19.275 8.433-19.275 19.275s8.433 19.275 19.275 19.275c10.842 0 19.275-8.433 19.275-19.275 0-9.638-8.433-19.275-19.275-19.275zM548.141 507.031c-21.685 0-43.369-4.819-63.849-13.252-9.638-3.614-14.456-15.661-9.638-25.299s15.661-14.456 26.504-9.638c14.456 6.024 31.322 9.638 48.188 9.638 65.054 0 119.266-53.007 119.266-119.266s-53.007-119.266-119.266-119.266-119.266 53.007-119.266 119.266c0 1.205 0 1.205 0 2.409 0 10.842-8.433 20.48-19.275 20.48s-20.48-8.433-20.48-19.275c0-1.205 0-2.409 0-2.409 0-87.944 71.078-159.021 159.021-159.021s157.816 69.873 157.816 157.816-71.078 157.816-159.021 157.816zM548.141 804.593c-10.842 0-19.275-8.433-19.275-19.275v-119.266c0-10.842 8.433-19.275 19.275-19.275s19.275 8.433 19.275 19.275v119.266c0 10.842-8.433 19.275-19.275 19.275zM326.475 657.619l-84.329 84.329c-7.228 7.228-20.48 7.228-27.708 0s-7.228-20.48 0-27.708l84.329-84.329c7.228-7.228 20.48-7.228 27.708 0 7.228 8.433 7.228 20.48 0 27.708zM881.845 741.948c-7.228 7.228-20.48 7.228-27.708 0l-84.329-84.329c-7.228-7.228-7.228-20.48 0-27.708s20.48-7.228 27.708 0l84.329 84.329c8.433 7.228 8.433 20.48 0 27.708zM1051.708 345.6c-126.494 142.155-313.224 261.421-503.567 261.421s-377.073-119.266-503.567-261.421c-7.228-8.433-6.024-20.48 1.205-27.708 8.433-7.228 20.48-6.024 27.708 1.205 4.819 4.819 8.433 9.638 13.252 14.456 97.581-148.179 275.878-242.146 460.198-242.146s363.821 93.967 461.402 242.146c4.819-4.819 8.433-9.638 13.252-14.456 7.228-8.433 19.275-8.433 27.708-1.205s9.638 19.275 2.409 27.708zM548.141 129.958c-174.682 0-342.136 90.353-432.489 232.508 71.078 69.873 233.713 204.8 432.489 204.8 197.572 0 361.412-134.927 432.489-204.8-90.353-140.951-257.807-232.508-432.489-232.508z" />
<glyph unicode="&#xe911;" glyph-name="i7" horiz-adv-x="1096" d="M414.419 31.172h-99.991c-9.638 0-16.866-7.228-16.866-16.866s7.228-16.866 16.866-16.866h99.991c9.638 0 16.866 7.228 16.866 16.866s-7.228 16.866-16.866 16.866zM448.151 897.355h-99.991c-9.638 0-16.866-7.228-16.866-16.866s7.228-16.866 16.866-16.866h99.991c9.638 0 16.866 7.228 16.866 16.866s-7.228 16.866-16.866 16.866zM281.901 897.355h-33.732c-9.638 0-16.866-7.228-16.866-16.866s7.228-16.866 16.866-16.866h33.732c9.638 0 16.866 7.228 16.866 16.866s-8.433 16.866-16.866 16.866zM365.026 697.374c18.071 0 33.732-14.456 33.732-33.732 0-9.638 7.228-16.866 16.866-16.866s16.866 7.228 16.866 16.866c0 30.118-20.48 56.621-49.393 63.849v19.275h-33.732v-19.275c-36.141-9.638-56.621-45.779-48.188-80.715 7.228-28.913 33.732-49.393 65.054-49.393 18.071 0 33.732-14.456 33.732-33.732 0-18.071-14.456-33.732-33.732-33.732-18.071 0-33.732 14.456-33.732 33.732 0 9.638-7.228 16.866-16.866 16.866s-16.866-7.228-16.866-16.866c0-30.118 20.48-56.621 49.393-63.849v-19.275h33.732v19.275c36.141 9.638 56.621 45.779 48.188 80.715-7.228 28.913-33.732 49.393-65.054 49.393-18.071 0-33.732 14.456-33.732 33.732s15.661 33.732 33.732 33.732zM365.026 797.365c-101.195 0-183.115-81.92-183.115-183.115s81.92-183.115 183.115-183.115 183.115 81.92 183.115 183.115c0 101.195-81.92 183.115-183.115 183.115zM365.026 464.866c-83.125 0-149.384 67.464-149.384 149.384 0 83.125 67.464 149.384 149.384 149.384 83.125 0 149.384-67.464 149.384-149.384s-66.259-149.384-149.384-149.384zM881.845 131.162c-37.346 0-66.259-30.118-66.259-66.259s30.118-66.259 66.259-66.259c37.346 0 66.259 30.118 66.259 66.259s-30.118 66.259-66.259 66.259zM881.845 31.172c-18.071 0-33.732 14.456-33.732 33.732s14.456 33.732 33.732 33.732c18.071 0 33.732-14.456 33.732-33.732s-15.661-33.732-33.732-33.732zM664.998 131.162c-3.614 0-8.433 0-12.047-1.205-1.205 0-2.409-1.205-3.614-1.205-2.409-1.205-4.819-1.205-8.433-2.409-1.205 0-2.409-1.205-3.614-2.409-2.409-1.205-4.819-2.409-7.228-3.614-1.205-1.205-2.409-1.205-3.614-2.409-2.409-1.205-3.614-3.614-6.024-4.819-1.205-1.205-2.409-2.409-3.614-2.409-2.409-2.409-3.614-4.819-6.024-7.228 0-1.205-1.205-1.205-1.205-2.409-2.409-3.614-3.614-7.228-6.024-10.842 0-1.205-1.205-2.409-1.205-3.614-1.205-2.409-1.205-4.819-2.409-7.228h-518.024v734.871h566.212v-33.732c0-9.638 7.228-16.866 16.866-16.866s16.866 7.228 16.866 16.866v84.329c0 45.779-37.346 83.125-83.125 83.125h-467.426c-45.779 0-83.125-37.346-83.125-83.125v-833.656c0-45.779 37.346-83.125 83.125-83.125h466.221c33.732 0 63.849 20.48 77.101 50.598 36.141 6.024 61.44 39.755 55.416 75.896-3.614 32.527-32.527 56.621-65.054 56.621zM81.92 864.828c0 27.708 22.889 49.393 49.393 49.393h466.221c27.708 0 49.393-22.889 49.393-49.393v-16.866h-566.212v16.866zM597.534-18.221h-466.221c-27.708 0-49.393 22.889-49.393 49.393v16.866h519.228c0-1.205 1.205-2.409 1.205-2.409 1.205-3.614 2.409-6.024 3.614-9.638 1.205-1.205 1.205-2.409 2.409-4.819s3.614-6.024 6.024-8.433c1.205-1.205 1.205-2.409 2.409-3.614 3.614-3.614 6.024-7.228 10.842-9.638 0 0 1.205 0 1.205-1.205 3.614-2.409 7.228-4.819 10.842-6.024 0 0 1.205 0 1.205-1.205-10.842-12.047-26.504-19.275-43.369-19.275zM664.998 31.172c0 0-1.205 0-1.205 0-18.071 1.205-31.322 15.661-31.322 33.732s14.456 33.732 33.732 33.732 33.732-14.456 33.732-33.732c-2.409-18.071-16.866-33.732-34.936-33.732zM1044.48 408.245c-3.614 3.614-8.433 7.228-13.252 7.228h-424.056l-3.614 32.527c-1.205 8.433-7.228 14.456-15.661 14.456l-55.416 2.409c-9.638 0-16.866-7.228-18.071-15.661 0-9.638 7.228-16.866 15.661-18.071l42.165-2.409 26.504-266.24c1.205-8.433 8.433-14.456 16.866-14.456h299.972c37.346 0 69.873 25.299 80.715 60.235l50.598 185.525c2.409 4.819 1.205 9.638-2.409 14.456zM962.56 217.901c-6.024-21.685-25.299-36.141-48.188-36.141h-284.311l-19.275 199.981h398.758l-46.984-163.84zM531.275 731.106c0-9.638 7.228-16.866 16.866-16.866h233.713c9.638 0 16.866 7.228 16.866 16.866s-7.228 16.866-16.866 16.866h-233.713c-9.638 0-16.866-7.228-16.866-16.866zM565.007 514.259h333.704c9.638 0 16.866 7.228 16.866 16.866s-7.228 16.866-16.866 16.866h-333.704c-9.638 0-16.866-7.228-16.866-16.866s7.228-16.866 16.866-16.866zM565.007 664.847c0-9.638 7.228-16.866 16.866-16.866h233.713c9.638 0 16.866 7.228 16.866 16.866s-7.228 16.866-16.866 16.866h-233.713c-9.638 0-16.866-8.433-16.866-16.866zM848.113 581.722c9.638 0 16.866 7.228 16.866 16.866s-7.228 16.866-16.866 16.866h-266.24c-9.638 0-16.866-7.228-16.866-16.866s7.228-16.866 16.866-16.866h266.24zM848.113 714.24h33.732c9.638 0 16.866 7.228 16.866 16.866s-7.228 16.866-16.866 16.866h-33.732c-9.638 0-16.866-7.228-16.866-16.866s7.228-16.866 16.866-16.866zM864.979 664.847c0-9.638 7.228-16.866 16.866-16.866h33.732c9.638 0 16.866 7.228 16.866 16.866s-7.228 16.866-16.866 16.866h-33.732c-9.638 0-16.866-8.433-16.866-16.866zM897.506 597.384c0-9.638 7.228-16.866 16.866-16.866h33.732c9.638 0 16.866 7.228 16.866 16.866s-7.228 16.866-16.866 16.866h-33.732c-8.433 0-16.866-7.228-16.866-16.866zM948.104 531.125c0-9.638 7.228-16.866 16.866-16.866h33.732c9.638 0 16.866 7.228 16.866 16.866s-7.228 16.866-16.866 16.866h-33.732c-9.638 0-16.866-7.228-16.866-16.866zM497.544 381.741h-266.24c-9.638 0-16.866-7.228-16.866-16.866s7.228-16.866 16.866-16.866h266.24c9.638 0 16.866 7.228 16.866 16.866s-7.228 16.866-16.866 16.866zM181.911 364.875c0 9.638-7.228 16.866-16.866 16.866h-33.732c-9.638 0-16.866-7.228-16.866-16.866s7.228-16.866 16.866-16.866h33.732c8.433 0 16.866 7.228 16.866 16.866zM531.275 314.278h-266.24c-9.638 0-16.866-7.228-16.866-16.866s7.228-16.866 16.866-16.866h266.24c9.638 0 16.866 7.228 16.866 16.866s-7.228 16.866-16.866 16.866zM165.045 281.751h33.732c9.638 0 16.866 7.228 16.866 16.866s-7.228 16.866-16.866 16.866h-33.732c-9.638 0-16.866-7.228-16.866-16.866s7.228-16.866 16.866-16.866zM548.141 248.019h-250.579c-9.638 0-16.866-7.228-16.866-16.866s7.228-16.866 16.866-16.866h249.374c9.638 0 16.866 7.228 16.866 16.866s-6.024 16.866-15.661 16.866zM197.572 214.287h33.732c9.638 0 16.866 7.228 16.866 16.866s-7.228 16.866-16.866 16.866h-33.732c-9.638 0-16.866-7.228-16.866-16.866s8.433-16.866 16.866-16.866zM314.428 164.894c0-9.638 7.228-16.866 16.866-16.866h233.713c9.638 0 16.866 7.228 16.866 16.866s-7.228 16.866-16.866 16.866h-233.713c-8.433 0-16.866-8.433-16.866-16.866zM231.304 148.028h33.732c9.638 0 16.866 7.228 16.866 16.866s-7.228 16.866-16.866 16.866h-33.732c-9.638 0-16.866-7.228-16.866-16.866s8.433-16.866 16.866-16.866z" />
<glyph unicode="&#xe912;" glyph-name="i8" horiz-adv-x="1096" d="M337.318 562.447v39.755c-39.755 32.527-65.054 81.92-65.054 137.336 0 98.786 81.92 180.706 180.706 180.706s180.706-81.92 180.706-180.706c0-42.165-16.866-85.534-42.165-114.447 13.252 0 22.889-3.614 36.141-6.024 26.504 36.141 39.755 78.306 39.755 124.085 0 118.061-95.172 213.233-213.233 213.233s-215.642-95.172-215.642-213.233c0-75.896 39.755-140.951 98.786-180.706zM598.739 743.153c0 81.92-65.054 148.179-148.179 148.179s-146.974-66.259-146.974-148.179c0-36.141 13.252-68.668 32.527-91.558v91.558c0 62.645 53.007 114.447 114.447 114.447s115.652-51.802 115.652-114.447v-91.558c20.48 22.889 32.527 55.416 32.527 91.558zM845.704 497.393c-19.275 0-36.141-6.024-49.393-16.866v0c0 45.779-36.141 81.92-81.92 81.92-19.275 0-39.755-6.024-55.416-19.275-13.252 32.527-42.165 53.007-75.896 53.007-19.275 0-36.141-6.024-49.393-16.866v163.84c0 45.779-36.141 81.92-81.92 81.92s-81.92-36.141-81.92-81.92v-291.539c-65.054 59.031-137.336 104.809-183.115 59.031-65.054-65.054 72.282-193.958 177.092-386.711 75.896-134.927 180.706-183.115 285.515-183.115 152.998-1.205 278.287 122.88 278.287 277.082v197.572c0 45.779-36.141 81.92-81.92 81.92zM895.096 343.191v-124.085c0-128.904-112.038-246.965-246.965-246.965-124.085 0-196.367 68.668-255.398 163.84-127.699 216.847-220.461 315.633-184.32 351.774s124.085-42.165 193.958-114.447v369.845c0 26.504 22.889 49.393 49.393 49.393s49.393-22.889 49.393-49.393v-344.546h32.527v114.447c0 26.504 22.889 49.393 49.393 49.393s49.393-22.889 49.393-49.393v-81.92h32.527v49.393c0 26.504 22.889 49.393 49.393 49.393s49.393-22.889 49.393-49.393v-81.92h32.527v16.866c0 26.504 22.889 49.393 49.393 49.393s49.393-22.889 49.393-49.393v-72.282z" />
<glyph unicode="&#xe913;" glyph-name="settings" d="M1005.037 504.889c0 15.17-18.963 22.756-30.341 22.756-45.511 0-87.23 26.548-102.4 68.267-18.963 41.719-7.585 91.022 26.548 121.363 11.378 11.378 11.378 26.548 3.793 37.926-22.756 30.341-49.304 56.889-79.644 79.644-11.378 7.585-26.548 7.585-37.926-3.793-30.341-34.133-83.437-45.511-125.156-26.548s-68.267 60.681-68.267 106.193c0 15.17-11.378 26.548-22.756 30.341-37.926 3.793-75.852 3.793-109.985 0-15.17 0-26.548-15.17-22.756-26.548 0-45.511-26.548-87.23-68.267-106.193s-94.815-7.585-125.156 26.548c-11.378 11.378-26.548 11.378-37.926 3.793-30.341-22.756-56.889-49.304-79.644-79.644-7.585-11.378-7.585-26.548 3.793-37.926 34.133-30.341 45.511-79.644 26.548-125.156-18.963-41.719-60.681-68.267-106.193-68.267-15.17 0-26.548-11.378-30.341-22.756-3.793-37.926-3.793-75.852 0-113.778 0-15.17 18.963-22.756 34.133-22.756 41.719 0 83.437-26.548 102.4-68.267s7.585-91.022-26.548-121.363c-11.378-11.378-11.378-26.548-3.793-37.926 22.756-30.341 49.304-56.889 79.644-79.644 11.378-7.585 26.548-7.585 37.926 3.793 30.341 34.133 83.437 45.511 125.156 26.548s68.267-60.681 68.267-106.193c0-15.17 11.378-26.548 22.756-30.341 18.963-3.793 37.926-3.793 56.889-3.793s37.926 0 53.096 3.793c15.17 0 26.548 15.17 22.756 26.548 0 45.511 26.548 87.23 68.267 106.193 41.719 15.17 94.815 3.793 121.363-26.548 11.378-11.378 26.548-11.378 37.926-3.793 30.341 22.756 56.889 49.304 79.644 79.644 7.585 11.378 7.585 26.548-3.793 37.926-34.133 30.341-45.511 79.644-26.548 125.156 15.17 41.719 56.889 68.267 102.4 68.267h7.585c15.17 0 26.548 11.378 30.341 22.756 0 37.926 0 75.852-3.793 113.778zM512 281.126c-91.022 0-166.874 75.852-166.874 166.874s75.852 166.874 166.874 166.874c91.022 0 166.874-75.852 166.874-166.874s-75.852-166.874-166.874-166.874z" />
<glyph unicode="&#xe914;" glyph-name="user" d="M512 421.452c117.57 0 208.593 109.985 208.593 246.519 0 189.63-94.815 246.519-208.593 246.519-117.57-3.793-208.593-60.681-208.593-246.519 0-136.533 91.022-246.519 208.593-246.519zM974.696 57.363l-106.193 238.933c-3.793 11.378-15.17 18.963-22.756 26.548l-163.081 87.23c-3.793 0-7.585 0-11.378 0-49.304-37.926-102.4-56.889-159.289-56.889s-109.985 18.963-159.289 53.096c-3.793 3.793-7.585 3.793-11.378 0l-163.081-87.23c-11.378-3.793-18.963-15.17-22.756-26.548l-106.193-238.933c-7.585-15.17-7.585-34.133 3.793-49.304s26.548-22.756 45.511-22.756h830.578c18.963 0 34.133 7.585 45.511 22.756 7.585 18.963 7.585 37.926 0 53.096z" />
<glyph unicode="&#xe915;" glyph-name="allert1" d="M1009.371 502.857c0 14.629-18.286 25.6-32.914 25.6-47.543 0-87.771 25.6-102.4 69.486-18.286 43.886-7.314 91.429 29.257 124.343 10.971 10.971 10.971 25.6 3.657 36.571-21.943 29.257-51.2 58.514-80.457 80.457-10.971 10.971-29.257 7.314-36.571-3.657-29.257-32.914-84.114-43.886-124.343-29.257-43.886 18.286-69.486 62.171-69.486 109.714 0 14.629-10.971 29.257-25.6 29.257-36.571 3.657-76.8 3.657-113.371 0-14.629 0-25.6-14.629-25.6-29.257 0-47.543-25.6-91.429-69.486-106.057-40.229-14.629-91.429-3.657-124.343 29.257-7.314 10.971-25.6 10.971-36.571 3.657-29.257-25.6-58.514-51.2-80.457-80.457-10.971-10.971-7.314-29.257 3.657-36.571 36.571-32.914 47.543-80.457 29.257-124.343-18.286-40.229-58.514-69.486-109.714-69.486-14.629 0-25.6-10.971-29.257-25.6-3.657-36.571-3.657-76.8 0-113.371 0-14.629 18.286-25.6 32.914-25.6 43.886 0 84.114-25.6 102.4-69.486s7.314-91.429-29.257-124.343c-10.971-10.971-10.971-25.6-3.657-36.571 21.943-29.257 51.2-58.514 80.457-80.457 10.971-10.971 29.257-7.314 36.571 3.657 29.257 32.914 84.114 43.886 124.343 29.257 43.886-18.286 69.486-62.171 69.486-109.714 0-14.629 10.971-29.257 25.6-29.257 18.286-3.657 40.229-3.657 58.514-3.657s36.571 0 54.857 3.657c14.629 0 25.6 14.629 25.6 29.257 0 47.543 25.6 87.771 69.486 106.057 40.229 18.286 95.086 3.657 124.343-29.257 10.971-10.971 25.6-10.971 36.571-3.657 29.257 21.943 58.514 51.2 80.457 80.457 10.971 10.971 7.314 29.257-3.657 36.571-36.571 32.914-47.543 80.457-29.257 124.343 18.286 40.229 58.514 69.486 102.4 69.486h7.314c14.629 0 29.257 10.971 29.257 25.6 7.314 36.571 7.314 76.8 0 113.371zM497.371 177.371c-36.571 0-62.171 29.257-62.171 62.171s29.257 62.171 62.171 62.171c36.571 0 62.171-29.257 62.171-62.171s-25.6-62.171-62.171-62.171zM559.543 426.057c0-36.571-29.257-62.171-62.171-62.171-36.571 0-62.171 29.257-62.171 62.171v252.343c0 36.571 29.257 62.171 62.171 62.171 36.571 0 62.171-29.257 62.171-62.171v-252.343z" />
<glyph unicode="&#xe916;" glyph-name="v" horiz-adv-x="1365" d="M614.4-52.622c-11.378 0-34.133 0-56.889 11.378-22.756 0-79.644 45.511-91.022 68.267l-409.6 398.222c-11.378 11.378-11.378 45.511 0 56.889l159.289 159.289c11.378 11.378 45.511 11.378 56.889 0l284.444-284.444c11.378-11.378 45.511-11.378 56.889 0l455.111 568.889c11.378 22.756 45.511 34.133 56.889 11.378l170.667-136.533c22.756-11.378 22.756-45.511 11.378-56.889l-568.889-705.422c-11.378-22.756-34.133-45.511-45.511-68.267 0 0-34.133-22.756-79.644-22.756 0 0 0 0 0 0z" />
<glyph unicode="&#xe917;" glyph-name="allert2" d="M1005.714 67.657l-438.857 819.2c-10.971 21.943-32.914 32.914-54.857 32.914v0c-21.943 0-43.886-14.629-54.857-32.914l-438.857-819.2c-10.971-18.286-10.971-43.886 0-62.171s32.914-29.257 54.857-29.257h877.714c21.943 0 43.886 10.971 54.857 29.257s10.971 43.886 0 62.171zM512 100.571c-36.571 0-62.171 29.257-62.171 62.171s29.257 65.829 62.171 65.829c36.571 0 62.171-29.257 62.171-62.171s-25.6-65.829-62.171-65.829zM577.829 352.914c0-36.571-29.257-62.171-62.171-62.171-36.571 0-62.171 29.257-62.171 62.171v252.343c0 36.571 29.257 62.171 62.171 62.171 36.571 0 62.171-29.257 62.171-62.171v-252.343z" />
<glyph unicode="&#xe918;" glyph-name="bell" d="M394.43 68.741c0 0 0 0 0 0 0-64.474 53.096-117.57 117.57-117.57s117.57 53.096 117.57 117.57c0 0 0 0 0 0h-235.141zM891.259 216.652l-106.193 155.496c0 49.304 0 163.081 0 193.422 0 132.741-94.815 242.726-219.97 265.481v64.474c0 30.341-22.756 53.096-53.096 53.096s-53.096-22.756-53.096-53.096v-60.681c-125.156-26.548-219.97-132.741-219.97-265.481 0-53.096 0-166.874 0-193.422l-106.193-155.496c-11.378-15.17-11.378-37.926-3.793-56.889s26.548-30.341 49.304-30.341h667.496c18.963 0 37.926 11.378 49.304 30.341 7.585 15.17 7.585 34.133-3.793 53.096z" />
<glyph unicode="&#xe919;" glyph-name="date" d="M386.844 398.696c0 11.378-7.585 22.756-22.756 22.756h-72.059c-11.378 0-22.756-7.585-22.756-22.756v-72.059c0-11.378 7.585-22.756 22.756-22.756h72.059c11.378 0 22.756 7.585 22.756 22.756v72.059zM568.889 398.696c0 11.378-7.585 22.756-22.756 22.756h-72.059c-11.378 0-22.756-7.585-22.756-22.756v-72.059c0-11.378 7.585-22.756 22.756-22.756h72.059c11.378 0 22.756 7.585 22.756 22.756v72.059zM754.726 398.696c0 11.378-7.585 22.756-22.756 22.756h-72.059c-11.378 0-22.756-7.585-22.756-22.756v-72.059c0-11.378 7.585-22.756 22.756-22.756h72.059c11.378 0 22.756 7.585 22.756 22.756v72.059zM386.844 216.652c0 11.378-7.585 22.756-22.756 22.756h-72.059c-11.378 0-22.756-7.585-22.756-22.756v-72.059c0-11.378 7.585-22.756 22.756-22.756h72.059c11.378 0 22.756 7.585 22.756 22.756v72.059zM568.889 216.652c0 11.378-7.585 22.756-22.756 22.756h-72.059c-11.378 0-22.756-7.585-22.756-22.756v-72.059c0-11.378 7.585-22.756 22.756-22.756h72.059c11.378 0 22.756 7.585 22.756 22.756v72.059zM754.726 216.652c0 11.378-7.585 22.756-22.756 22.756h-72.059c-11.378 0-22.756-7.585-22.756-22.756v-72.059c0-11.378 7.585-22.756 22.756-22.756h72.059c11.378 0 22.756 7.585 22.756 22.756v72.059zM883.674 808.296v-113.778c0-49.304-41.719-91.022-91.022-91.022h-56.889c-49.304 0-91.022 41.719-91.022 91.022v113.778h-261.689v-113.778c0-49.304-41.719-91.022-91.022-91.022h-60.681c-49.304 0-91.022 41.719-91.022 91.022v113.778c-45.511 0-83.437-37.926-83.437-83.437v-659.911c0-45.511 37.926-83.437 83.437-83.437h743.348c45.511 0 83.437 37.926 83.437 83.437v659.911c0 45.511-37.926 83.437-83.437 83.437zM857.126 106.667c0-18.963-15.17-34.133-34.133-34.133h-621.985c-18.963 0-34.133 15.17-34.133 34.133v341.333c0 18.963 15.17 34.133 34.133 34.133h621.985c18.963 0 34.133-15.17 34.133-34.133v-341.333zM231.348 664.178h56.889c18.963 0 30.341 15.17 30.341 30.341v185.837c0 18.963-15.17 30.341-30.341 30.341h-56.889c-18.963 0-30.341-15.17-30.341-30.341v-185.837c-3.793-15.17 11.378-30.341 30.341-30.341zM735.763 664.178h56.889c18.963 0 30.341 15.17 30.341 30.341v185.837c0 18.963-15.17 30.341-30.341 30.341h-56.889c-18.963 0-30.341-15.17-30.341-30.341v-185.837c-3.793-15.17 11.378-30.341 30.341-30.341z" />
<glyph unicode="&#xe91a;" glyph-name="filter" d="M963.319 876.563c-7.585 15.17-18.963 26.548-37.926 26.548h-826.785c-18.963 0-30.341-7.585-37.926-26.548-7.585-15.17-3.793-30.341 7.585-45.511l318.578-318.578v-310.993c0-11.378 3.793-22.756 11.378-30.341l166.874-166.874c7.585-7.585 18.963-11.378 30.341-11.378 3.793 0 11.378 0 15.17 3.793 15.17 7.585 26.548 18.963 26.548 37.926v477.867l318.578 318.578c11.378 15.17 15.17 30.341 7.585 45.511z" />
<glyph unicode="&#xe91b;" glyph-name="i1" horiz-adv-x="1096" d="M348.16 831.096c-37.346 0-66.259-30.118-66.259-66.259 0-37.346 30.118-66.259 66.259-66.259s66.259 30.118 66.259 66.259-28.913 66.259-66.259 66.259zM348.16 731.106c-18.071 0-33.732 14.456-33.732 33.732 0 18.071 14.456 33.732 33.732 33.732 18.071 0 33.732-14.456 33.732-33.732 0-18.071-15.661-33.732-33.732-33.732zM748.122 831.096c-37.346 0-66.259-30.118-66.259-66.259 0-37.346 30.118-66.259 66.259-66.259 37.346 0 66.259 30.118 66.259 66.259s-28.913 66.259-66.259 66.259zM748.122 731.106c-18.071 0-33.732 14.456-33.732 33.732 0 18.071 14.456 33.732 33.732 33.732 18.071 0 33.732-14.456 33.732-33.732 0-18.071-15.661-33.732-33.732-33.732zM1042.071 727.492l-283.106 216.847c-6.024 4.819-14.456 4.819-20.48 0l-190.344-144.565-190.344 144.565c-6.024 4.819-14.456 4.819-20.48 0l-283.106-216.847c-3.614-2.409-6.024-7.228-6.024-13.252v-749.327c0-9.638 7.228-16.866 16.866-16.866h966.174c9.638 0 16.866 7.228 16.866 16.866v749.327c0 6.024-2.409 10.842-6.024 13.252zM614.4-18.221h-532.48v724.028l266.24 204.8 266.24-204.8v-724.028zM1014.362-18.221h-366.231v216.847h316.838c9.638 0 16.866 7.228 16.866 16.866v366.231c0 9.638-7.228 16.866-16.866 16.866h-316.838v116.856c0 4.819-2.409 9.638-6.024 13.252l-66.259 50.598 172.273 132.518 266.24-203.595v-726.438zM831.247 264.885c9.638 0 16.866 7.228 16.866 16.866 0 27.708 22.889 49.393 49.393 49.393 9.638 0 16.866 7.228 16.866 16.866v99.991c0 9.638-7.228 16.866-16.866 16.866-27.708 0-49.393 22.889-49.393 49.393 0 9.638-7.228 16.866-16.866 16.866h-183.115v33.732h299.972v-333.704h-299.972v33.732h183.115zM648.132 297.412v199.981h168.659c7.228-32.527 32.527-57.826 65.054-65.054v-69.873c-32.527-7.228-57.826-32.527-65.054-65.054h-168.659zM348.16 614.249c-110.833 0-199.981-89.148-199.981-199.981s89.148-199.981 199.981-199.981 199.981 89.148 199.981 199.981-89.148 199.981-199.981 199.981zM348.16 248.019c-91.558 0-166.249 74.692-166.249 166.249s74.692 166.249 166.249 166.249c91.558 0 166.249-74.692 166.249-166.249s-74.692-166.249-166.249-166.249zM386.711 416.678c-12.047 7.228-24.094 13.252-37.346 16.866-25.299 8.433-33.732 12.047-33.732 31.322 0 18.071 15.661 32.527 33.732 33.732 18.071 0 33.732-14.456 33.732-33.732h33.732c0 30.118-20.48 56.621-49.393 63.849v19.275h-33.732v-19.275c-28.913-8.433-49.393-33.732-49.393-63.849 0-44.574 32.527-55.416 56.621-62.645 9.638-2.409 19.275-7.228 28.913-12.047 14.456-10.842 18.071-31.322 7.228-45.779-6.024-7.228-14.456-12.047-22.889-13.252s-18.071 2.409-24.094 8.433c-7.228 6.024-10.842 15.661-10.842 24.094h-33.732c0-30.118 20.48-56.621 49.393-63.849v-19.275h33.732v19.275c34.936 9.638 55.416 45.779 45.779 80.715-7.228 14.456-15.661 27.708-27.708 36.141z" />
<glyph unicode="&#xe91c;" glyph-name="i2" horiz-adv-x="1096" d="M849.318 621.478l152.998 152.998c7.228 7.228 7.228 18.071 0 25.299-3.614 3.614-7.228 4.819-12.047 4.819v-1.205l-83.125 2.409-2.409 83.125c0 9.638-8.433 18.071-18.071 16.866-4.819 0-8.433-2.409-12.047-4.819l-152.998-150.588c-3.614-3.614-4.819-8.433-4.819-13.252v-18.071c-181.911 125.289-431.285 79.511-556.574-102.4s-79.511-431.285 102.4-556.574c181.911-125.289 431.285-79.511 556.574 102.4 93.967 137.336 93.967 318.042 0 454.174h18.071c3.614 0 8.433 1.205 12.047 4.819zM854.136 388.969c0-202.391-162.635-366.231-365.026-366.231s-365.026 163.84-365.026 365.026 162.635 366.231 365.026 366.231c83.125 0 165.045-28.913 230.099-80.715l1.205-30.118-71.078-71.078c-101.195 89.148-254.193 78.306-343.341-22.889s-78.306-254.193 22.889-343.341 254.193-78.306 343.341 22.889c79.511 90.353 80.715 226.485 2.409 318.042l71.078 71.078 28.913-1.205c50.598-63.849 79.511-144.565 79.511-227.689zM478.268 376.922c7.228-7.228 18.071-7.228 25.299 0l34.936 34.936c3.614-7.228 4.819-14.456 4.819-22.889 0-28.913-24.094-53.007-53.007-53.007s-53.007 24.094-53.007 53.007 24.094 53.007 53.007 53.007c8.433 0 15.661-2.409 22.889-4.819l-34.936-34.936c-7.228-7.228-7.228-18.071 0-25.299zM539.708 463.661c-40.96 26.504-96.376 15.661-122.88-25.299s-15.661-96.376 25.299-122.88c40.96-26.504 96.376-15.661 122.88 25.299 19.275 30.118 19.275 68.668 0 97.581l84.329 84.329c73.487-87.944 62.645-218.052-25.299-292.744s-218.052-62.645-292.744 25.299-62.645 218.052 25.299 292.744c77.101 65.054 190.344 65.054 267.445 0l-84.329-84.329zM755.351 654.005l-2.409 75.896 119.266 119.266 2.409-59.031c0-9.638 8.433-18.071 18.071-18.071l59.031-2.409-120.471-118.061-75.896 2.409z" />
<glyph unicode="&#xe91d;" glyph-name="i3" horiz-adv-x="1096" d="M896.301 603.407c-6.024 12.047-18.071 19.275-31.322 19.275h-101.195c-8.433 46.984-49.393 83.125-99.991 83.125s-91.558-36.141-99.991-83.125h-102.4c8.433 12.047 13.252 26.504 13.252 42.165 0 43.369-34.936 78.306-78.306 78.306s-78.306-34.936-78.306-78.306c0-15.661 4.819-30.118 13.252-42.165h-83.125c-13.252 0-25.299-7.228-31.322-19.275s-6.024-25.299 2.409-36.141l238.532-355.388v-201.186c0-6.024 3.614-12.047 8.433-14.456 2.409-2.409 6.024-2.409 9.638-2.409 2.409 0 4.819 0 7.228 1.205l163.84 71.078c6.024 2.409 10.842 9.638 10.842 16.866v128.904l238.532 355.388c4.819 10.842 6.024 24.094 0 36.141zM663.793 670.871c30.118 0 55.416-20.48 63.849-48.188h-127.699c8.433 27.708 33.732 48.188 63.849 48.188zM396.348 708.216c24.094 0 42.165-19.275 42.165-42.165s-19.275-43.369-42.165-43.369-42.165 19.275-42.165 42.165 18.071 43.369 42.165 43.369zM622.833 227.539c-2.409-2.409-3.614-6.024-3.614-9.638v-125.289l-127.699-55.416v162.635h63.849c9.638 0 18.071 8.433 18.071 18.071s-8.433 18.071-18.071 18.071h-72.282l-179.501 265.035h359.002c9.638 0 18.071 8.433 18.071 18.071s-8.433 18.071-18.071 18.071h-381.892l-33.732 49.393h618.014l-242.146-359.002zM616.809 903.379c-43.369 0-78.306-34.936-78.306-78.306s34.936-78.306 78.306-78.306c43.369 0 78.306 34.936 78.306 78.306s-36.141 78.306-78.306 78.306zM616.809 782.908c-24.094 0-42.165 19.275-42.165 42.165s19.275 42.165 42.165 42.165 42.165-19.275 42.165-42.165-19.275-42.165-42.165-42.165zM805.948 817.845c-9.638 0-18.071-8.433-18.071-18.071v-101.195c0-9.638 8.433-18.071 18.071-18.071s18.071 8.433 18.071 18.071v101.195c0 9.638-7.228 18.071-18.071 18.071zM819.2 870.852c-3.614 3.614-8.433 4.819-12.047 4.819s-9.638-2.409-12.047-4.819c-3.614-3.614-4.819-8.433-4.819-12.047s2.409-9.638 4.819-12.047c3.614-3.614 8.433-4.819 12.047-4.819s9.638 2.409 12.047 4.819c3.614 3.614 4.819 8.433 4.819 12.047s-1.205 8.433-4.819 12.047zM456.584 880.489c-9.638 0-18.071-8.433-18.071-18.071v-73.487c0-9.638 8.433-18.071 18.071-18.071s18.071 8.433 18.071 18.071v74.692c0 9.638-8.433 16.866-18.071 16.866zM214.438 903.379c-9.638 0-18.071-8.433-18.071-18.071v-115.652c0-9.638 8.433-18.071 18.071-18.071s18.071 8.433 18.071 18.071v115.652c-1.205 10.842-8.433 18.071-18.071 18.071zM226.485 715.445c-3.614 3.614-8.433 4.819-12.047 4.819-4.819 0-9.638-2.409-12.047-4.819-3.614-3.614-4.819-8.433-4.819-12.047 0-4.819 2.409-9.638 4.819-12.047 3.614-3.614 8.433-4.819 12.047-4.819 4.819 0 9.638 2.409 12.047 4.819 3.614 3.614 4.819 8.433 4.819 12.047 0 4.819-1.205 8.433-4.819 12.047zM755.351 532.329c-3.614 3.614-8.433 4.819-12.047 4.819-4.819 0-9.638-2.409-12.047-4.819-3.614-3.614-4.819-8.433-4.819-12.047s2.409-9.638 4.819-12.047c3.614-3.614 8.433-4.819 12.047-4.819 4.819 0 9.638 2.409 12.047 4.819 3.614 3.614 4.819 8.433 4.819 12.047s-1.205 8.433-4.819 12.047z" />
<glyph unicode="&#xe91e;" horiz-adv-x="4506" d="M682.667 229.547h-423.253l-122.88-266.24h-119.467l457.387 986.453 447.147-986.453h-122.88l-116.053 266.24zM638.293 328.533l-163.84 375.467-170.667-378.88h334.507z" />
<glyph unicode="&#xe91f;" horiz-adv-x="4506" d="M1433.6-50.347v92.16h-3.413c-51.2-64.853-122.88-98.987-215.040-98.987-44.373 0-85.333 6.827-122.88 23.893s-68.267 37.547-95.573 68.267c-27.307 27.307-44.373 61.44-61.44 98.987-6.827 40.96-13.653 78.507-13.653 119.467 0 58.027 13.653 109.227 37.547 157.013s58.027 85.333 105.813 112.64c44.373 27.307 98.987 40.96 157.013 40.96 40.96 0 81.92-10.24 119.467-27.307s68.267-40.96 95.573-75.093h-3.413v474.453h105.813v-986.453h-105.813zM1232.213 471.893c-37.547 0-75.093-10.24-105.813-30.72s-54.613-44.373-71.68-78.507c-17.067-30.72-23.893-68.267-23.893-102.4 0-40.96 6.827-75.093 23.893-109.227s37.547-61.44 71.68-81.92c30.72-20.48 68.267-30.72 109.227-30.72 64.853 0 116.053 20.48 153.6 64.853s54.613 95.573 54.613 157.013c0 40.96-6.827 75.093-23.893 105.813s-40.96 58.027-71.68 75.093c-37.547 23.893-75.093 30.72-116.053 30.72z" />
<glyph unicode="&#xe920;" horiz-adv-x="4506" d="M2215.253 775.68l-88.747-54.613c-20.48 34.133-44.373 61.44-71.68 78.507-23.893 17.067-58.027 23.893-98.987 23.893-27.307 0-54.613-6.827-81.92-20.48-23.893-13.653-44.373-30.72-61.44-51.2-13.653-23.893-23.893-47.787-23.893-75.093 0-23.893 6.827-47.787 23.893-64.853s34.133-34.133 54.613-44.373 47.787-23.893 78.507-37.547l64.853-27.307c51.2-20.48 92.16-40.96 126.293-64.853 34.133-20.48 61.44-47.787 81.92-81.92s30.72-71.68 30.72-119.467c0-54.613-13.653-102.4-40.96-146.773s-64.853-78.507-112.64-105.813c-47.787-23.893-98.987-37.547-157.013-37.547-51.2 0-98.987 10.24-143.36 30.72s-78.507 47.787-109.227 85.333c-27.307 37.547-47.787 78.507-58.027 126.293l109.227 27.307c6.827-51.2 30.72-92.16 64.853-126.293 37.547-34.133 81.92-51.2 133.12-51.2 34.133 0 68.267 6.827 98.987 23.893s58.027 37.547 75.093 64.853c20.48 27.307 27.307 58.027 27.307 92.16s-6.827 61.44-23.893 85.333c-17.067 23.893-37.547 40.96-61.44 54.613s-58.027 30.72-98.987 47.787l-61.44 23.893c-44.373 20.48-81.92 37.547-112.64 58.027s-54.613 44.373-75.093 75.093c-17.067 30.72-27.307 64.853-27.307 109.227 0 34.133 6.827 68.267 23.893 98.987 13.653 30.72 34.133 54.613 61.44 75.093s54.613 37.547 88.747 47.787c34.133 10.24 68.267 17.067 105.813 17.067s71.68-6.827 102.4-17.067c34.133-10.24 61.44-27.307 88.747-51.2 30.72-13.653 51.2-37.547 68.267-68.267z" />
<glyph unicode="&#xe921;" horiz-adv-x="4506" d="M2836.48 506.027v-133.12h-3.413c-54.613 64.853-119.467 98.987-191.147 98.987-40.96 0-78.507-10.24-112.64-30.72s-58.027-47.787-78.507-78.507c-20.48-34.133-27.307-68.267-27.307-109.227 0-37.547 10.24-75.093 27.307-109.227s44.373-61.44 75.093-78.507c34.133-20.48 68.267-30.72 112.64-30.72 78.507 0 146.773 34.133 201.387 102.4h3.413v-133.12c-61.44-40.96-126.293-61.44-197.973-61.44-61.44 0-116.053 13.653-167.253 40.96s-88.747 64.853-119.467 112.64c-27.307 47.787-44.373 98.987-44.373 157.013s13.653 109.227 44.373 157.013c30.72 47.787 71.68 85.333 119.467 112.64 51.2 27.307 105.813 40.96 167.253 40.96 71.68 3.413 133.12-17.067 191.147-58.027z" />
<glyph unicode="&#xe922;" horiz-adv-x="4506" d="M4488.533 232.96h-488.107c0-37.547 10.24-68.267 27.307-98.987s40.96-54.613 71.68-71.68c30.72-17.067 64.853-27.307 105.813-27.307 78.507 0 139.947 40.96 187.733 119.467l88.747-47.787c-30.72-51.2-68.267-92.16-119.467-122.88-47.787-27.307-105.813-44.373-167.253-44.373s-112.64 13.653-160.427 40.96c-44.373 27.307-81.92 61.44-105.813 109.227s-37.547 95.573-37.547 153.6c0 58.027 10.24 112.64 34.133 160.427s58.027 85.333 102.4 116.053c44.373 27.307 98.987 40.96 160.427 40.96s116.053-13.653 160.427-44.373c44.373-27.307 78.507-68.267 102.4-119.467 27.307-40.96 37.547-98.987 37.547-163.84zM4007.253 318.293h372.053c-3.413 27.307-17.067 54.613-34.133 78.507s-37.547 40.96-64.853 54.613c-27.307 13.653-54.613 20.48-85.333 20.48-44.373 0-85.333-13.653-122.88-44.373s-58.027-64.853-64.853-109.227z" />
<glyph unicode="&#xe923;" horiz-adv-x="4506" d="M3713.707 932.693h105.813v-986.453h-105.813v986.453z" />
<glyph unicode="&#xe924;" horiz-adv-x="4506" d="M3481.6 243.2v0c0 3.413 3.413 6.827 3.413 10.24l78.507 296.96h-129.707l-20.48-78.507-27.307-102.4-34.133-136.533-17.067-64.853c-37.547-122.88-88.747-180.907-157.013-180.907-88.747 0-133.12 85.333-133.12 259.413 0 180.907 47.787 273.067 139.947 273.067 40.96 0 75.093-20.48 105.813-58.027 13.653-17.067 27.307-37.547 37.547-61.44l17.067 64.853c-13.653 23.893-27.307 40.96-44.373 58.027-34.133 30.72-75.093 47.787-126.293 47.787-75.093 0-136.533-27.307-187.733-81.92s-78.507-129.707-78.507-228.693c0-98.987 23.893-177.493 71.68-228.693 47.787-54.613 112.64-78.507 194.56-78.507 92.16 0 163.84 27.307 215.040 81.92v0c0 0 10.24 6.827 23.893 27.307s30.72 47.787 44.373 92.16c3.413 20.48 13.653 51.2 23.893 88.747z" />
<glyph unicode="&#xe925;" horiz-adv-x="4506" d="M3611.307 110.080c0-51.2-23.893-78.507-71.68-78.507-20.48 0-37.547 10.24-51.2 30.72-13.653-27.307-27.307-44.373-37.547-58.027 6.827-13.653 10.24-23.893 17.067-30.72 13.653-17.067 34.133-27.307 61.44-27.307 30.72 0 58.027 13.653 78.507 44.373s30.72 71.68 30.72 119.467h-27.307z" />
</font>
</defs>
</svg>
